<?xml version="1.0" encoding="utf-8"?>
<!-- Generator: Adobe Illustrator 26.2.1, SVG Export Plug-In . SVG Version: 6.00 Build 0)  -->
<svg version="1.1" id="a" xmlns="http://www.w3.org/2000/svg" xmlns:xlink="http://www.w3.org/1999/xlink" x="0px" y="0px"
	 viewBox="0 0 329.7 314.6" style="enable-background:new 0 0 329.7 314.6;" xml:space="preserve">
<style type="text/css">
	.st0{opacity:0.5;fill:#DBDBDB;enable-background:new    ;}
	.st1{opacity:0.6;fill:#DBDBDB;enable-background:new    ;}
	.st2{opacity:0.75;fill:#DBDBDB;enable-background:new    ;}
	.st3{fill:#FFFFFF;}
	.st4{clip-path:url(#SVGID_00000063629691005913849400000004205603830818262673_);}
	.st5{fill:#E6E6E6;}
	.st6{fill:#1B8992;}
	.st7{fill:#F2F2F2;}
	.st8{clip-path:url(#SVGID_00000121278749871186037470000003014964706925601974_);}
	.st9{fill:#CDCDCD;}
	.st10{fill:#6DAFCC;}
	.st11{clip-path:url(#SVGID_00000080204400710650999970000008206374414383180942_);}
	.st12{fill:#108141;}
	.st13{clip-path:url(#SVGID_00000134221452265145428290000001945535376858838682_);}
	.st14{fill:#F4BB2A;}
	.st15{clip-path:url(#SVGID_00000179618830939498200370000010193696116176432309_);}
	.st16{fill:#29696D;}
	.st17{opacity:0.85;fill:#FFFFFF;enable-background:new    ;}
	.st18{fill:#3E6D93;}
	.st19{fill:#FFA800;}
</style>
<circle class="st0" cx="165.5" cy="156.8" r="155"/>
<circle class="st1" cx="165.5" cy="156.8" r="126.5"/>
<circle class="st2" cx="165.5" cy="156.8" r="98"/>
<path class="st3" d="M116.5,141.4h6.8v1.9h-2.2v6.6h-2.3v-6.6h-2.2L116.5,141.4L116.5,141.4z"/>
<path class="st3" d="M132.1,143.2H129v1.4h2.7v1.8H129v1.5h3.1v1.9h-5.4v-8.5h5.4V143.2L132.1,143.2z"/>
<g>
	<g>
		<g>
			<defs>
				<rect id="SVGID_1_" x="47.7" y="61.5" width="66.8" height="42.3"/>
			</defs>
			<clipPath id="SVGID_00000166656270233698262050000005229506019298769331_">
				<use xlink:href="#SVGID_1_"  style="overflow:visible;"/>
			</clipPath>
			<g style="clip-path:url(#SVGID_00000166656270233698262050000005229506019298769331_);">
				<path id="u" class="st5" d="M105.2,103.8H57c-5.1,0-9.3-4.2-9.3-9.3l0,0V70.8c0-5.1,4.2-9.3,9.3-9.3h48.2c5.1,0,9.3,4.1,9.3,9.3
					l0,0v23.8C114.5,99.6,110.3,103.8,105.2,103.8L105.2,103.8"/>
			</g>
		</g>
	</g>
	<path id="v" class="st6" d="M104.2,102.4H56c-5.1,0-9.3-4.2-9.3-9.3l0,0V69.3c0-5.1,4.2-9.3,9.3-9.3h48.2c5.1,0,9.3,4.1,9.3,9.3
		l0,0v23.8C113.5,98.2,109.4,102.4,104.2,102.4L104.2,102.4"/>
	<g>
		<path class="st7" d="M57.1,80.3c-1.3,0-2.2-0.6-2.3-1.8h1.7c0,0.4,0.3,0.6,0.6,0.6s0.5-0.1,0.5-0.4c0-0.9-2.7-0.5-2.7-2.4
			c0-1.1,0.9-1.7,2.1-1.7c1.3,0,2.1,0.6,2.2,1.8h-1.7c0-0.3-0.2-0.5-0.5-0.5c-0.2,0-0.4,0.1-0.4,0.4c0,0.8,2.7,0.6,2.7,2.4
			C59.2,79.6,58.5,80.3,57.1,80.3L57.1,80.3z"/>
		<path class="st7" d="M61.5,74.7h1.6V78c0,0.6,0.3,0.9,0.9,0.9c0.6,0,0.9-0.4,0.9-0.9v-3.3h1.6V78c0,1.6-1.1,2.4-2.5,2.4
			s-2.4-0.8-2.4-2.4L61.5,74.7L61.5,74.7z"/>
		<path class="st7" d="M71.2,78.4h-0.8v1.9h-1.6v-5.6h2.3c1.4,0,2.1,0.8,2.1,1.9C73.3,77.5,72.6,78.4,71.2,78.4L71.2,78.4z M71,77.1
			c0.5,0,0.7-0.2,0.7-0.6s-0.2-0.6-0.7-0.6h-0.6v1.2H71L71,77.1z"/>
		<path class="st7" d="M78.2,80.3c-1.6,0-2.9-1.2-2.9-2.9s1.3-2.9,2.9-2.9s2.9,1.2,2.9,2.9S79.8,80.3,78.2,80.3z M78.2,78.9
			c0.8,0,1.3-0.6,1.3-1.4S79.1,76,78.2,76s-1.3,0.6-1.3,1.4S77.4,78.9,78.2,78.9z"/>
		<path class="st7" d="M85.9,74.7c1.4,0,2.1,0.8,2.1,1.8c0,0.7-0.4,1.4-1.2,1.6l1.3,2.2h-1.8l-1.1-2.1H85v2.1h-1.6v-5.6H85.9
			L85.9,74.7z M85.8,76H85v1.2h0.8c0.4,0,0.6-0.2,0.6-0.6S86.2,76,85.8,76z"/>
		<path class="st7" d="M90,74.7h4.6v1.2h-1.5v4.4h-1.6v-4.4H90V74.7z"/>
		<path class="st7" d="M100.4,75.9h-2v0.9h1.8V78h-1.8v1h2v1.2h-3.6v-5.6h3.6V75.9L100.4,75.9z"/>
		<path class="st7" d="M60.2,86.5c0,1.6-1.1,2.8-2.9,2.8H55v-5.6h2.2C59,83.6,60.2,84.8,60.2,86.5L60.2,86.5z M57.1,87.9
			c0.9,0,1.5-0.5,1.5-1.4S58,85,57.1,85h-0.5v2.9H57.1L57.1,87.9z"/>
		<path class="st7" d="M66.1,88.4h-2l-0.3,0.9h-1.7l2-5.6H66l2.1,5.6h-1.7L66.1,88.4L66.1,88.4z M65.1,85.3l-0.6,1.8h1.2L65.1,85.3z
			"/>
		<path class="st7" d="M77.1,83.7h1.7l-1.9,5.6h-2L73,83.7h1.7l1.3,4.1C75.8,87.7,77.1,83.7,77.1,83.7z"/>
		<path class="st7" d="M80.8,83.7h1.6v5.6h-1.6V83.7z"/>
		<path class="st7" d="M90.1,86.5c0,1.6-1.1,2.8-2.9,2.8H85v-5.6h2.2C88.9,83.6,90.1,84.8,90.1,86.5L90.1,86.5z M87,87.9
			c0.9,0,1.5-0.5,1.5-1.4S87.9,85,87,85h-0.5v2.9H87L87,87.9z"/>
		<path class="st7" d="M95.9,88.4h-2l-0.3,0.9H92l2.1-5.6h1.8l2.1,5.6h-1.7L95.9,88.4L95.9,88.4z M94.9,85.3l-0.6,1.8h1.2L94.9,85.3
			z"/>
	</g>
</g>
<g>
	<g>
		<g>
			<defs>
				<rect id="SVGID_00000035514046097163196920000004343593555021351583_" x="200.3" y="38.5" width="86.7" height="54.9"/>
			</defs>
			<clipPath id="SVGID_00000162332025027467722800000016580963851450152841_">
				<use xlink:href="#SVGID_00000035514046097163196920000004343593555021351583_"  style="overflow:visible;"/>
			</clipPath>
			<g style="clip-path:url(#SVGID_00000162332025027467722800000016580963851450152841_);">
				<path id="x" class="st9" d="M277.8,93.4h-68.2c-5.1,0-9.3-4.2-9.3-9.3V47.8c0-5.1,4.1-9.3,9.3-9.3h68.2c5.1,0,9.3,4.2,9.3,9.3
					v36.4C287.1,89.3,282.9,93.4,277.8,93.4"/>
			</g>
		</g>
	</g>
	<path id="y" class="st10" d="M275.6,91.3h-68.2c-5.1,0-9.3-4.2-9.3-9.3V45.7c0-5.1,4.1-9.3,9.3-9.3h68.2c5.1,0,9.3,4.2,9.3,9.3
		v36.4C284.8,87.2,280.7,91.4,275.6,91.3"/>
	<path class="st7" d="M215.2,57.2c-0.9,0-1.7-0.5-1.7-1.4h1.2c0,0.3,0.2,0.4,0.4,0.4s0.4-0.1,0.4-0.3c0-0.7-2.1-0.4-2-1.8
		c0-0.8,0.7-1.3,1.6-1.3c1,0,1.6,0.5,1.6,1.3h-1.3c0-0.3-0.2-0.4-0.4-0.4s-0.3,0.1-0.3,0.3c0,0.6,2,0.4,2,1.8
		C216.8,56.6,216.2,57.2,215.2,57.2L215.2,57.2z"/>
	<path class="st7" d="M218.5,52.9h1.2v2.5c0,0.4,0.2,0.7,0.6,0.7s0.6-0.3,0.6-0.7v-2.5h1.2v2.5c0,1.2-0.8,1.8-1.9,1.8
		s-1.8-0.6-1.8-1.8L218.5,52.9L218.5,52.9z"/>
	<path class="st7" d="M225.8,55.7h-0.6v1.4H224v-4.2h1.8c1.1,0,1.6,0.6,1.6,1.4C227.4,55.1,226.9,55.7,225.8,55.7z M225.7,54.8
		c0.4,0,0.5-0.2,0.5-0.5s-0.1-0.5-0.5-0.5h-0.5v0.9L225.7,54.8L225.7,54.8z"/>
	<path class="st7" d="M231.1,57.2c-1.2,0-2.2-0.9-2.2-2.2s1-2.2,2.2-2.2s2.2,0.9,2.2,2.2S232.3,57.2,231.1,57.2z M231.1,56.1
		c0.6,0,1-0.4,1-1.1s-0.4-1.1-1-1.1s-1,0.4-1,1.1S230.4,56.1,231.1,56.1z"/>
	<path class="st7" d="M239.9,52.9h3.4v0.9h-1.1v3.3H241v-3.3h-1.1V52.9z"/>
	<path class="st7" d="M247.6,53.9h-1.5v0.7h1.4v0.9h-1.4v0.8h1.5v0.9h-2.7V53h2.7V53.9L247.6,53.9z"/>
	<path class="st7" d="M253.5,55.7H253v1.4h-1.2v-4.2h1.8c1.1,0,1.6,0.6,1.6,1.4C255.1,55.1,254.6,55.7,253.5,55.7L253.5,55.7z
		 M253.4,54.8c0.4,0,0.5-0.2,0.5-0.5s-0.1-0.5-0.5-0.5H253v0.9L253.4,54.8L253.4,54.8z"/>
	<path class="st7" d="M259.5,56.5H258l-0.2,0.7h-1.2l1.5-4.2h1.4l1.5,4.2h-1.2L259.5,56.5L259.5,56.5z M258.7,54.2l-0.5,1.4h0.9
		L258.7,54.2z"/>
	<path class="st7" d="M264.4,52.9c1,0,1.6,0.6,1.6,1.4c0,0.5-0.3,1-0.9,1.2l1,1.7h-1.3l-0.8-1.6h-0.1v1.6h-1.2V53
		C262.5,52.9,264.4,52.9,264.4,52.9z M264.3,53.9h-0.6v0.9h0.6c0.3,0,0.5-0.2,0.5-0.4C264.8,54.1,264.6,53.9,264.3,53.9z"/>
	<path class="st7" d="M270.4,56.5h-1.5l-0.2,0.7h-1.2L269,53h1.4l1.5,4.2h-1.2L270.4,56.5z M269.6,54.2l-0.5,1.4h0.9L269.6,54.2z"/>
	<path class="st7" d="M219.5,72.6c0,1.2-0.9,2.1-2.2,2.1h-1.7v-4.2h1.7C218.6,70.5,219.5,71.4,219.5,72.6z M217.2,73.7
		c0.7,0,1.1-0.4,1.1-1.1s-0.4-1.1-1.1-1.1h-0.4v2.2H217.2z"/>
	<path class="st7" d="M223.3,74.8c-1.2,0-2.2-0.9-2.2-2.2s1-2.2,2.2-2.2s2.2,0.9,2.2,2.2S224.5,74.8,223.3,74.8z M223.3,73.7
		c0.6,0,1-0.4,1-1.1s-0.4-1.1-1-1.1s-1,0.4-1,1.1S222.6,73.7,223.3,73.7z"/>
	<path class="st7" d="M228.8,74.8c-0.9,0-1.7-0.4-1.7-1.4h1.2c0,0.3,0.2,0.4,0.4,0.4s0.4-0.1,0.4-0.3c0-0.7-2.1-0.4-2-1.8
		c0-0.8,0.7-1.3,1.6-1.3c1,0,1.6,0.5,1.6,1.3H229c0-0.3-0.2-0.4-0.4-0.4s-0.3,0.1-0.3,0.3c0,0.6,2,0.4,2,1.8
		C230.3,74.2,229.7,74.8,228.8,74.8L228.8,74.8z"/>
	<path class="st7" d="M236,74.8c-0.9,0-1.7-0.4-1.7-1.4h1.2c0,0.3,0.2,0.4,0.4,0.4s0.4-0.1,0.4-0.3c0-0.7-2.1-0.4-2-1.8
		c0-0.8,0.7-1.3,1.6-1.3c1,0,1.6,0.5,1.6,1.3h-1.3c0-0.3-0.2-0.4-0.4-0.4s-0.3,0.1-0.3,0.3c0,0.6,2,0.4,2,1.8
		C237.6,74.2,237,74.8,236,74.8L236,74.8z"/>
	<path class="st7" d="M242.1,71.4h-1.5v0.7h1.4V73h-1.4v0.8h1.5v0.9h-2.7v-4.2h2.7V71.4L242.1,71.4z"/>
	<path class="st7" d="M245.7,70.5c1.1,0,1.6,0.6,1.6,1.4c0,0.6-0.3,1-0.9,1.2l0.9,1.7H246l-0.8-1.6H245v1.6h-1.2v-4.2L245.7,70.5
		L245.7,70.5z M245.6,71.5H245v0.9h0.6c0.3,0,0.5-0.2,0.5-0.4C246.1,71.7,245.9,71.5,245.6,71.5z"/>
	<path class="st7" d="M251.9,70.5h1.2l-1.5,4.2h-1.5l-1.5-4.2h1.3l1,3.1L251.9,70.5L251.9,70.5z"/>
	<path class="st7" d="M254.7,70.5h1.2v4.2h-1.2V70.5z"/>
	<path class="st7" d="M259.7,70.5c1.1,0,1.8,0.6,2,1.6h-1.3c-0.1-0.3-0.4-0.5-0.8-0.5c-0.5,0-0.9,0.4-0.9,1.1s0.4,1.1,0.9,1.1
		c0.4,0,0.6-0.2,0.8-0.5h1.3c-0.2,0.8-0.8,1.4-1.7,1.6V75c0.3,0,0.8,0.2,0.8,0.7s-0.5,0.7-0.9,0.7h-1v-0.6h0.8c0.1,0,0.2,0,0.2-0.1
		s-0.1-0.1-0.2-0.1h-0.5v-0.8c-1.1-0.1-1.8-1-1.8-2.1C257.6,71.4,258.4,70.5,259.7,70.5L259.7,70.5z"/>
	<path class="st7" d="M265.5,74.8c-1.2,0-2.2-0.9-2.2-2.2s1-2.2,2.2-2.2s2.2,0.9,2.2,2.2S266.7,74.8,265.5,74.8z M265.5,73.7
		c0.6,0,1-0.4,1-1.1s-0.4-1.1-1-1.1s-1,0.4-1,1.1S264.9,73.7,265.5,73.7z"/>
	<path class="st7" d="M271,74.8c-0.9,0-1.7-0.4-1.7-1.4h1.2c0,0.3,0.2,0.4,0.4,0.4s0.4-0.1,0.4-0.3c0-0.7-2.1-0.4-2-1.8
		c0-0.8,0.7-1.3,1.6-1.3c1,0,1.6,0.5,1.6,1.3h-1.3c0-0.3-0.2-0.4-0.4-0.4c-0.2,0-0.3,0.1-0.3,0.3c0,0.6,2,0.4,2,1.8
		C272.6,74.2,272,74.8,271,74.8L271,74.8z"/>
	<path class="st7" d="M215.6,66c-1.2,0-2.2-0.9-2.2-2.2s1-2.2,2.2-2.2s2.2,0.9,2.2,2.2S216.8,66,215.6,66z M215.6,64.9
		c0.6,0,1-0.4,1-1.1s-0.4-1.1-1-1.1s-1,0.4-1,1.1S215,64.9,215.6,64.9z"/>
	<path class="st7" d="M221.4,61.7c1.1,0,1.6,0.6,1.6,1.4c0,0.5-0.3,1-0.9,1.2L223,66h-1.3l-0.8-1.6h-0.1V66h-1.2v-4.2L221.4,61.7
		L221.4,61.7z M221.3,62.7h-0.6v0.9h0.6c0.3,0,0.5-0.2,0.5-0.4C221.8,62.9,221.6,62.7,221.3,62.7z"/>
	<path class="st7" d="M236.4,52.7c1.1,0,1.6,0.6,1.6,1.4c0,0.5-0.3,1-0.9,1.2L238,57h-1.3l-0.8-1.6h-0.1V57h-1.2v-4.2L236.4,52.7
		L236.4,52.7z M236.3,53.7h-0.6v0.9h0.6c0.3,0,0.5-0.2,0.5-0.4C236.8,53.9,236.6,53.7,236.3,53.7z"/>
	<path class="st7" d="M228.7,63.1h-1.3c-0.1-0.2-0.4-0.3-0.7-0.3c-0.6,0-0.9,0.4-0.9,1.1c0,0.7,0.4,1.1,1.1,1.1
		c0.4,0,0.7-0.2,0.9-0.6h-1.2v-0.8h2.2v1.1c-0.2,0.6-0.9,1.3-2,1.3c-1.3,0-2.1-0.9-2.1-2.2s0.9-2.2,2.1-2.2
		C227.8,61.7,228.5,62.2,228.7,63.1L228.7,63.1z"/>
	<path class="st7" d="M233.1,65.3h-1.5l-0.2,0.7h-1.2l1.5-4.2h1.4l1.5,4.2h-1.2L233.1,65.3L233.1,65.3z M232.4,63l-0.4,1.4h0.9
		L232.4,63z"/>
	<path class="st7" d="M240.1,61.7V66h-1.2l-1.6-2.4V66h-1.2v-4.2h1.2l1.6,2.4v-2.4C238.9,61.7,240.1,61.7,240.1,61.7z"/>
	<path class="st7" d="M242,61.7h1.2V66H242V61.7z"/>
	<path class="st7" d="M248.1,62.6l-1.8,2.4h1.8v0.9H245V65l1.7-2.4H245v-1h3.1V62.6L248.1,62.6z"/>
	<path class="st7" d="M252.6,65.3h-1.5l-0.2,0.7h-1.2l1.5-4.2h1.4L254,66h-1.2L252.6,65.3L252.6,65.3z M251.8,63l-0.4,1.4h0.9
		L251.8,63z"/>
	<path class="st7" d="M257.6,61.7c1.1,0,1.8,0.6,2,1.6h-1.3c-0.1-0.3-0.4-0.5-0.8-0.5c-0.5,0-0.9,0.4-0.9,1.1c0,0.6,0.4,1.1,0.9,1.1
		c0.4,0,0.6-0.2,0.8-0.5h1.3c-0.2,0.8-0.8,1.4-1.7,1.6v0.2c0.3,0,0.8,0.2,0.8,0.7s-0.5,0.7-0.9,0.7h-1V67h0.8c0.1,0,0.2,0,0.2-0.1
		s-0.1-0.1-0.2-0.1h-0.5V66c-1.1-0.1-1.8-1-1.8-2.1C255.5,62.6,256.3,61.7,257.6,61.7L257.6,61.7z"/>
	<path class="st7" d="M264.1,65.3h-1.5l-0.2,0.7h-1.2l1.5-4.2h1.4l1.5,4.2h-1.2L264.1,65.3L264.1,65.3z M262.9,60.5
		c0.4,0,0.6,0.3,0.8,0.3c0.1,0,0.2-0.1,0.3-0.3h0.6c-0.1,0.7-0.4,1-0.9,1c-0.4,0-0.6-0.3-0.8-0.3c-0.1,0-0.2,0.1-0.3,0.3H262
		C262.1,60.8,262.4,60.5,262.9,60.5L262.9,60.5z M263.3,63l-0.5,1.4h0.9L263.3,63z"/>
	<path class="st7" d="M269.1,66c-1.2,0-2.2-0.9-2.2-2.2s1-2.2,2.2-2.2s2.2,0.9,2.2,2.2S270.3,66,269.1,66z M269.1,64.9
		c0.6,0,1-0.4,1-1.1s-0.4-1.1-1-1.1s-1,0.4-1,1.1S268.5,64.9,269.1,64.9z"/>
</g>
<g>
	<g>
		<g>
			<defs>
				<rect id="SVGID_00000146464473633794301900000002987559786514247865_" x="8.8" y="161.4" width="86.7" height="54.9"/>
			</defs>
			<clipPath id="SVGID_00000015324890559877745630000011436332046854187176_">
				<use xlink:href="#SVGID_00000146464473633794301900000002987559786514247865_"  style="overflow:visible;"/>
			</clipPath>
			<g style="clip-path:url(#SVGID_00000015324890559877745630000011436332046854187176_);">
				<path id="aa" class="st5" d="M86.3,216.3H18.1c-5.1,0-9.3-4.1-9.3-9.3v-36.4c0-5.1,4.1-9.3,9.3-9.3h68.2c5.1,0,9.3,4.1,9.3,9.3
					V207C95.6,212.1,91.4,216.3,86.3,216.3"/>
			</g>
		</g>
	</g>
	<path id="ab" class="st12" d="M85.1,214.5H16.9c-5.1,0-9.3-4.1-9.3-9.3v-36.4c0-5.1,4.1-9.3,9.3-9.3h68.2c5.1,0,9.3,4.1,9.3,9.3
		v36.4C94.4,210.3,90.2,214.5,85.1,214.5"/>
	<path class="st7" d="M21.4,175.6c1.1,0,1.8,0.6,2,1.6h-1.3c-0.1-0.3-0.4-0.5-0.8-0.5c-0.5,0-0.9,0.4-0.9,1.1s0.4,1.1,0.9,1.1
		c0.4,0,0.6-0.2,0.8-0.5h1.3c-0.2,1-1,1.6-2,1.6c-1.3,0-2.1-0.9-2.1-2.1S20.1,175.6,21.4,175.6L21.4,175.6z"/>
	<path class="st7" d="M27.2,179.9c-1.2,0-2.2-0.9-2.2-2.2s1-2.2,2.2-2.2s2.2,0.9,2.2,2.2S28.4,179.9,27.2,179.9z M27.2,178.8
		c0.6,0,1-0.4,1-1.1s-0.4-1.1-1-1.1s-1,0.4-1,1.1S26.6,178.8,27.2,178.8z"/>
	<path class="st7" d="M35,175.6v4.2h-1.2l-1.6-2.4v2.4H31v-4.2h1.2l1.6,2.4v-2.4H35z"/>
	<path class="st7" d="M36.9,175.6h2.9v0.9H38v0.7h1.2v0.9H38v1.7h-1.2L36.9,175.6L36.9,175.6z"/>
	<path class="st7" d="M43.5,179.9c-1.2,0-2.2-0.9-2.2-2.2s1-2.2,2.2-2.2s2.2,0.9,2.2,2.2S44.7,179.9,43.5,179.9z M43.5,178.8
		c0.6,0,1-0.4,1-1.1s-0.4-1.1-1-1.1s-1,0.4-1,1.1S42.9,178.8,43.5,178.8z"/>
	<path class="st7" d="M49.2,175.6c1,0,1.6,0.6,1.6,1.4c0,0.6-0.3,1-0.9,1.2l1,1.6h-1.3l-0.8-1.6h-0.1v1.6h-1.2v-4.2H49.2L49.2,175.6
		z M49.1,176.6h-0.6v0.9h0.6c0.3,0,0.5-0.2,0.5-0.4C49.6,176.8,49.4,176.6,49.1,176.6z"/>
	<path class="st7" d="M52.5,175.6h1.4l1.1,2.8l1-2.8h1.4v4.2h-1.2v-2.3l-0.8,2.3h-1l-0.8-2.4v2.4h-1.2L52.5,175.6L52.5,175.6z"/>
	<path class="st7" d="M62,179.2h-1.5l-0.2,0.7H59l1.5-4.2h1.4l1.5,4.2h-1.2L62,179.2z M61.3,176.9l-0.5,1.4h0.9L61.3,176.9z"/>
	<path class="st7" d="M67,175.6c1.1,0,1.8,0.6,2,1.6h-1.3c-0.2-0.3-0.4-0.5-0.8-0.5c-0.5,0-0.9,0.4-0.9,1.1s0.3,1.1,0.9,1.1
		c0.3,0,0.6-0.2,0.8-0.5H69c-0.2,0.9-0.8,1.4-1.7,1.6v0.2c0.3,0,0.8,0.2,0.8,0.7s-0.5,0.7-0.9,0.7h-1V181H67c0.1,0,0.2,0,0.2-0.1
		s-0.1-0.1-0.2-0.1h-0.5V180c-1.1-0.1-1.8-1-1.8-2.1C64.9,176.5,65.7,175.6,67,175.6L67,175.6z"/>
	<path class="st7" d="M73.5,179.2H72l-0.2,0.7h-1.2l1.5-4.2h1.3l1.5,4.2h-1.2L73.5,179.2L73.5,179.2z M72.3,174.4
		c0.4,0,0.6,0.3,0.8,0.3c0.1,0,0.2-0.1,0.3-0.3H74c-0.1,0.7-0.4,1-0.9,1c-0.4,0-0.6-0.3-0.8-0.3c-0.1,0-0.2,0.1-0.3,0.3h-0.6
		C71.6,174.7,71.9,174.4,72.3,174.4L72.3,174.4z M72.7,176.9l-0.4,1.4h0.9C73.2,178.3,72.7,176.9,72.7,176.9z"/>
	<path class="st7" d="M78.6,179.9c-1.2,0-2.2-0.9-2.2-2.2s1-2.2,2.2-2.2s2.2,0.9,2.2,2.2S79.8,179.9,78.6,179.9z M78.6,178.8
		c0.6,0,1-0.4,1-1.1s-0.4-1.1-1-1.1s-1,0.4-1,1.1S78,178.8,78.6,178.8z"/>
	<path class="st7" d="M16.2,196h-0.6v1.4h-1.2v-4.2h1.8c1,0,1.6,0.6,1.6,1.4C17.8,195.4,17.2,196,16.2,196L16.2,196z M16.1,195.1
		c0.4,0,0.5-0.2,0.5-0.5s-0.1-0.5-0.5-0.5h-0.5v0.9L16.1,195.1L16.1,195.1z"/>
	<path class="st7" d="M21.5,197.5c-1.2,0-2.2-0.9-2.2-2.2s1-2.2,2.2-2.2s2.2,0.9,2.2,2.2S22.7,197.5,21.5,197.5z M21.5,196.4
		c0.6,0,1-0.4,1-1.1s-0.4-1.1-1-1.1s-1,0.4-1,1.1S20.9,196.4,21.5,196.4z"/>
	<path class="st7" d="M25.1,193.2h3.4v0.9h-1.1v3.3h-1.2v-3.3h-1.1C25.1,194.1,25.1,193.2,25.1,193.2z"/>
	<path class="st7" d="M32.9,194.1h-1.5v0.7h1.4v0.9h-1.4v0.8h1.5v0.9h-2.7v-4.2h2.7V194.1L32.9,194.1z"/>
	<path class="st7" d="M38.6,193.2v4.2h-1.2l-1.6-2.4v2.4h-1.2v-4.2h1.2l1.6,2.4v-2.4H38.6z"/>
	<path class="st7" d="M42.4,193.2c1.1,0,1.8,0.6,2,1.6h-1.3c-0.2-0.3-0.4-0.5-0.8-0.5c-0.5,0-0.9,0.4-0.9,1.1s0.3,1.1,0.9,1.1
		c0.3,0,0.6-0.2,0.8-0.5h1.3c-0.2,1-1,1.6-2,1.6c-1.3,0-2.1-0.9-2.1-2.1S41.1,193.2,42.4,193.2L42.4,193.2z"/>
	<path class="st7" d="M46.2,193.2h1.2v4.2h-1.2V193.2z"/>
	<path class="st7" d="M51.9,196.7h-1.5l-0.2,0.7H49l1.5-4.2h1.3l1.5,4.2h-1.2L51.9,196.7L51.9,196.7z M51.2,194.5l-0.5,1.4h0.9
		L51.2,194.5z"/>
	<path class="st7" d="M56.2,193.2v3.3h1.3v0.9H55v-4.2H56.2L56.2,193.2z"/>
	<path class="st7" d="M59.1,193.2h1.2v4.2h-1.2V193.2z"/>
	<path class="st7" d="M66.1,195.3c0,1.2-0.9,2.1-2.2,2.1h-1.7v-4.2h1.7C65.2,193.2,66.1,194.1,66.1,195.3z M63.8,196.4
		c0.7,0,1.1-0.4,1.1-1.1s-0.4-1.1-1.1-1.1h-0.4v2.2C63.3,196.4,63.8,196.4,63.8,196.4z"/>
	<path class="st7" d="M70.5,196.7H69l-0.2,0.7h-1.2l1.5-4.2h1.3l1.5,4.2h-1.2L70.5,196.7L70.5,196.7z M69.7,194.5l-0.4,1.4h0.9
		C70.2,195.8,69.7,194.5,69.7,194.5z"/>
	<path class="st7" d="M77.4,195.3c0,1.2-0.9,2.1-2.2,2.1h-1.7v-4.2h1.7C76.5,193.2,77.4,194.1,77.4,195.3z M75.1,196.4
		c0.7,0,1.1-0.4,1.1-1.1s-0.4-1.1-1.1-1.1h-0.4v2.2L75.1,196.4L75.1,196.4z"/>
	<path class="st7" d="M81.8,194.1h-1.5v0.7h1.3v0.9h-1.3v0.8h1.5v0.9h-2.7v-4.2h2.7V194.1L81.8,194.1z"/>
	<path class="st7" d="M85.2,197.5c-0.9,0-1.7-0.4-1.7-1.4h1.2c0,0.3,0.2,0.4,0.4,0.4s0.4-0.1,0.4-0.3c0-0.7-2.1-0.4-2-1.8
		c0-0.8,0.7-1.3,1.6-1.3c1,0,1.6,0.5,1.7,1.3h-1.3c0-0.3-0.2-0.4-0.4-0.4c-0.2,0-0.3,0.1-0.3,0.3c0,0.6,2,0.4,2,1.8
		C86.8,196.9,86.2,197.5,85.2,197.5L85.2,197.5z"/>
	<path class="st7" d="M21.3,186.5c0,1.2-0.9,2.1-2.2,2.1h-1.7v-4.2h1.7C20.4,184.4,21.3,185.3,21.3,186.5z M19,187.6
		c0.7,0,1.1-0.4,1.1-1.1s-0.4-1.1-1.1-1.1h-0.4v2.2L19,187.6L19,187.6z"/>
	<path class="st7" d="M25.7,185.4h-1.5v0.7h1.4v0.9h-1.4v0.8h1.5v0.9H23v-4.2h2.7V185.4L25.7,185.4z"/>
	<path class="st7" d="M31.6,187.2H31v1.4h-1.2v-4.2h1.8c1,0,1.6,0.6,1.6,1.4C33.2,186.6,32.7,187.2,31.6,187.2z M31.5,186.3
		c0.4,0,0.5-0.2,0.5-0.5s-0.1-0.5-0.5-0.5H31v0.9L31.5,186.3L31.5,186.3z"/>
	<path class="st7" d="M36.7,184.4c1,0,1.6,0.6,1.6,1.4c0,0.6-0.3,1-0.9,1.2l1,1.6H37l-0.8-1.6H36v1.6h-1.2v-4.2H36.7z M36.6,185.4
		H36v0.9h0.6c0.3,0,0.5-0.2,0.5-0.4C37.1,185.6,37,185.4,36.6,185.4z"/>
	<path class="st7" d="M42.1,188.7c-1.2,0-2.2-0.9-2.2-2.2s1-2.2,2.2-2.2s2.2,0.9,2.2,2.2S43.3,188.7,42.1,188.7z M42.1,187.6
		c0.6,0,1-0.4,1-1.1s-0.4-1.1-1-1.1s-1,0.4-1,1.1S41.5,187.6,42.1,187.6z"/>
	<path class="st7" d="M48,188.6h-2v-4.2h2c0.9,0,1.4,0.4,1.4,1.1c0,0.5-0.3,0.8-0.7,1c0.5,0.1,0.8,0.5,0.8,1
		C49.5,188.2,49,188.6,48,188.6L48,188.6z M47.7,185.4h-0.6v0.7h0.6c0.3,0,0.4-0.1,0.4-0.4S48,185.3,47.7,185.4L47.7,185.4z
		 M47.8,186.9h-0.7v0.8h0.7c0.3,0,0.4-0.1,0.4-0.4S48.1,186.9,47.8,186.9L47.8,186.9z"/>
	<path class="st7" d="M52.4,184.4v3.3h1.3v0.9h-2.5v-4.2H52.4L52.4,184.4z"/>
	<path class="st7" d="M58,185.4h-1.5v0.7h1.3v0.9h-1.3v0.8H58v0.9h-2.7v-4.2H58V185.4L58,185.4z"/>
	<path class="st7" d="M59.8,184.4h1.4l1.1,2.8l1-2.8h1.4v4.2h-1.2v-2.3l-0.8,2.3h-1l-0.8-2.4v2.4h-1.2
		C59.8,188.6,59.8,184.4,59.8,184.4z"/>
	<path class="st7" d="M69.3,187.9h-1.5l-0.2,0.7h-1.2l1.5-4.2h1.3l1.5,4.2h-1.2L69.3,187.9L69.3,187.9z M68.6,185.7l-0.4,1.4H69
		C69,187,68.6,185.7,68.6,185.7z"/>
	<path class="st7" d="M74,188.7c-0.9,0-1.7-0.4-1.7-1.4h1.2c0,0.3,0.2,0.4,0.4,0.4s0.4-0.1,0.4-0.3c0-0.7-2.1-0.4-2-1.8
		c0-0.8,0.7-1.3,1.6-1.3c1,0,1.6,0.5,1.7,1.3h-1.3c0-0.3-0.2-0.4-0.4-0.4c-0.2,0-0.3,0.1-0.3,0.3c0,0.6,2,0.4,2,1.8
		C75.5,188.1,75,188.7,74,188.7L74,188.7z"/>
	<path class="st7" d="M82.3,185.4h-1.5v0.7h1.3v0.9h-1.3v0.8h1.5v0.9h-2.7v-4.2h2.7V185.4L82.3,185.4z"/>
</g>
<g>
	<g>
		<g>
			<defs>
				<rect id="SVGID_00000166669227730278634570000003352192914096824453_" x="138.3" y="234.5" width="86.7" height="54.9"/>
			</defs>
			<clipPath id="SVGID_00000126302840608658213350000016674655558789757629_">
				<use xlink:href="#SVGID_00000166669227730278634570000003352192914096824453_"  style="overflow:visible;"/>
			</clipPath>
			<g style="clip-path:url(#SVGID_00000126302840608658213350000016674655558789757629_);">
				<path id="ad" class="st9" d="M215.8,289.4h-68.2c-5.1,0-9.3-4.1-9.3-9.3v-36.4c0-5.1,4.1-9.3,9.3-9.3h68.2
					c5.1,0,9.3,4.1,9.3,9.3v36.4C225.1,285.3,220.9,289.4,215.8,289.4"/>
			</g>
		</g>
	</g>
	<path id="ae" class="st14" d="M213.6,287.4h-68.2c-5.1,0-9.3-4.1-9.3-9.3v-36.4c0-5.1,4.1-9.3,9.3-9.3h68.2c5.1,0,9.3,4.1,9.3,9.3
		v36.4C222.9,283.2,218.7,287.4,213.6,287.4"/>
	<path class="st7" d="M150.2,253.2c-0.9,0-1.7-0.4-1.7-1.4h1.2c0,0.3,0.2,0.4,0.4,0.4s0.4-0.1,0.4-0.3c0-0.7-2.1-0.4-2-1.8
		c0-0.8,0.7-1.3,1.6-1.3c1,0,1.6,0.5,1.6,1.3h-1.3c0-0.3-0.2-0.4-0.4-0.4s-0.3,0.1-0.3,0.3c0,0.6,2,0.4,2,1.8
		C151.8,252.6,151.2,253.2,150.2,253.2L150.2,253.2z"/>
	<path class="st7" d="M153.5,248.9h1.2v2.4c0,0.4,0.2,0.7,0.6,0.7s0.6-0.3,0.6-0.7v-2.4h1.2v2.4c0,1.2-0.8,1.8-1.9,1.8
		s-1.8-0.6-1.8-1.8L153.5,248.9L153.5,248.9z"/>
	<path class="st7" d="M160.8,251.7h-0.6v1.4H159v-4.2h1.8c1.1,0,1.6,0.6,1.6,1.4C162.4,251.1,161.9,251.7,160.8,251.7z M160.7,250.8
		c0.4,0,0.5-0.2,0.5-0.5s-0.1-0.5-0.5-0.5h-0.5v0.9L160.7,250.8L160.7,250.8z"/>
	<path class="st7" d="M166.1,253.2c-1.2,0-2.2-0.9-2.2-2.2s1-2.2,2.2-2.2s2.2,0.9,2.2,2.2S167.2,253.2,166.1,253.2z M166.1,252.1
		c0.6,0,1-0.4,1-1.1s-0.4-1.1-1-1.1s-1,0.4-1,1.1S165.4,252.1,166.1,252.1z"/>
	<path class="st7" d="M171.8,248.9c1.1,0,1.6,0.6,1.6,1.4c0,0.6-0.3,1-0.9,1.2l0.9,1.6h-1.3l-0.8-1.6h-0.1v1.6H170v-4.2H171.8
		L171.8,248.9z M171.7,249.9h-0.6v0.9h0.6c0.3,0,0.5-0.2,0.5-0.4C172.2,250.1,172,249.9,171.7,249.9z"/>
	<path class="st7" d="M174.9,248.9h3.4v0.9h-1.1v3.3H176v-3.3h-1.1V248.9L174.9,248.9z"/>
	<path class="st7" d="M182.6,249.9h-1.5v0.7h1.4v0.9h-1.4v0.8h1.5v0.9h-2.7V249h2.7V249.9L182.6,249.9z"/>
	<path class="st7" d="M188.5,251.7H188v1.4h-1.2v-4.2h1.8c1.1,0,1.6,0.6,1.6,1.4C190.1,251.1,189.6,251.7,188.5,251.7L188.5,251.7z
		 M188.4,250.8c0.4,0,0.5-0.2,0.5-0.5s-0.1-0.5-0.5-0.5H188v0.9L188.4,250.8L188.4,250.8z"/>
	<path class="st7" d="M194.5,252.5H193l-0.2,0.7h-1.2l1.5-4.2h1.4l1.5,4.2h-1.2L194.5,252.5L194.5,252.5z M193.7,250.2l-0.4,1.4h0.9
		L193.7,250.2z"/>
	<path class="st7" d="M199.4,248.9c1.1,0,1.6,0.6,1.6,1.4c0,0.6-0.3,1-0.9,1.2l0.9,1.6h-1.3l-0.8-1.6h-0.1v1.6h-1.2v-4.2H199.4
		L199.4,248.9z M199.3,249.9h-0.6v0.9h0.6c0.3,0,0.5-0.2,0.5-0.4C199.8,250.1,199.6,249.9,199.3,249.9z"/>
	<path class="st7" d="M205.4,252.5h-1.5l-0.2,0.7h-1.2l1.5-4.2h1.4l1.5,4.2h-1.2L205.4,252.5L205.4,252.5z M204.6,250.2l-0.4,1.4
		h0.9L204.6,250.2z"/>
	<path class="st7" d="M161.5,268.6c0,1.2-0.9,2.1-2.2,2.1h-1.7v-4.2h1.7C160.6,266.5,161.5,267.4,161.5,268.6L161.5,268.6z
		 M159.2,269.7c0.7,0,1.1-0.4,1.1-1.1s-0.4-1.1-1.1-1.1h-0.4v2.2H159.2L159.2,269.7z"/>
	<path class="st7" d="M165.9,270h-1.5l-0.2,0.7H163l1.5-4.2h1.4l1.5,4.2h-1.2L165.9,270L165.9,270z M165.2,267.8l-0.4,1.4h0.9
		L165.2,267.8z"/>
	<path class="st7" d="M170.6,270.8c-0.9,0-1.7-0.5-1.7-1.4h1.2c0,0.3,0.2,0.4,0.4,0.4s0.4-0.1,0.4-0.3c0-0.7-2.1-0.4-2-1.8
		c0-0.8,0.7-1.3,1.6-1.3c1,0,1.6,0.5,1.6,1.3h-1.3c0-0.3-0.2-0.4-0.4-0.4s-0.3,0.1-0.3,0.3c0,0.6,2,0.4,2,1.8
		C172.1,270.2,171.5,270.8,170.6,270.8L170.6,270.8z"/>
	<path class="st7" d="M178.9,270h-1.5l-0.2,0.7H176l1.5-4.2h1.4l1.5,4.2h-1.2L178.9,270L178.9,270z M178.2,267.8l-0.4,1.4h0.9
		L178.2,267.8z"/>
	<path class="st7" d="M183.9,266.5c1.1,0,1.8,0.6,2,1.6h-1.3c-0.1-0.3-0.4-0.5-0.8-0.5c-0.5,0-0.9,0.4-0.9,1.1s0.4,1.1,0.9,1.1
		c0.4,0,0.6-0.2,0.8-0.5h1.3c-0.2,0.9-0.8,1.4-1.7,1.5v0.2c0.3,0,0.8,0.2,0.8,0.7s-0.5,0.7-0.9,0.7h-1v-0.6h0.8c0.1,0,0.2,0,0.2-0.1
		s-0.1-0.1-0.2-0.1h-0.5v-0.8c-1.1-0.1-1.8-1-1.8-2.1C181.8,267.4,182.6,266.5,183.9,266.5z"/>
	<path class="st7" d="M189.7,270.8c-1.2,0-2.2-0.9-2.2-2.2s1-2.2,2.2-2.2s2.2,0.9,2.2,2.2S190.9,270.8,189.7,270.8z M189.3,265.3
		c0.4,0,0.6,0.3,0.8,0.3c0.1,0,0.2-0.1,0.3-0.3h0.6c-0.1,0.7-0.4,1-0.9,1c-0.4,0-0.6-0.3-0.8-0.3c-0.1,0-0.2,0.1-0.3,0.3h-0.6
		C188.6,265.5,188.9,265.3,189.3,265.3L189.3,265.3z M189.7,269.7c0.6,0,1-0.4,1-1.1s-0.4-1.1-1-1.1s-1,0.4-1,1.1
		S189.1,269.7,189.7,269.7z"/>
	<path class="st7" d="M196.3,267.5h-1.5v0.7h1.4v0.9h-1.4v0.8h1.5v0.9h-2.7v-4.2h2.7V267.5L196.3,267.5z"/>
	<path class="st7" d="M199.7,270.8c-0.9,0-1.7-0.5-1.7-1.4h1.2c0,0.3,0.2,0.4,0.4,0.4s0.4-0.1,0.4-0.3c0-0.7-2.1-0.4-2-1.8
		c0-0.8,0.7-1.3,1.6-1.3c1,0,1.6,0.5,1.6,1.3H200c0-0.3-0.2-0.4-0.4-0.4s-0.3,0.1-0.3,0.3c0,0.6,2,0.4,2,1.8
		C201.3,270.2,200.7,270.8,199.7,270.8L199.7,270.8z"/>
	<path class="st7" d="M150.6,262c-1.2,0-2.2-0.9-2.2-2.2s1-2.2,2.2-2.2s2.2,0.9,2.2,2.2S151.8,262,150.6,262z M150.6,260.9
		c0.6,0,1-0.4,1-1.1s-0.4-1.1-1-1.1s-1,0.4-1,1.1S150,260.9,150.6,260.9z"/>
	<path class="st7" d="M156.4,257.7c1.1,0,1.6,0.6,1.6,1.4c0,0.5-0.3,1-0.9,1.2l0.9,1.6h-1.3l-0.8-1.6h-0.1v1.6h-1.2v-4.2H156.4
		L156.4,257.7z M156.3,258.7h-0.6v0.9h0.6c0.3,0,0.5-0.2,0.5-0.4C156.8,258.9,156.6,258.7,156.3,258.7z"/>
	<path class="st7" d="M163.7,259.1h-1.3c-0.1-0.2-0.4-0.4-0.7-0.4c-0.6,0-0.9,0.4-0.9,1.1s0.4,1.1,1.1,1.1c0.4,0,0.7-0.2,0.9-0.6
		h-1.2v-0.9h2.2v1.1c-0.2,0.6-0.9,1.3-2,1.3c-1.3,0-2.1-0.9-2.1-2.1s0.9-2.1,2.1-2.1C162.8,257.7,163.5,258.2,163.7,259.1
		L163.7,259.1z"/>
	<path class="st7" d="M168.1,261.3h-1.5l-0.2,0.7h-1.2l1.5-4.2h1.4l1.5,4.2h-1.2L168.1,261.3L168.1,261.3z M167.4,259l-0.4,1.4h0.9
		L167.4,259z"/>
	<path class="st7" d="M175.1,257.7v4.2h-1.2l-1.6-2.4v2.4h-1.2v-4.2h1.2l1.6,2.4v-2.4H175.1z"/>
	<path class="st7" d="M177,257.7h1.2v4.2H177V257.7z"/>
	<path class="st7" d="M183.1,258.6l-1.8,2.4h1.8v1H180v-1l1.7-2.4H180v-1h3.1V258.6L183.1,258.6z"/>
	<path class="st7" d="M187.6,261.3h-1.5l-0.2,0.7h-1.2l1.5-4.2h1.4l1.5,4.2h-1.2L187.6,261.3L187.6,261.3z M186.8,259l-0.4,1.4h0.9
		L186.8,259z"/>
	<path class="st7" d="M192.6,257.7c1.1,0,1.8,0.6,2,1.6h-1.3c-0.1-0.3-0.4-0.5-0.8-0.5c-0.5,0-0.9,0.4-0.9,1.1s0.4,1.1,0.9,1.1
		c0.4,0,0.6-0.2,0.8-0.5h1.3c-0.2,0.9-0.8,1.4-1.7,1.5v0.2c0.3,0,0.8,0.2,0.8,0.7s-0.5,0.7-0.9,0.7h-1V263h0.8c0.1,0,0.2,0,0.2-0.1
		s-0.1-0.1-0.2-0.1h-0.5V262c-1.1-0.1-1.8-1-1.8-2.1C190.5,258.6,191.3,257.7,192.6,257.7z"/>
	<path class="st7" d="M199.1,261.3h-1.5l-0.2,0.7h-1.2l1.5-4.2h1.4l1.5,4.2h-1.2L199.1,261.3L199.1,261.3z M197.9,256.5
		c0.4,0,0.6,0.3,0.8,0.3c0.1,0,0.2-0.1,0.3-0.3h0.6c-0.1,0.7-0.4,1-0.9,1c-0.4,0-0.6-0.3-0.8-0.3c-0.1,0-0.2,0.1-0.3,0.3H197
		C197.1,256.8,197.4,256.5,197.9,256.5L197.9,256.5z M198.3,259l-0.4,1.4h0.9L198.3,259z"/>
	<path class="st7" d="M204.1,262c-1.2,0-2.2-0.9-2.2-2.2s1-2.2,2.2-2.2s2.2,0.9,2.2,2.2S205.3,262,204.1,262z M204.1,260.9
		c0.6,0,1-0.4,1-1.1s-0.4-1.1-1-1.1s-1,0.4-1,1.1S203.5,260.9,204.1,260.9z"/>
</g>
<g>
	<g>
		<g>
			<defs>
				<rect id="SVGID_00000045604687615648631820000007438487468722955707_" x="225.2" y="173.5" width="100.9" height="54.9"/>
			</defs>
			<clipPath id="SVGID_00000073680427986205795430000000525910594906623404_">
				<use xlink:href="#SVGID_00000045604687615648631820000007438487468722955707_"  style="overflow:visible;"/>
			</clipPath>
			<g style="clip-path:url(#SVGID_00000073680427986205795430000000525910594906623404_);">
				<path id="ag" class="st9" d="M315.4,228.4H236c-6,0-10.8-4.1-10.8-9.3v-36.4c0-5.1,4.8-9.3,10.8-9.3h79.4c6,0,10.8,4.1,10.8,9.3
					v36.4C326.2,224.3,321.4,228.4,315.4,228.4"/>
			</g>
		</g>
	</g>
	<path id="ah" class="st16" d="M313.2,226.4h-79.4c-6,0-10.8-4.1-10.8-9.3v-36.4c0-5.1,4.8-9.3,10.8-9.3h79.4c6,0,10.8,4.1,10.8,9.3
		v36.4C324,222.2,319.1,226.4,313.2,226.4"/>
	<path class="st7" d="M255,193.2h-1.5v0.7h1.4v0.9h-1.4v0.8h1.5v0.9h-2.7v-4.2h2.7V193.2L255,193.2z"/>
	<path class="st7" d="M258.4,196.5c-0.9,0-1.7-0.4-1.7-1.4h1.2c0,0.3,0.2,0.4,0.4,0.4s0.4-0.1,0.4-0.3c0-0.7-2.1-0.4-2-1.8
		c0-0.8,0.7-1.3,1.6-1.3c1,0,1.6,0.5,1.6,1.3h-1.3c0-0.3-0.2-0.4-0.4-0.4c-0.2,0-0.3,0.1-0.3,0.3c0,0.6,2,0.4,2,1.8
		C260,195.9,259.4,196.5,258.4,196.5L258.4,196.5z"/>
	<path class="st7" d="M263.5,195.1h-0.6v1.4h-1.2v-4.2h1.8c1,0,1.6,0.6,1.6,1.4C265.1,194.4,264.6,195.1,263.5,195.1L263.5,195.1z
		 M263.4,194.1c0.4,0,0.5-0.2,0.5-0.5s-0.1-0.5-0.5-0.5h-0.5v0.9L263.4,194.1L263.4,194.1z"/>
	<path class="st7" d="M269.4,195.8h-1.5l-0.2,0.7h-1.2l1.5-4.2h1.4l1.5,4.2h-1.2L269.4,195.8L269.4,195.8z M268.7,193.5l-0.5,1.4
		h0.9L268.7,193.5z"/>
	<path class="st7" d="M274.4,192.2c1.1,0,1.8,0.6,2,1.6h-1.3c-0.1-0.3-0.4-0.5-0.8-0.5c-0.5,0-0.9,0.4-0.9,1.1s0.4,1.1,0.9,1.1
		c0.4,0,0.6-0.2,0.8-0.5h1.3c-0.2,0.9-0.8,1.4-1.7,1.6v0.2c0.3,0,0.8,0.2,0.8,0.7s-0.5,0.7-0.9,0.7h-1v-0.6h0.8c0.1,0,0.2,0,0.2-0.1
		s-0.1-0.1-0.2-0.1h-0.5v-0.8c-1.1-0.1-1.8-1-1.8-2.1C272.3,193.1,273.2,192.2,274.4,192.2L274.4,192.2z"/>
	<path class="st7" d="M280.2,196.5c-1.2,0-2.2-0.9-2.2-2.2s1-2.2,2.2-2.2s2.2,0.9,2.2,2.2S281.4,196.5,280.2,196.5z M280.2,195.4
		c0.6,0,1-0.4,1-1.1s-0.4-1.1-1-1.1s-1,0.4-1,1.1S279.6,195.4,280.2,195.4z"/>
	<path class="st7" d="M290.4,194.4c0,1.2-0.9,2.1-2.2,2.1h-1.7v-4.2h1.7C289.5,192.3,290.4,193.1,290.4,194.4z M288.1,195.5
		c0.7,0,1.1-0.4,1.1-1.1s-0.4-1.1-1.1-1.1h-0.4v2.2L288.1,195.5L288.1,195.5z"/>
	<path class="st7" d="M294.8,193.2h-1.5v0.7h1.4v0.9h-1.4v0.8h1.5v0.9h-2.7v-4.2h2.7V193.2L294.8,193.2z"/>
	<path class="st7" d="M231.3,201c1.1,0,1.8,0.6,2,1.6H232c-0.1-0.3-0.4-0.5-0.8-0.5c-0.5,0-0.9,0.4-0.9,1.1s0.4,1.1,0.9,1.1
		c0.4,0,0.6-0.2,0.8-0.5h1.3c-0.2,1-1,1.6-2,1.6c-1.3,0-2.1-0.9-2.1-2.1S230,201,231.3,201L231.3,201z"/>
	<path class="st7" d="M237.1,205.3c-1.2,0-2.2-0.9-2.2-2.2s1-2.2,2.2-2.2s2.2,0.9,2.2,2.2S238.3,205.3,237.1,205.3z M237.1,204.2
		c0.6,0,1-0.4,1-1.1s-0.4-1.1-1-1.1s-1,0.4-1,1.1S236.5,204.2,237.1,204.2z"/>
	<path class="st7" d="M242.9,201.1c1.1,0,1.6,0.6,1.6,1.4c0,0.6-0.3,1-0.9,1.2l0.9,1.6h-1.3l-0.8-1.6h-0.1v1.6H241v-4.2H242.9
		L242.9,201.1z M242.8,202h-0.6v0.9h0.6c0.3,0,0.5-0.2,0.5-0.4C243.2,202.2,243.1,202,242.8,202z"/>
	<path class="st7" d="M248,201.1c1.1,0,1.6,0.6,1.6,1.4c0,0.6-0.3,1-0.9,1.2l0.9,1.6h-1.3l-0.8-1.6h-0.1v1.6h-1.2v-4.2H248
		L248,201.1z M247.9,202h-0.6v0.9h0.6c0.3,0,0.5-0.2,0.5-0.4C248.4,202.2,248.2,202,247.9,202z"/>
	<path class="st7" d="M254,202h-1.5v0.7h1.4v0.9h-1.4v0.8h1.5v0.9h-2.7v-4.2h2.7V202L254,202z"/>
	<path class="st7" d="M257.4,205.3c-0.9,0-1.7-0.4-1.7-1.4h1.2c0,0.3,0.2,0.4,0.4,0.4s0.4-0.1,0.4-0.3c0-0.7-2.1-0.4-2-1.8
		c0-0.8,0.7-1.3,1.6-1.3c1,0,1.6,0.5,1.6,1.3h-1.3c0-0.3-0.2-0.4-0.4-0.4c-0.2,0-0.3,0.1-0.3,0.3c0,0.6,2,0.4,2,1.8
		C259,204.7,258.4,205.3,257.4,205.3L257.4,205.3z"/>
	<path class="st7" d="M262.5,203.9h-0.6v1.4h-1.2v-4.2h1.8c1,0,1.6,0.6,1.6,1.4C264.1,203.2,263.6,203.9,262.5,203.9L262.5,203.9z
		 M262.4,202.9c0.4,0,0.5-0.2,0.5-0.5s-0.1-0.5-0.5-0.5h-0.5v0.9L262.4,202.9L262.4,202.9z"/>
	<path class="st7" d="M267.8,205.3c-1.2,0-2.2-0.9-2.2-2.2s1-2.2,2.2-2.2s2.2,0.9,2.2,2.2S269,205.3,267.8,205.3z M267.8,204.2
		c0.6,0,1-0.4,1-1.1s-0.4-1.1-1-1.1s-1,0.4-1,1.1S267.2,204.2,267.8,204.2z"/>
	<path class="st7" d="M275.6,201.1v4.2h-1.2l-1.6-2.4v2.4h-1.2v-4.2h1.2l1.6,2.4v-2.4H275.6z"/>
	<path class="st7" d="M279.1,205.3c-0.9,0-1.7-0.4-1.7-1.4h1.2c0,0.3,0.2,0.4,0.4,0.4s0.4-0.1,0.4-0.3c0-0.7-2.1-0.4-2-1.8
		c0-0.8,0.7-1.3,1.6-1.3c1,0,1.6,0.5,1.6,1.3h-1.3c0-0.3-0.2-0.4-0.4-0.4c-0.2,0-0.3,0.1-0.3,0.3c0,0.6,2,0.4,2,1.8
		C280.6,204.7,280,205.3,279.1,205.3L279.1,205.3z"/>
	<path class="st7" d="M284.5,205.3h-2.1v-4.2h2c0.9,0,1.4,0.4,1.4,1.1c0,0.5-0.3,0.8-0.7,1c0.5,0.1,0.8,0.5,0.8,1
		C285.9,204.9,285.4,205.3,284.5,205.3L284.5,205.3z M284.1,202h-0.6v0.7h0.6c0.3,0,0.4-0.1,0.4-0.4S284.4,202,284.1,202L284.1,202z
		 M284.2,203.6h-0.7v0.8h0.7c0.3,0,0.4-0.1,0.4-0.4S284.5,203.6,284.2,203.6L284.2,203.6z"/>
	<path class="st7" d="M287.6,201.1h1.2v4.2h-1.2V201.1z"/>
	<path class="st7" d="M291.8,201.1v3.3h1.3v0.9h-2.5v-4.2H291.8z"/>
	<path class="st7" d="M294.8,201.1h1.2v4.2h-1.2V201.1z"/>
	<path class="st7" d="M301.7,203.2c0,1.2-0.9,2.1-2.2,2.1h-1.7v-4.2h1.7C300.9,201.1,301.7,201.9,301.7,203.2z M299.4,204.2
		c0.7,0,1.1-0.4,1.1-1.1s-0.4-1.1-1.1-1.1H299v2.2L299.4,204.2L299.4,204.2z"/>
	<path class="st7" d="M306.1,204.6h-1.5l-0.2,0.7h-1.2l1.5-4.2h1.4l1.5,4.2h-1.2L306.1,204.6L306.1,204.6z M305.4,202.3l-0.5,1.4
		h0.9L305.4,202.3z"/>
	<path class="st7" d="M313.1,203.2c0,1.2-0.9,2.1-2.2,2.1h-1.7v-4.2h1.7C312.2,201.1,313.1,201.9,313.1,203.2z M310.8,204.2
		c0.7,0,1.1-0.4,1.1-1.1s-0.4-1.1-1.1-1.1h-0.4v2.2L310.8,204.2L310.8,204.2z"/>
	<path class="st7" d="M317.5,202H316v0.7h1.4v0.9H316v0.8h1.5v0.9h-2.7v-4.2h2.7V202L317.5,202z"/>
</g>
<g>
	<g>
		<path class="st17" d="M206.8,188.6h-90c-5,0-9-4-9-9v-54c0-5,4-9,9-9h90c5,0,9,4,9,9v54C215.8,184.6,211.7,188.6,206.8,188.6z"/>
		<path class="st18" d="M202.8,183.6h-90c-5,0-9-4-9-9v-54c0-5,4-9,9-9h90c5,0,9,4,9,9v54C211.8,179.6,207.7,183.6,202.8,183.6z"/>
	</g>
	<rect x="110.8" y="148.6" class="st19" width="94" height="6"/>
	<g>
		<path class="st3" d="M111.5,140.7h8v2.2h-2.6v7.7h-2.7v-7.7h-2.6v-2.2H111.5z"/>
		<path class="st3" d="M127.7,142.9h-3.6v1.6h3.2v2.1h-3.2v1.8h3.6v2.2h-6.3v-9.9h6.3V142.9z"/>
		<path class="st3" d="M134.2,140.7c2.5,0,3.7,1.4,3.7,3.2c0,1.3-0.7,2.4-2.2,2.9l2.2,3.9h-3.1l-2-3.6h-0.3v3.6h-2.7v-9.9
			L134.2,140.7L134.2,140.7z M134,143h-1.4v2.1h1.4c0.7,0,1.1-0.4,1.1-1C135.1,143.4,134.7,143,134,143z"/>
		<path class="st3" d="M144.3,140.7c2.5,0,3.7,1.4,3.7,3.2c0,1.3-0.7,2.4-2.2,2.9l2.2,3.9h-3l-2-3.6h-0.3v3.6H140v-9.9L144.3,140.7
			L144.3,140.7z M144.1,143h-1.4v2.1h1.4c0.7,0,1.1-0.4,1.1-1C145.2,143.4,144.8,143,144.1,143z"/>
		<path class="st3" d="M150,140.7h2.7v9.9H150V140.7z"/>
		<path class="st3" d="M154.7,140.7h8v2.2H160v7.7h-2.7v-7.7h-2.6V140.7z"/>
		<path class="st3" d="M169.2,150.7c-2.8,0-5.1-2.1-5.1-5.1s2.3-5.1,5.1-5.1s5.1,2.1,5.1,5.1S172,150.7,169.2,150.7z M169.2,148.2
			c1.4,0,2.3-1,2.3-2.5c0-1.6-0.9-2.5-2.3-2.5c-1.4,0-2.3,1-2.3,2.5C167,147.2,167.8,148.2,169.2,148.2z M170.9,136.7v2.1l-3.5,1.4
			v-1.9L170.9,136.7z"/>
		<path class="st3" d="M180.7,140.7c2.5,0,3.7,1.4,3.7,3.2c0,1.3-0.7,2.4-2.2,2.9l2.2,3.9h-3.1l-2-3.6H179v3.6h-2.7v-9.9
			L180.7,140.7L180.7,140.7z M180.5,143h-1.4v2.1h1.4c0.7,0,1.1-0.4,1.1-1C181.6,143.4,181.2,143,180.5,143z"/>
		<path class="st3" d="M186.4,140.7h2.7v9.9h-2.7V140.7z"/>
		<path class="st3" d="M196.3,150.7c-2.8,0-5.1-2.1-5.1-5.1s2.3-5.1,5.1-5.1s5.1,2.1,5.1,5.1S199.1,150.7,196.3,150.7z M196.3,148.2
			c1.4,0,2.3-1,2.3-2.5c0-1.6-0.9-2.5-2.3-2.5c-1.4,0-2.3,1-2.3,2.5C194.1,147.2,194.9,148.2,196.3,148.2z"/>
	</g>
</g>
</svg>
