<?xml version="1.0" encoding="UTF-8"?><svg id="a" xmlns="http://www.w3.org/2000/svg" viewBox="0 0 800 200"><defs><style>.b{fill:#29696d;}.c{fill:#108141;}.d{fill:#6dafcc;}.e{fill:#3e6d93;}.f{fill:#1b8992;}.g{fill:#ffa800;}</style></defs><g><path class="g" d="M83.63,80.85h-4.7v11.18h-7.59v-31.15h12.29c7.63,0,11.45,4.31,11.45,10.03,0,5.15-3.51,9.94-11.45,9.94Zm-.58-6.04c3.02,0,4.3-1.51,4.3-3.91s-1.29-3.91-4.3-3.91h-4.13v7.81h4.13Z"/><path class="g" d="M106.62,92.03h-7.59v-24.76h7.59v4.13c1.73-2.62,4.44-4.39,7.77-4.39v8.03h-2.09c-3.59,0-5.68,1.24-5.68,5.5v11.49Z"/><path class="g" d="M129.3,92.39c-7.28,0-12.78-4.88-12.78-12.74s5.64-12.74,12.87-12.74,12.87,4.88,12.87,12.74-5.68,12.74-12.96,12.74Zm0-6.57c2.71,0,5.24-2,5.24-6.17s-2.49-6.17-5.15-6.17-5.15,1.95-5.15,6.17,2.31,6.17,5.06,6.17Z"/><path class="g" d="M157.22,66.91c6.21,0,10.61,3.42,11.89,9.32h-8.08c-.62-1.73-1.86-2.84-3.95-2.84-2.71,0-4.57,2.13-4.57,6.26s1.86,6.26,4.57,6.26c2.09,0,3.28-1.02,3.95-2.84h8.08c-1.29,5.73-5.68,9.32-11.89,9.32-7.28,0-12.43-4.88-12.43-12.74s5.15-12.74,12.43-12.74Z"/><path class="g" d="M184.16,92.39c-7.28,0-12.52-4.88-12.52-12.74s5.15-12.74,12.52-12.74,12.33,4.79,12.33,12.34c0,.71-.04,1.46-.13,2.22h-17.17c.27,3.24,2.26,4.75,4.7,4.75,2.13,0,3.33-1.07,3.95-2.39h8.08c-1.2,4.84-5.59,8.56-11.76,8.56Zm-4.93-15.13h9.5c0-2.71-2.13-4.26-4.66-4.26s-4.39,1.51-4.84,4.26Z"/><path class="g" d="M210.57,92.39c-6.61,0-11.05-3.68-11.4-8.48h7.5c.18,1.73,1.73,2.89,3.82,2.89,1.95,0,2.97-.89,2.97-2,0-3.99-13.49-1.11-13.49-10.2,0-4.22,3.6-7.68,10.07-7.68s9.94,3.55,10.43,8.43h-7.01c-.22-1.69-1.51-2.8-3.64-2.8-1.78,0-2.75,.71-2.75,1.91,0,3.95,13.4,1.15,13.54,10.38,0,4.31-3.82,7.54-10.03,7.54Z"/><path class="g" d="M235.34,92.39c-6.61,0-11.05-3.68-11.41-8.48h7.5c.18,1.73,1.73,2.89,3.81,2.89,1.95,0,2.97-.89,2.97-2,0-3.99-13.49-1.11-13.49-10.2,0-4.22,3.59-7.68,10.07-7.68s9.94,3.55,10.43,8.43h-7.01c-.22-1.69-1.51-2.8-3.64-2.8-1.78,0-2.75,.71-2.75,1.91,0,3.95,13.4,1.15,13.53,10.38,0,4.31-3.81,7.54-10.03,7.54Z"/><path class="g" d="M261.3,92.39c-7.28,0-12.78-4.88-12.78-12.74s5.64-12.74,12.87-12.74,12.87,4.88,12.87,12.74-5.68,12.74-12.96,12.74Zm0-6.57c2.71,0,5.24-2,5.24-6.17s-2.49-6.17-5.15-6.17-5.15,1.95-5.15,6.17,2.31,6.17,5.06,6.17Z"/><path class="g" d="M297.12,66.91c3.28,0,6.12,1.51,7.63,3.77v-11.49h7.59v32.84h-7.59v-3.55c-1.38,2.26-3.99,3.9-7.63,3.9-6.08,0-10.92-4.97-10.92-12.78s4.84-12.69,10.92-12.69Zm2.22,6.61c-2.84,0-5.41,2.13-5.41,6.08s2.57,6.17,5.41,6.17,5.41-2.18,5.41-6.13-2.53-6.12-5.41-6.12Z"/><path class="g" d="M328.85,92.39c-7.28,0-12.51-4.88-12.51-12.74s5.15-12.74,12.51-12.74,12.34,4.79,12.34,12.34c0,.71-.04,1.46-.13,2.22h-17.17c.27,3.24,2.26,4.75,4.7,4.75,2.13,0,3.33-1.07,3.95-2.39h8.08c-1.2,4.84-5.59,8.56-11.76,8.56Zm-4.92-15.13h9.49c0-2.71-2.13-4.26-4.66-4.26s-4.39,1.51-4.84,4.26Z"/><path class="g" d="M352.91,60.88h24.1v6.08h-8.25v25.07h-7.59v-25.07h-8.25v-6.08Z"/><path class="g" d="M391.84,92.39c-7.28,0-12.51-4.88-12.51-12.74s5.15-12.74,12.51-12.74,12.34,4.79,12.34,12.34c0,.71-.04,1.46-.13,2.22h-17.17c.27,3.24,2.26,4.75,4.7,4.75,2.13,0,3.33-1.07,3.95-2.39h8.08c-1.2,4.84-5.59,8.56-11.76,8.56Zm-4.92-15.13h9.49c0-2.71-2.13-4.26-4.66-4.26s-4.39,1.51-4.84,4.26Z"/><path class="g" d="M415.76,92.03h-7.59v-24.76h7.59v4.13c1.73-2.62,4.44-4.39,7.77-4.39v8.03h-2.09c-3.59,0-5.68,1.24-5.68,5.5v11.49Z"/><path class="g" d="M434.76,92.03h-7.59v-24.76h7.59v4.13c1.73-2.62,4.44-4.39,7.77-4.39v8.03h-2.09c-3.59,0-5.68,1.24-5.68,5.5v11.49Z"/><path class="g" d="M445.46,60.61c0-2.31,1.82-4.13,4.53-4.13s4.48,1.82,4.48,4.13-1.82,4.08-4.48,4.08-4.53-1.82-4.53-4.08Zm.71,6.66h7.59v24.76h-7.59v-24.76Z"/><path class="g" d="M460.46,73.57h-3.02v-6.3h3.02v-6.04h7.59v6.04h4.97v6.3h-4.97v9.94c0,1.46,.62,2.09,2.31,2.09h2.71v6.43h-3.86c-5.15,0-8.74-2.17-8.74-8.61v-9.85Z"/><path class="g" d="M488.55,92.39c-7.28,0-12.78-4.88-12.78-12.74s5.64-12.74,12.87-12.74,12.87,4.88,12.87,12.74-5.68,12.74-12.96,12.74Zm0-6.57c2.71,0,5.24-2,5.24-6.17s-2.49-6.17-5.15-6.17-5.15,1.95-5.15,6.17,2.31,6.17,5.06,6.17Z"/><path class="g" d="M513.14,92.03h-7.59v-24.76h7.59v4.13c1.73-2.62,4.44-4.39,7.77-4.39v8.03h-2.09c-3.59,0-5.68,1.24-5.68,5.5v11.49Z"/><path class="g" d="M523.84,60.61c0-2.31,1.82-4.13,4.53-4.13s4.48,1.82,4.48,4.13-1.82,4.08-4.48,4.08-4.53-1.82-4.53-4.08Zm.71,6.66h7.59v24.76h-7.59v-24.76Z"/><path class="g" d="M547.05,66.91c3.68,0,6.3,1.69,7.63,3.86v-3.5h7.59v24.76h-7.59v-3.51c-1.37,2.17-3.99,3.86-7.68,3.86-6.04,0-10.87-4.97-10.87-12.78s4.84-12.69,10.92-12.69Zm2.22,6.61c-2.84,0-5.41,2.13-5.41,6.08s2.57,6.17,5.41,6.17,5.41-2.18,5.41-6.13-2.53-6.12-5.41-6.12Z"/><path class="g" d="M567.78,59.19h7.59v32.84h-7.59V59.19Z"/><path class="g" d="M580.17,60.61c0-2.31,1.82-4.13,4.53-4.13s4.48,1.82,4.48,4.13-1.82,4.08-4.48,4.08-4.53-1.82-4.53-4.08Zm.71,6.66h7.59v24.76h-7.59v-24.76Z"/><path class="g" d="M611.59,73.31l-10.52,12.47h10.74v6.26h-19.22v-6.03l10.3-12.47h-10.2v-6.26h18.9v6.04Z"/><path class="g" d="M625.39,66.91c3.68,0,6.3,1.69,7.63,3.86v-3.5h7.59v24.76h-7.59v-3.51c-1.38,2.17-3.99,3.86-7.68,3.86-6.04,0-10.87-4.97-10.87-12.78s4.84-12.69,10.92-12.69Zm2.22,6.61c-2.84,0-5.41,2.13-5.41,6.08s2.57,6.17,5.41,6.17,5.41-2.18,5.41-6.13-2.53-6.12-5.41-6.12Z"/><path class="g" d="M657.04,66.91c6.21,0,10.61,3.42,11.89,9.32h-8.08c-.62-1.73-1.86-2.84-3.95-2.84-2.71,0-4.57,2.13-4.57,6.26s1.86,6.26,4.57,6.26c2.09,0,3.29-1.02,3.95-2.84h8.08c-1.11,5.02-4.66,8.39-9.67,9.14v1.64c2.66,0,5.77,1.38,5.77,5.06s-3.11,5.15-6.17,5.15h-6.83v-4.17h5.81c1.11,0,1.78-.26,1.78-1.15s-.66-1.11-1.78-1.11h-3.15v-5.41c-5.99-.93-10.07-5.59-10.07-12.56,0-7.81,5.15-12.74,12.43-12.74Z"/><path class="g" d="M682.38,66.91c3.68,0,6.3,1.69,7.63,3.86v-3.5h7.59v24.76h-7.59v-3.51c-1.37,2.17-3.99,3.86-7.68,3.86-6.04,0-10.87-4.97-10.87-12.78s4.84-12.69,10.92-12.69Zm.31-8.3c2.66,0,4.04,2,5.81,2,1.02,0,1.73-.62,1.91-2h3.91c-.76,4.66-3.02,6.57-6.13,6.57-2.66,0-4.04-2-5.81-2-1.02,0-1.73,.62-1.95,2h-3.86c.75-4.66,2.97-6.57,6.12-6.57Zm1.91,14.91c-2.84,0-5.41,2.13-5.41,6.08s2.57,6.17,5.41,6.17,5.41-2.18,5.41-6.13-2.53-6.12-5.41-6.12Z"/><path class="g" d="M714.38,92.39c-7.28,0-12.78-4.88-12.78-12.74s5.63-12.74,12.87-12.74,12.87,4.88,12.87,12.74-5.68,12.74-12.96,12.74Zm0-6.57c2.71,0,5.24-2,5.24-6.17s-2.49-6.17-5.15-6.17-5.15,1.95-5.15,6.17,2.31,6.17,5.06,6.17Z"/></g><g><path class="e" d="M477.97,101.35c3.53,0,6.19,1.99,7.03,5.2h-3.97c-.61-1.27-1.73-1.9-3.11-1.9-2.22,0-3.74,1.65-3.74,4.27s1.52,4.27,3.74,4.27c1.37,0,2.49-.63,3.11-1.9h3.97c-.85,3.21-3.51,5.17-7.03,5.17-4.37,0-7.46-3.1-7.46-7.54s3.08-7.56,7.46-7.56Z"/><path class="e" d="M491.7,104.39c1.75,0,3,.8,3.63,1.84v-1.67h3.61v11.79h-3.61v-1.67c-.65,1.04-1.9,1.84-3.66,1.84-2.87,0-5.17-2.37-5.17-6.08s2.3-6.04,5.2-6.04Zm1.06,3.15c-1.35,0-2.58,1.02-2.58,2.89s1.22,2.94,2.58,2.94,2.58-1.04,2.58-2.91-1.21-2.92-2.58-2.92Z"/><path class="e" d="M505.19,116.35h-3.61v-11.79h3.61v1.96c.82-1.25,2.11-2.09,3.7-2.09v3.82h-.99c-1.71,0-2.7,.59-2.7,2.62v5.47Z"/><path class="e" d="M511.2,107.56h-1.44v-3h1.44v-2.87h3.61v2.87h2.37v3h-2.37v4.73c0,.7,.3,.99,1.1,.99h1.29v3.06h-1.84c-2.45,0-4.16-1.03-4.16-4.1v-4.69Z"/><path class="e" d="M524.57,116.51c-3.46,0-6.08-2.32-6.08-6.06s2.68-6.06,6.13-6.06,6.13,2.32,6.13,6.06-2.7,6.06-6.17,6.06Zm0-3.13c1.29,0,2.49-.95,2.49-2.94s-1.18-2.94-2.45-2.94-2.45,.93-2.45,2.94,1.1,2.94,2.41,2.94Z"/><path class="e" d="M537.15,104.39c1.73,0,3,.78,3.63,1.84v-1.67h3.61v11.77c0,3.15-1.82,5.83-5.89,5.83-3.5,0-5.79-1.77-6.1-4.58h3.57c.23,.89,1.12,1.46,2.37,1.46,1.37,0,2.45-.72,2.45-2.7v-1.67c-.65,1.04-1.9,1.86-3.63,1.86-2.89,0-5.2-2.37-5.2-6.08s2.3-6.04,5.2-6.04Zm1.06,3.15c-1.35,0-2.58,1.02-2.58,2.89s1.22,2.94,2.58,2.94,2.58-1.04,2.58-2.91-1.21-2.92-2.58-2.92Z"/><path class="e" d="M550.63,116.35h-3.61v-11.79h3.61v1.96c.82-1.25,2.11-2.09,3.7-2.09v3.82h-.99c-1.71,0-2.7,.59-2.7,2.62v5.47Z"/><path class="e" d="M560.54,104.39c1.75,0,3,.8,3.63,1.84v-1.67h3.61v11.79h-3.61v-1.67c-.65,1.04-1.9,1.84-3.65,1.84-2.87,0-5.18-2.37-5.18-6.08s2.3-6.04,5.2-6.04Zm1.06,3.15c-1.35,0-2.58,1.02-2.58,2.89s1.23,2.94,2.58,2.94,2.58-1.04,2.58-2.91-1.2-2.92-2.58-2.92Z"/><path class="e" d="M570.78,107.56h-1.31v-3h1.31v-.34c0-3.08,1.9-4.6,5.49-4.42v3.06c-1.39-.08-1.88,.34-1.88,1.59v.11h1.94v3h-1.94v8.79h-3.61v-8.79Z"/><path class="e" d="M577.69,101.39c0-1.1,.86-1.96,2.15-1.96s2.13,.87,2.13,1.96-.86,1.94-2.13,1.94-2.15-.87-2.15-1.94Zm.34,3.17h3.61v11.79h-3.61v-11.79Z"/><path class="e" d="M588.74,104.39c1.75,0,3,.8,3.63,1.84v-1.67h3.61v11.79h-3.61v-1.67c-.66,1.04-1.9,1.84-3.66,1.84-2.87,0-5.18-2.37-5.18-6.08s2.3-6.04,5.2-6.04Zm1.06,3.15c-1.35,0-2.58,1.02-2.58,2.89s1.23,2.94,2.58,2.94,2.58-1.04,2.58-2.91-1.21-2.92-2.58-2.92Z"/></g><g><path class="b" d="M348.61,108.1c0,3.96-2.74,6.68-7,6.68h-5v-13.36h5c4.26,0,7,2.7,7,6.68Zm-7.21,3.86c2.46,0,3.9-1.41,3.9-3.86s-1.45-3.9-3.9-3.9h-1.54v7.76h1.54Z"/><path class="b" d="M355.15,114.93c-3.12,0-5.37-2.09-5.37-5.46s2.21-5.46,5.37-5.46,5.29,2.06,5.29,5.29c0,.3-.02,.63-.06,.95h-7.36c.11,1.39,.97,2.04,2.02,2.04,.91,0,1.43-.46,1.69-1.03h3.46c-.51,2.07-2.4,3.67-5.04,3.67Zm-2.11-6.49h4.07c0-1.16-.91-1.83-2-1.83s-1.88,.65-2.07,1.83Z"/><path class="b" d="M376.78,109.02c0-1.39-.8-2.15-2.04-2.15s-2.04,.76-2.04,2.15v5.76h-3.23v-5.76c0-1.39-.8-2.15-2.04-2.15s-2.04,.76-2.04,2.15v5.76h-3.25v-10.62h3.25v1.33c.63-.86,1.71-1.44,3.1-1.44,1.6,0,2.89,.7,3.62,1.98,.7-1.12,2.04-1.98,3.58-1.98,2.63,0,4.32,1.67,4.32,4.53v6.2h-3.23v-5.76Z"/><path class="b" d="M387.13,114.93c-3.12,0-5.48-2.09-5.48-5.46s2.42-5.46,5.52-5.46,5.52,2.09,5.52,5.46-2.44,5.46-5.56,5.46Zm0-2.82c1.16,0,2.25-.85,2.25-2.64s-1.07-2.64-2.21-2.64-2.21,.84-2.21,2.64,.99,2.64,2.17,2.64Z"/><path class="b" d="M398.44,104.01c1.56,0,2.7,.7,3.27,1.66v-1.5h3.25v10.6c0,2.83-1.64,5.25-5.31,5.25-3.16,0-5.21-1.6-5.5-4.13h3.22c.21,.8,1.01,1.31,2.13,1.31,1.24,0,2.21-.65,2.21-2.44v-1.5c-.59,.93-1.71,1.68-3.27,1.68-2.61,0-4.68-2.13-4.68-5.48s2.07-5.44,4.68-5.44Zm.95,2.84c-1.22,0-2.32,.91-2.32,2.61s1.1,2.64,2.32,2.64,2.32-.93,2.32-2.63-1.08-2.63-2.32-2.63Z"/><path class="b" d="M410.58,114.78h-3.25v-10.62h3.25v1.77c.74-1.12,1.9-1.88,3.33-1.88v3.44h-.89c-1.54,0-2.44,.53-2.44,2.36v4.93Z"/><path class="b" d="M419.5,104.01c1.58,0,2.7,.72,3.27,1.66v-1.5h3.26v10.62h-3.26v-1.5c-.59,.93-1.71,1.66-3.29,1.66-2.59,0-4.66-2.13-4.66-5.48s2.07-5.44,4.68-5.44Zm.95,2.84c-1.22,0-2.32,.91-2.32,2.61s1.1,2.64,2.32,2.64,2.32-.93,2.32-2.63-1.08-2.63-2.32-2.63Zm2.57-7.86v2.53l-4.59,1.92v-2.25l4.59-2.21Z"/><path class="b" d="M428.71,106.87h-1.18v-2.7h1.18v-.31c0-2.78,1.71-4.15,4.95-3.98v2.76c-1.25-.07-1.69,.31-1.69,1.43v.09h1.75v2.7h-1.75v7.92h-3.25v-7.92Z"/><path class="b" d="M434.93,101.31c0-.99,.78-1.77,1.94-1.77s1.92,.78,1.92,1.77-.78,1.75-1.92,1.75-1.94-.78-1.94-1.75Zm.3,2.85h3.26v10.62h-3.26v-10.62Z"/><path class="b" d="M445.52,104.01c2.66,0,4.55,1.47,5.1,4h-3.46c-.27-.74-.8-1.22-1.69-1.22-1.16,0-1.96,.91-1.96,2.68s.8,2.68,1.96,2.68c.89,0,1.41-.44,1.69-1.22h3.46c-.55,2.45-2.44,4-5.1,4-3.12,0-5.33-2.09-5.33-5.46s2.21-5.46,5.33-5.46Z"/><path class="b" d="M457.18,114.93c-3.12,0-5.48-2.09-5.48-5.46s2.42-5.46,5.52-5.46,5.52,2.09,5.52,5.46-2.44,5.46-5.56,5.46Zm0-2.82c1.16,0,2.25-.85,2.25-2.64s-1.07-2.64-2.21-2.64-2.21,.84-2.21,2.64,.99,2.64,2.17,2.64Z"/></g><g><path class="b" d="M117.7,171.37c0,3.96-2.74,6.68-7,6.68h-5v-13.36h5c4.26,0,7,2.7,7,6.68Zm-7.21,3.86c2.46,0,3.9-1.41,3.9-3.86s-1.45-3.9-3.9-3.9h-1.54v7.76h1.54Z"/><path class="b" d="M119.22,164.58c0-.99,.78-1.77,1.94-1.77s1.92,.78,1.92,1.77-.78,1.75-1.92,1.75-1.94-.78-1.94-1.75Zm.3,2.85h3.25v10.62h-3.25v-10.62Z"/><path class="b" d="M129.45,178.2c-2.83,0-4.74-1.58-4.89-3.63h3.22c.08,.74,.74,1.24,1.64,1.24,.84,0,1.27-.38,1.27-.86,0-1.71-5.78-.47-5.78-4.38,0-1.81,1.54-3.29,4.32-3.29s4.26,1.52,4.47,3.62h-3.01c-.09-.72-.65-1.2-1.56-1.2-.76,0-1.18,.3-1.18,.82,0,1.69,5.75,.5,5.8,4.45,0,1.85-1.64,3.23-4.3,3.23Z"/><path class="b" d="M136.26,170.13h-1.29v-2.7h1.29v-2.59h3.25v2.59h2.13v2.7h-2.13v4.26c0,.63,.27,.89,.99,.89h1.16v2.76h-1.66c-2.21,0-3.75-.93-3.75-3.69v-4.23Z"/><path class="b" d="M146.72,178.05h-3.25v-10.62h3.25v1.77c.74-1.12,1.9-1.88,3.33-1.88v3.44h-.89c-1.54,0-2.44,.53-2.44,2.36v4.93Z"/><path class="b" d="M151.31,164.58c0-.99,.78-1.77,1.94-1.77s1.92,.78,1.92,1.77-.78,1.75-1.92,1.75-1.94-.78-1.94-1.75Zm.3,2.85h3.25v10.62h-3.25v-10.62Z"/><path class="b" d="M157.74,170.13h-1.29v-2.7h1.29v-2.59h3.25v2.59h2.13v2.7h-2.13v4.26c0,.63,.27,.89,.99,.89h1.16v2.76h-1.66c-2.21,0-3.75-.93-3.75-3.69v-4.23Z"/><path class="b" d="M169.78,178.2c-3.12,0-5.48-2.09-5.48-5.46s2.42-5.46,5.52-5.46,5.52,2.09,5.52,5.46-2.44,5.46-5.56,5.46Zm0-2.82c1.16,0,2.25-.85,2.25-2.64s-1.07-2.64-2.21-2.64-2.21,.84-2.21,2.64,.99,2.64,2.17,2.64Z"/><path class="b" d="M181.09,164.69h8.7v2.61h-5.44v2.82h4.07v2.53h-4.07v5.4h-3.25v-13.36Z"/><path class="b" d="M196.22,178.2c-3.12,0-5.37-2.09-5.37-5.46s2.21-5.46,5.37-5.46,5.29,2.06,5.29,5.29c0,.31-.02,.63-.06,.95h-7.36c.11,1.39,.97,2.04,2.02,2.04,.91,0,1.43-.46,1.69-1.03h3.46c-.51,2.07-2.4,3.67-5.04,3.67Zm-2.11-6.49h4.07c0-1.16-.91-1.83-2-1.83s-1.88,.65-2.07,1.83Z"/><path class="b" d="M207.25,167.28c1.41,0,2.63,.65,3.27,1.62v-4.93h3.25v14.08h-3.25v-1.52c-.59,.97-1.71,1.67-3.27,1.67-2.61,0-4.68-2.13-4.68-5.48s2.07-5.44,4.68-5.44Zm.95,2.84c-1.22,0-2.32,.91-2.32,2.61s1.1,2.64,2.32,2.64,2.32-.93,2.32-2.63-1.08-2.63-2.32-2.63Z"/><path class="b" d="M220.85,178.2c-3.12,0-5.37-2.09-5.37-5.46s2.21-5.46,5.37-5.46,5.29,2.06,5.29,5.29c0,.31-.02,.63-.06,.95h-7.36c.11,1.39,.97,2.04,2.02,2.04,.91,0,1.43-.46,1.69-1.03h3.46c-.51,2.07-2.4,3.67-5.04,3.67Zm-2.11-6.49h4.07c0-1.16-.91-1.83-2-1.83s-1.88,.65-2.07,1.83Z"/><path class="b" d="M231.1,178.05h-3.25v-10.62h3.25v1.77c.74-1.12,1.9-1.88,3.33-1.88v3.44h-.89c-1.54,0-2.44,.53-2.44,2.36v4.93Z"/><path class="b" d="M240.03,167.28c1.58,0,2.7,.72,3.27,1.66v-1.5h3.25v10.62h-3.25v-1.5c-.59,.93-1.71,1.66-3.29,1.66-2.59,0-4.66-2.13-4.66-5.48s2.07-5.44,4.68-5.44Zm.95,2.84c-1.22,0-2.32,.91-2.32,2.61s1.1,2.64,2.32,2.64,2.32-.93,2.32-2.63-1.09-2.63-2.32-2.63Z"/><path class="b" d="M248.91,163.97h3.25v14.08h-3.25v-14.08Z"/></g><g><path class="b" d="M466.44,46.67c0,3.96-2.74,6.68-7,6.68h-5.01v-13.36h5.01c4.26,0,7,2.7,7,6.68Zm-7.21,3.86c2.46,0,3.9-1.41,3.9-3.86s-1.44-3.9-3.9-3.9h-1.54v7.76h1.54Z"/><path class="b" d="M467.96,39.88c0-.99,.78-1.77,1.94-1.77s1.92,.78,1.92,1.77-.78,1.75-1.92,1.75-1.94-.78-1.94-1.75Zm.3,2.85h3.26v10.62h-3.26v-10.62Z"/><path class="b" d="M478.19,53.5c-2.83,0-4.74-1.58-4.89-3.63h3.22c.08,.74,.74,1.24,1.64,1.24,.84,0,1.28-.38,1.28-.86,0-1.71-5.79-.47-5.79-4.38,0-1.81,1.54-3.29,4.32-3.29s4.26,1.52,4.47,3.62h-3.01c-.09-.72-.65-1.2-1.56-1.2-.76,0-1.18,.3-1.18,.82,0,1.69,5.75,.5,5.8,4.45,0,1.85-1.64,3.23-4.3,3.23Z"/><path class="b" d="M485,45.43h-1.29v-2.7h1.29v-2.59h3.26v2.59h2.13v2.7h-2.13v4.26c0,.63,.27,.89,.99,.89h1.16v2.76h-1.66c-2.21,0-3.75-.93-3.75-3.69v-4.23Z"/><path class="b" d="M495.46,53.35h-3.25v-10.62h3.25v1.77c.74-1.12,1.9-1.88,3.33-1.88v3.44h-.89c-1.54,0-2.44,.53-2.44,2.36v4.93Z"/><path class="b" d="M500.05,39.88c0-.99,.78-1.77,1.94-1.77s1.92,.78,1.92,1.77-.78,1.75-1.92,1.75-1.94-.78-1.94-1.75Zm.3,2.85h3.26v10.62h-3.26v-10.62Z"/><path class="b" d="M506.48,45.43h-1.29v-2.7h1.29v-2.59h3.25v2.59h2.13v2.7h-2.13v4.26c0,.63,.27,.89,.99,.89h1.16v2.76h-1.66c-2.21,0-3.75-.93-3.75-3.69v-4.23Z"/><path class="b" d="M518.52,53.5c-3.12,0-5.48-2.09-5.48-5.46s2.42-5.46,5.52-5.46,5.52,2.09,5.52,5.46-2.44,5.46-5.56,5.46Zm0-2.82c1.16,0,2.25-.85,2.25-2.64s-1.07-2.64-2.21-2.64-2.21,.84-2.21,2.64,.99,2.64,2.17,2.64Z"/><path class="b" d="M529.84,39.99h8.7v2.61h-5.44v2.82h4.07v2.53h-4.07v5.4h-3.26v-13.36Z"/><path class="b" d="M544.96,53.5c-3.12,0-5.37-2.09-5.37-5.46s2.21-5.46,5.37-5.46,5.29,2.06,5.29,5.29c0,.31-.02,.63-.06,.95h-7.36c.11,1.39,.97,2.04,2.02,2.04,.91,0,1.43-.46,1.69-1.03h3.46c-.51,2.07-2.4,3.67-5.04,3.67Zm-2.11-6.49h4.07c0-1.16-.91-1.83-2-1.83s-1.88,.65-2.07,1.83Z"/><path class="b" d="M555.99,42.58c1.41,0,2.63,.65,3.27,1.62v-4.93h3.26v14.08h-3.26v-1.52c-.59,.97-1.71,1.67-3.27,1.67-2.61,0-4.68-2.13-4.68-5.48s2.07-5.44,4.68-5.44Zm.95,2.84c-1.22,0-2.32,.91-2.32,2.61s1.1,2.64,2.32,2.64,2.32-.93,2.32-2.63-1.08-2.63-2.32-2.63Z"/><path class="b" d="M569.59,53.5c-3.12,0-5.37-2.09-5.37-5.46s2.21-5.46,5.37-5.46,5.29,2.06,5.29,5.29c0,.31-.02,.63-.06,.95h-7.36c.11,1.39,.97,2.04,2.02,2.04,.91,0,1.43-.46,1.69-1.03h3.46c-.51,2.07-2.4,3.67-5.04,3.67Zm-2.11-6.49h4.07c0-1.16-.91-1.83-2-1.83s-1.88,.65-2.07,1.83Z"/><path class="b" d="M579.85,53.35h-3.25v-10.62h3.25v1.77c.74-1.12,1.9-1.88,3.33-1.88v3.44h-.89c-1.54,0-2.44,.53-2.44,2.36v4.93Z"/><path class="b" d="M588.77,42.58c1.58,0,2.7,.72,3.27,1.66v-1.5h3.25v10.62h-3.25v-1.5c-.59,.93-1.71,1.66-3.29,1.66-2.59,0-4.66-2.13-4.66-5.48s2.07-5.44,4.68-5.44Zm.95,2.84c-1.22,0-2.32,.91-2.32,2.61s1.1,2.64,2.32,2.64,2.32-.93,2.32-2.63-1.09-2.63-2.32-2.63Z"/><path class="b" d="M597.65,39.27h3.25v14.08h-3.25v-14.08Z"/></g><g><path class="e" d="M735.37,101.68h4.59l-6.31,17.79h-5.42l-6.31-17.79h4.61l4.41,13.43,4.44-13.43Z"/><path class="e" d="M741.36,101.53c0-1.32,1.04-2.36,2.58-2.36s2.56,1.04,2.56,2.36-1.04,2.33-2.56,2.33-2.58-1.04-2.58-2.33Zm.4,3.8h4.33v14.14h-4.33v-14.14Z"/><path class="e" d="M754.62,105.13c1.88,0,3.5,.86,4.36,2.15v-6.57h4.33v18.76h-4.33v-2.03c-.79,1.29-2.28,2.23-4.36,2.23-3.47,0-6.24-2.84-6.24-7.3s2.76-7.25,6.24-7.25Zm1.27,3.78c-1.62,0-3.09,1.22-3.09,3.47s1.47,3.52,3.09,3.52,3.09-1.24,3.09-3.5-1.44-3.5-3.09-3.5Z"/><path class="e" d="M771.84,105.13c2.11,0,3.6,.96,4.36,2.2v-2h4.33v14.14h-4.33v-2c-.79,1.24-2.28,2.2-4.39,2.2-3.45,0-6.21-2.84-6.21-7.3s2.76-7.25,6.24-7.25Zm1.27,3.78c-1.62,0-3.09,1.22-3.09,3.47s1.47,3.52,3.09,3.52,3.09-1.24,3.09-3.5-1.44-3.5-3.09-3.5Z"/></g><g><path class="e" d="M4.63,76.31h11.58v3.47h-7.25v3.75h5.42v3.37h-5.42v7.2H4.63v-17.8Z"/><path class="e" d="M24.94,94.31c-4.16,0-7.3-2.79-7.3-7.27s3.22-7.28,7.35-7.28,7.35,2.79,7.35,7.28-3.24,7.27-7.4,7.27Zm0-3.75c1.55,0,2.99-1.14,2.99-3.52s-1.42-3.53-2.94-3.53-2.94,1.12-2.94,3.53,1.32,3.52,2.89,3.52Z"/><path class="e" d="M40.9,79.76c3.55,0,6.06,1.95,6.79,5.32h-4.61c-.36-.99-1.07-1.62-2.26-1.62-1.55,0-2.61,1.22-2.61,3.57s1.06,3.57,2.61,3.57c1.19,0,1.88-.58,2.26-1.62h4.61c-.73,3.27-3.24,5.32-6.79,5.32-4.16,0-7.1-2.79-7.1-7.27s2.94-7.28,7.1-7.28Z"/><path class="e" d="M56.45,94.31c-4.16,0-7.3-2.79-7.3-7.27s3.22-7.28,7.35-7.28,7.35,2.79,7.35,7.28-3.24,7.27-7.4,7.27Zm0-3.75c1.55,0,2.99-1.14,2.99-3.52s-1.42-3.53-2.94-3.53-2.94,1.12-2.94,3.53,1.32,3.52,2.89,3.52Z"/></g><g><path class="e" d="M41.5,161.08c4.36,0,6.54,2.51,6.54,5.6,0,2.23-1.22,4.33-3.95,5.15l4.11,7.05h-4.89l-3.7-6.72h-1.04v6.72h-4.33v-17.79h7.27Zm-.25,3.6h-2.69v4.41h2.69c1.62,0,2.38-.84,2.38-2.23,0-1.32-.76-2.18-2.38-2.18Z"/><path class="e" d="M57.04,179.08c-4.16,0-7.15-2.79-7.15-7.27s2.94-7.28,7.15-7.28,7.05,2.74,7.05,7.05c0,.4-.03,.84-.08,1.27h-9.81c.15,1.85,1.29,2.71,2.69,2.71,1.22,0,1.9-.61,2.26-1.37h4.61c-.68,2.76-3.19,4.89-6.72,4.89Zm-2.81-8.64h5.42c0-1.55-1.22-2.43-2.66-2.43s-2.51,.86-2.76,2.43Z"/><path class="e" d="M71.76,164.53c1.88,0,3.5,.86,4.36,2.15v-6.57h4.33v18.76h-4.33v-2.03c-.79,1.29-2.28,2.23-4.36,2.23-3.47,0-6.24-2.84-6.24-7.3s2.76-7.25,6.24-7.25Zm1.27,3.78c-1.62,0-3.09,1.22-3.09,3.47s1.47,3.52,3.09,3.52,3.09-1.24,3.09-3.5-1.44-3.5-3.09-3.5Z"/><path class="e" d="M89.89,179.08c-4.16,0-7.15-2.79-7.15-7.27s2.94-7.28,7.15-7.28,7.05,2.74,7.05,7.05c0,.4-.03,.84-.08,1.27h-9.81c.15,1.85,1.29,2.71,2.69,2.71,1.22,0,1.9-.61,2.26-1.37h4.61c-.68,2.76-3.19,4.89-6.72,4.89Zm-2.81-8.64h5.42c0-1.55-1.22-2.43-2.66-2.43s-2.51,.86-2.76,2.43Z"/></g><g><path class="g" d="M15.72,136h-2.91v6.92h-4.7v-19.29h7.61c4.73,0,7.09,2.66,7.09,6.21,0,3.19-2.17,6.16-7.09,6.16Zm-.36-3.74c1.87,0,2.66-.94,2.66-2.42s-.8-2.42-2.66-2.42h-2.56v4.84h2.56Z"/><path class="g" d="M32.24,143.15c-4.51,0-7.91-3.02-7.91-7.89s3.49-7.89,7.97-7.89,7.97,3.02,7.97,7.89-3.52,7.89-8.02,7.89Zm0-4.07c1.68,0,3.24-1.24,3.24-3.82s-1.54-3.82-3.19-3.82-3.19,1.21-3.19,3.82,1.43,3.82,3.13,3.82Z"/><path class="g" d="M42.76,122.59h4.7v20.33h-4.7v-20.33Z"/><path class="g" d="M56.77,120.12v3.65l-6.62,2.78v-3.24l6.62-3.19Zm-5.55,7.47h4.7v15.33h-4.7v-15.33Z"/><path class="g" d="M60.43,131.5h-1.87v-3.9h1.87v-3.74h4.7v3.74h3.08v3.9h-3.08v6.16c0,.91,.38,1.29,1.43,1.29h1.68v3.98h-2.39c-3.19,0-5.41-1.35-5.41-5.33v-6.1Z"/><path class="g" d="M70.4,123.47c0-1.43,1.13-2.56,2.8-2.56s2.78,1.13,2.78,2.56-1.13,2.53-2.78,2.53-2.8-1.12-2.8-2.53Zm.44,4.12h4.7v15.33h-4.7v-15.33Z"/><path class="g" d="M85.71,127.37c3.85,0,6.57,2.12,7.36,5.77h-5c-.38-1.07-1.15-1.76-2.44-1.76-1.68,0-2.83,1.32-2.83,3.87s1.15,3.87,2.83,3.87c1.29,0,2.03-.63,2.44-1.76h5c-.8,3.54-3.52,5.77-7.36,5.77-4.51,0-7.69-3.02-7.69-7.89s3.19-7.89,7.69-7.89Z"/><path class="g" d="M101.39,127.37c2.28,0,3.9,1.04,4.73,2.39v-2.17h4.7v15.33h-4.7v-2.17c-.85,1.35-2.47,2.39-4.75,2.39-3.74,0-6.73-3.08-6.73-7.91s2.99-7.86,6.76-7.86Zm1.37,4.1c-1.76,0-3.35,1.32-3.35,3.76s1.59,3.82,3.35,3.82,3.35-1.35,3.35-3.79-1.57-3.79-3.35-3.79Z"/><path class="g" d="M125.87,127.37c2.03,0,3.79,.94,4.73,2.34v-7.12h4.7v20.33h-4.7v-2.2c-.85,1.4-2.47,2.42-4.73,2.42-3.76,0-6.76-3.08-6.76-7.91s2.99-7.86,6.76-7.86Zm1.37,4.1c-1.76,0-3.35,1.32-3.35,3.76s1.59,3.82,3.35,3.82,3.35-1.35,3.35-3.79-1.57-3.79-3.35-3.79Z"/><path class="g" d="M145.52,143.15c-4.51,0-7.75-3.02-7.75-7.89s3.19-7.89,7.75-7.89,7.64,2.97,7.64,7.64c0,.44-.03,.91-.08,1.37h-10.63c.17,2,1.4,2.94,2.91,2.94,1.32,0,2.06-.66,2.45-1.48h5c-.74,2.99-3.46,5.3-7.28,5.3Zm-3.05-9.37h5.88c0-1.68-1.32-2.64-2.89-2.64s-2.72,.94-2.99,2.64Z"/><path class="g" d="M173.46,139.52h-7.2l-1.15,3.41h-4.92l6.98-19.29h5.44l6.98,19.29h-4.97l-1.15-3.41Zm-3.6-10.69l-2.36,7.06h4.75l-2.39-7.06Z"/><path class="g" d="M182.45,131.5h-1.87v-3.9h1.87v-3.74h4.7v3.74h3.08v3.9h-3.08v6.16c0,.91,.39,1.29,1.43,1.29h1.68v3.98h-2.39c-3.19,0-5.41-1.35-5.41-5.33v-6.1Z"/><path class="g" d="M199.68,143.15c-4.51,0-7.75-3.02-7.75-7.89s3.19-7.89,7.75-7.89,7.64,2.97,7.64,7.64c0,.44-.03,.91-.08,1.37h-10.63c.17,2,1.4,2.94,2.91,2.94,1.32,0,2.06-.66,2.45-1.48h5c-.74,2.99-3.46,5.3-7.28,5.3Zm-3.05-9.37h5.88c0-1.68-1.32-2.64-2.89-2.64s-2.72,.94-2.99,2.64Z"/><path class="g" d="M220.37,134.6c0-2.09-1.15-3.24-2.94-3.24s-2.94,1.16-2.94,3.24v8.33h-4.7v-15.33h4.7v2.03c.93-1.29,2.58-2.2,4.64-2.2,3.54,0,5.91,2.42,5.91,6.54v8.96h-4.67v-8.33Z"/><path class="g" d="M235.07,127.37c3.85,0,6.57,2.12,7.36,5.77h-5c-.38-1.07-1.15-1.76-2.45-1.76-1.68,0-2.83,1.32-2.83,3.87s1.15,3.87,2.83,3.87c1.29,0,2.03-.63,2.45-1.76h5c-.69,3.1-2.89,5.19-5.99,5.66v1.02c1.65,0,3.57,.85,3.57,3.13s-1.92,3.19-3.82,3.19h-4.23v-2.58h3.6c.69,0,1.1-.17,1.1-.71s-.41-.69-1.1-.69h-1.95v-3.35c-3.71-.58-6.24-3.46-6.24-7.78,0-4.84,3.19-7.89,7.69-7.89Z"/><path class="g" d="M250.76,127.37c2.28,0,3.9,1.04,4.72,2.39v-2.17h4.7v15.33h-4.7v-2.17c-.85,1.35-2.47,2.39-4.75,2.39-3.74,0-6.73-3.08-6.73-7.91s2.99-7.86,6.76-7.86Zm.19-5.14c1.65,0,2.5,1.24,3.6,1.24,.63,0,1.07-.39,1.18-1.24h2.42c-.47,2.88-1.87,4.07-3.79,4.07-1.65,0-2.5-1.24-3.6-1.24-.63,0-1.07,.38-1.21,1.24h-2.39c.47-2.89,1.84-4.07,3.79-4.07Zm1.18,9.23c-1.76,0-3.35,1.32-3.35,3.76s1.59,3.82,3.35,3.82,3.35-1.35,3.35-3.79-1.56-3.79-3.35-3.79Z"/><path class="g" d="M270.57,143.15c-4.51,0-7.91-3.02-7.91-7.89s3.49-7.89,7.97-7.89,7.97,3.02,7.97,7.89-3.52,7.89-8.02,7.89Zm0-4.07c1.68,0,3.24-1.24,3.24-3.82s-1.54-3.82-3.19-3.82-3.19,1.21-3.19,3.82,1.43,3.82,3.13,3.82Z"/><path class="g" d="M294.53,136h-2.91v6.92h-4.7v-19.29h7.61c4.73,0,7.09,2.66,7.09,6.21,0,3.19-2.17,6.16-7.09,6.16Zm-.36-3.74c1.87,0,2.66-.94,2.66-2.42s-.8-2.42-2.66-2.42h-2.56v4.84h2.56Z"/><path class="g" d="M308.76,142.93h-4.7v-15.33h4.7v2.56c1.07-1.62,2.75-2.72,4.81-2.72v4.97h-1.29c-2.23,0-3.52,.77-3.52,3.41v7.12Z"/><path class="g" d="M315.38,123.47c0-1.43,1.13-2.56,2.8-2.56s2.78,1.13,2.78,2.56-1.13,2.53-2.78,2.53-2.8-1.12-2.8-2.53Zm.44,4.12h4.7v15.33h-4.7v-15.33Z"/><path class="g" d="M345.06,134.6c0-2-1.15-3.1-2.94-3.1s-2.94,1.1-2.94,3.1v8.33h-4.67v-8.33c0-2-1.15-3.1-2.94-3.1s-2.94,1.1-2.94,3.1v8.33h-4.7v-15.33h4.7v1.92c.91-1.24,2.47-2.09,4.48-2.09,2.31,0,4.18,1.02,5.22,2.86,1.02-1.62,2.94-2.86,5.17-2.86,3.79,0,6.24,2.42,6.24,6.54v8.96h-4.67v-8.33Z"/><path class="g" d="M358.85,127.37c2.28,0,3.9,1.04,4.72,2.39v-2.17h4.7v15.33h-4.7v-2.17c-.85,1.35-2.47,2.39-4.75,2.39-3.74,0-6.73-3.08-6.73-7.91s2.99-7.86,6.76-7.86Zm1.37,4.1c-1.76,0-3.35,1.32-3.35,3.76s1.59,3.82,3.35,3.82,3.35-1.35,3.35-3.79-1.56-3.79-3.35-3.79Zm3.71-11.35v3.65l-6.62,2.78v-3.24l6.62-3.19Z"/><path class="g" d="M376.38,142.93h-4.7v-15.33h4.7v2.56c1.07-1.62,2.75-2.72,4.81-2.72v4.97h-1.29c-2.23,0-3.52,.77-3.52,3.41v7.12Z"/><path class="g" d="M383,123.47c0-1.43,1.13-2.56,2.8-2.56s2.78,1.13,2.78,2.56-1.13,2.53-2.78,2.53-2.8-1.12-2.8-2.53Zm.44,4.12h4.7v15.33h-4.7v-15.33Z"/><path class="g" d="M397.37,127.37c2.28,0,3.9,1.04,4.72,2.39v-2.17h4.7v15.33h-4.7v-2.17c-.85,1.35-2.47,2.39-4.75,2.39-3.74,0-6.73-3.08-6.73-7.91s2.99-7.86,6.76-7.86Zm1.37,4.1c-1.76,0-3.35,1.32-3.35,3.76s1.59,3.82,3.35,3.82,3.35-1.35,3.35-3.79-1.56-3.79-3.35-3.79Z"/><path class="g" d="M421.85,127.37c2.28,0,3.9,1.04,4.72,2.39v-2.17h4.7v15.33h-4.7v-2.17c-.85,1.35-2.47,2.39-4.75,2.39-3.74,0-6.73-3.08-6.73-7.91s2.99-7.86,6.76-7.86Zm1.37,4.1c-1.76,0-3.35,1.32-3.35,3.76s1.59,3.82,3.35,3.82,3.35-1.35,3.35-3.79-1.56-3.79-3.35-3.79Zm-2.91-11.35l6.62,3.19v3.24l-6.62-2.78v-3.65Z"/><path class="g" d="M447.49,143.12c-4.15,0-7.39-2.06-7.53-5.96h5c.14,1.48,1.07,2.2,2.39,2.2s2.25-.69,2.25-1.81c0-3.57-9.65-1.65-9.59-8.49,0-3.65,2.99-5.69,7.03-5.69s7.03,2.09,7.23,5.77h-5.08c-.08-1.24-.96-1.98-2.23-2.01-1.13-.03-1.98,.55-1.98,1.76,0,3.35,9.54,1.84,9.54,8.3,0,3.24-2.53,5.93-7.03,5.93Z"/><path class="g" d="M463.23,127.37c2.28,0,3.9,1.04,4.72,2.39v-2.17h4.7v15.33h-4.7v-2.17c-.85,1.35-2.47,2.39-4.75,2.39-3.74,0-6.73-3.08-6.73-7.91s2.99-7.86,6.76-7.86Zm1.37,4.1c-1.76,0-3.35,1.32-3.35,3.76s1.59,3.82,3.35,3.82,3.35-1.35,3.35-3.79-1.56-3.79-3.35-3.79Z"/><path class="g" d="M491.2,142.93h-4.7v-2.09c-.94,1.32-2.58,2.25-4.64,2.25-3.54,0-5.93-2.45-5.93-6.54v-8.96h4.67v8.32c0,2.09,1.18,3.24,2.94,3.24s2.97-1.15,2.97-3.24v-8.32h4.7v15.33Zm-4.37-22.81v3.65l-6.62,2.78v-3.24l6.62-3.19Z"/><path class="g" d="M500.41,127.37c2.03,0,3.79,.94,4.72,2.34v-7.12h4.7v20.33h-4.7v-2.2c-.85,1.4-2.47,2.42-4.72,2.42-3.76,0-6.76-3.08-6.76-7.91s2.99-7.86,6.76-7.86Zm1.37,4.1c-1.76,0-3.35,1.32-3.35,3.76s1.59,3.82,3.35,3.82,3.35-1.35,3.35-3.79-1.56-3.79-3.35-3.79Z"/><path class="g" d="M520.05,143.15c-4.51,0-7.75-3.02-7.75-7.89s3.19-7.89,7.75-7.89,7.64,2.97,7.64,7.64c0,.44-.03,.91-.08,1.37h-10.63c.17,2,1.4,2.94,2.91,2.94,1.32,0,2.06-.66,2.45-1.48h5c-.74,2.99-3.46,5.3-7.28,5.3Zm-3.05-9.37h5.88c0-1.68-1.32-2.64-2.89-2.64s-2.72,.94-2.99,2.64Z"/><path class="g" d="M547.64,127.37c2.03,0,3.79,.94,4.72,2.34v-7.12h4.7v20.33h-4.7v-2.2c-.85,1.4-2.47,2.42-4.72,2.42-3.76,0-6.76-3.08-6.76-7.91s2.99-7.86,6.76-7.86Zm1.37,4.1c-1.76,0-3.35,1.32-3.35,3.76s1.59,3.82,3.35,3.82,3.35-1.35,3.35-3.79-1.56-3.79-3.35-3.79Z"/><path class="g" d="M567.45,143.15c-4.51,0-7.91-3.02-7.91-7.89s3.49-7.89,7.97-7.89,7.97,3.02,7.97,7.89-3.52,7.89-8.02,7.89Zm0-4.07c1.68,0,3.24-1.24,3.24-3.82s-1.54-3.82-3.19-3.82-3.19,1.21-3.19,3.82,1.43,3.82,3.13,3.82Z"/><path class="g" d="M601.14,133.28c0,5.72-3.96,9.65-10.11,9.65h-7.23v-19.29h7.23c6.16,0,10.11,3.9,10.11,9.64Zm-10.42,5.58c3.54,0,5.63-2.03,5.63-5.58s-2.09-5.63-5.63-5.63h-2.23v11.21h2.23Z"/><path class="g" d="M603.33,123.47c0-1.43,1.13-2.56,2.8-2.56s2.78,1.13,2.78,2.56-1.13,2.53-2.78,2.53-2.8-1.12-2.8-2.53Zm.44,4.12h4.7v15.33h-4.7v-15.33Z"/><path class="g" d="M618.12,143.15c-4.09,0-6.84-2.28-7.06-5.25h4.64c.11,1.07,1.07,1.79,2.36,1.79,1.21,0,1.84-.55,1.84-1.24,0-2.47-8.35-.69-8.35-6.32,0-2.61,2.23-4.75,6.24-4.75s6.16,2.2,6.46,5.22h-4.34c-.14-1.04-.94-1.73-2.25-1.73-1.1,0-1.7,.44-1.7,1.18,0,2.45,8.3,.71,8.38,6.43,0,2.67-2.36,4.67-6.21,4.67Z"/><path class="g" d="M627.95,131.5h-1.87v-3.9h1.87v-3.74h4.7v3.74h3.08v3.9h-3.08v6.16c0,.91,.39,1.29,1.43,1.29h1.68v3.98h-2.39c-3.19,0-5.41-1.35-5.41-5.33v-6.1Z"/><path class="g" d="M643.07,142.93h-4.7v-15.33h4.7v2.56c1.07-1.62,2.75-2.72,4.81-2.72v4.97h-1.29c-2.23,0-3.52,.77-3.52,3.41v7.12Z"/><path class="g" d="M649.68,123.47c0-1.43,1.13-2.56,2.8-2.56s2.78,1.13,2.78,2.56-1.13,2.53-2.78,2.53-2.8-1.12-2.8-2.53Zm.44,4.12h4.7v15.33h-4.7v-15.33Z"/><path class="g" d="M658.97,131.5h-1.87v-3.9h1.87v-3.74h4.7v3.74h3.08v3.9h-3.08v6.16c0,.91,.39,1.29,1.43,1.29h1.68v3.98h-2.39c-3.19,0-5.41-1.35-5.41-5.33v-6.1Z"/><path class="g" d="M676.37,143.15c-4.51,0-7.91-3.02-7.91-7.89s3.49-7.89,7.97-7.89,7.97,3.02,7.97,7.89-3.52,7.89-8.02,7.89Zm0-4.07c1.68,0,3.24-1.24,3.24-3.82s-1.54-3.82-3.19-3.82-3.19,1.21-3.19,3.82,1.43,3.82,3.13,3.82Z"/><path class="g" d="M692.71,123.64h12.56v3.76h-7.86v4.07h5.88v3.65h-5.88v7.8h-4.7v-19.29Z"/><path class="g" d="M714.56,143.15c-4.51,0-7.75-3.02-7.75-7.89s3.19-7.89,7.75-7.89,7.64,2.97,7.64,7.64c0,.44-.03,.91-.08,1.37h-10.63c.17,2,1.4,2.94,2.91,2.94,1.32,0,2.06-.66,2.45-1.48h5c-.74,2.99-3.46,5.3-7.28,5.3Zm-3.05-9.37h5.88c0-1.68-1.32-2.64-2.89-2.64s-2.72,.94-2.99,2.64Z"/><path class="g" d="M730.5,127.37c2.03,0,3.79,.94,4.72,2.34v-7.12h4.7v20.33h-4.7v-2.2c-.85,1.4-2.47,2.42-4.72,2.42-3.76,0-6.76-3.08-6.76-7.91s2.99-7.86,6.76-7.86Zm1.37,4.1c-1.76,0-3.35,1.32-3.35,3.76s1.59,3.82,3.35,3.82,3.35-1.35,3.35-3.79-1.56-3.79-3.35-3.79Z"/><path class="g" d="M750.14,143.15c-4.51,0-7.75-3.02-7.75-7.89s3.19-7.89,7.75-7.89,7.64,2.97,7.64,7.64c0,.44-.03,.91-.08,1.37h-10.63c.17,2,1.4,2.94,2.91,2.94,1.32,0,2.06-.66,2.45-1.48h5c-.74,2.99-3.46,5.3-7.28,5.3Zm-3.05-9.37h5.88c0-1.68-1.32-2.64-2.89-2.64s-2.72,.94-2.99,2.64Z"/><path class="g" d="M764.95,142.93h-4.7v-15.33h4.7v2.56c1.07-1.62,2.75-2.72,4.81-2.72v4.97h-1.29c-2.23,0-3.52,.77-3.52,3.41v7.12Z"/><path class="g" d="M777.84,127.37c2.28,0,3.9,1.04,4.72,2.39v-2.17h4.7v15.33h-4.7v-2.17c-.85,1.35-2.47,2.39-4.75,2.39-3.74,0-6.73-3.08-6.73-7.91s2.99-7.86,6.76-7.86Zm1.37,4.1c-1.76,0-3.35,1.32-3.35,3.76s1.59,3.82,3.35,3.82,3.35-1.35,3.35-3.79-1.56-3.79-3.35-3.79Z"/><path class="g" d="M790.67,122.59h4.7v20.33h-4.7v-20.33Z"/></g><g><path class="f" d="M314.87,198.63c-2.55,0-4.55-1.27-4.63-3.67h3.08c.08,.91,.66,1.35,1.47,1.35s1.38-.42,1.38-1.12c0-2.2-5.93-1.01-5.9-5.22,0-2.25,1.84-3.5,4.33-3.5s4.33,1.29,4.44,3.55h-3.13c-.05-.76-.59-1.22-1.37-1.23-.69-.02-1.22,.34-1.22,1.08,0,2.06,5.87,1.13,5.87,5.1,0,1.99-1.56,3.65-4.33,3.65Z"/><path class="f" d="M325.17,198.65c-2.77,0-4.76-1.86-4.76-4.85s1.96-4.85,4.76-4.85,4.7,1.82,4.7,4.7c0,.27-.02,.56-.05,.84h-6.54c.1,1.23,.86,1.81,1.79,1.81,.81,0,1.27-.4,1.5-.91h3.08c-.46,1.84-2.13,3.26-4.48,3.26Zm-1.88-5.76h3.62c0-1.03-.81-1.62-1.78-1.62s-1.67,.57-1.84,1.62Z"/><path class="f" d="M331.85,191.48h-1.15v-2.4h1.15v-2.3h2.89v2.3h1.89v2.4h-1.89v3.79c0,.56,.24,.79,.88,.79h1.03v2.45h-1.47c-1.96,0-3.33-.83-3.33-3.28v-3.75Z"/><path class="f" d="M342.55,198.65c-2.77,0-4.87-1.86-4.87-4.85s2.15-4.85,4.9-4.85,4.9,1.86,4.9,4.85-2.16,4.85-4.94,4.85Zm0-2.5c1.03,0,1.99-.76,1.99-2.35s-.95-2.35-1.96-2.35-1.96,.74-1.96,2.35,.88,2.35,1.93,2.35Z"/><path class="f" d="M351.92,198.51h-2.89v-9.43h2.89v1.57c.66-1,1.69-1.67,2.96-1.67v3.06h-.79c-1.37,0-2.16,.47-2.16,2.1v4.38Z"/><path class="f" d="M355.99,186.55c0-.88,.69-1.57,1.72-1.57s1.71,.69,1.71,1.57-.69,1.55-1.71,1.55-1.72-.69-1.72-1.55Zm.27,2.53h2.89v9.43h-2.89v-9.43Z"/><path class="f" d="M364.84,188.95c1.4,0,2.4,.64,2.91,1.47v-1.34h2.89v9.43h-2.89v-1.34c-.52,.83-1.52,1.47-2.92,1.47-2.3,0-4.14-1.89-4.14-4.87s1.84-4.83,4.16-4.83Zm.84,2.52c-1.08,0-2.06,.81-2.06,2.32s.98,2.35,2.06,2.35,2.06-.83,2.06-2.33-.96-2.33-2.06-2.33Z"/><path class="f" d="M372.46,186.55c0-.88,.69-1.57,1.72-1.57s1.71,.69,1.71,1.57-.69,1.55-1.71,1.55-1.72-.69-1.72-1.55Zm.27,2.53h2.89v9.43h-2.89v-9.43Z"/><path class="f" d="M381.56,198.65c-2.52,0-4.21-1.4-4.34-3.23h2.86c.07,.66,.66,1.1,1.45,1.1,.74,0,1.13-.34,1.13-.76,0-1.52-5.14-.42-5.14-3.89,0-1.61,1.37-2.92,3.84-2.92s3.79,1.35,3.97,3.21h-2.67c-.08-.64-.57-1.07-1.39-1.07-.68,0-1.05,.27-1.05,.73,0,1.5,5.1,.44,5.15,3.95,0,1.64-1.45,2.87-3.82,2.87Z"/></g><g><path class="f" d="M491.16,165.72h-4.38v2.4h3.87v2.23h-3.87v2.6h4.38v2.32h-7.27v-11.86h7.27v2.32Z"/><path class="f" d="M496.87,175.4c-2.52,0-4.21-1.4-4.34-3.23h2.86c.07,.66,.66,1.1,1.45,1.1,.74,0,1.13-.34,1.13-.76,0-1.52-5.14-.42-5.14-3.89,0-1.61,1.37-2.92,3.84-2.92s3.79,1.35,3.97,3.21h-2.67c-.08-.64-.58-1.07-1.39-1.07-.67,0-1.05,.27-1.05,.73,0,1.5,5.1,.44,5.15,3.95,0,1.64-1.45,2.87-3.82,2.87Z"/><path class="f" d="M502.93,168.23h-1.15v-2.4h1.15v-2.3h2.89v2.3h1.89v2.4h-1.89v3.79c0,.56,.24,.79,.88,.79h1.03v2.45h-1.47c-1.96,0-3.33-.83-3.33-3.28v-3.75Z"/><path class="f" d="M512.92,165.7c1.4,0,2.4,.64,2.91,1.47v-1.34h2.89v9.43h-2.89v-1.34c-.52,.83-1.52,1.47-2.92,1.47-2.3,0-4.14-1.89-4.14-4.87s1.84-4.83,4.16-4.83Zm.84,2.52c-1.08,0-2.06,.81-2.06,2.32s.98,2.35,2.06,2.35,2.06-.83,2.06-2.33-.96-2.33-2.06-2.33Z"/><path class="f" d="M526.62,165.7c2.33,0,4.16,1.86,4.16,4.83s-1.84,4.87-4.16,4.87c-1.38,0-2.38-.63-2.91-1.46v1.32h-2.89v-12.51h2.89v4.41c.52-.84,1.55-1.47,2.91-1.47Zm-.86,2.52c-1.08,0-2.06,.83-2.06,2.33s.98,2.33,2.06,2.33,2.08-.85,2.08-2.35-.98-2.32-2.08-2.32Z"/><path class="f" d="M536.49,175.4c-2.77,0-4.77-1.86-4.77-4.85s1.96-4.85,4.77-4.85,4.7,1.82,4.7,4.7c0,.27-.02,.56-.05,.84h-6.54c.1,1.23,.86,1.81,1.79,1.81,.81,0,1.27-.4,1.5-.91h3.08c-.46,1.84-2.13,3.26-4.48,3.26Zm-1.87-5.76h3.62c0-1.03-.81-1.62-1.78-1.62s-1.67,.57-1.84,1.62Z"/><path class="f" d="M542.72,162.76h2.89v12.51h-2.89v-12.51Z"/><path class="f" d="M551.89,175.4c-2.77,0-4.77-1.86-4.77-4.85s1.96-4.85,4.77-4.85,4.7,1.82,4.7,4.7c0,.27-.02,.56-.05,.84h-6.54c.1,1.23,.86,1.81,1.79,1.81,.81,0,1.27-.4,1.5-.91h3.08c-.46,1.84-2.13,3.26-4.48,3.26Zm-1.88-5.76h3.62c0-1.03-.81-1.62-1.78-1.62s-1.67,.57-1.84,1.62Z"/><path class="f" d="M562.28,165.7c2.37,0,4.04,1.3,4.53,3.55h-3.08c-.24-.66-.71-1.08-1.5-1.08-1.03,0-1.74,.81-1.74,2.38s.71,2.38,1.74,2.38c.79,0,1.25-.39,1.5-1.08h3.08c-.49,2.18-2.16,3.55-4.53,3.55-2.77,0-4.73-1.86-4.73-4.85s1.96-4.85,4.73-4.85Z"/><path class="f" d="M568.08,163.3c0-.88,.69-1.57,1.72-1.57s1.71,.69,1.71,1.57-.69,1.55-1.71,1.55-1.72-.69-1.72-1.55Zm.27,2.53h2.89v9.43h-2.89v-9.43Z"/><path class="f" d="M576.92,165.7c1.25,0,2.33,.57,2.91,1.44v-4.38h2.89v12.51h-2.89v-1.35c-.52,.86-1.52,1.49-2.91,1.49-2.32,0-4.16-1.89-4.16-4.87s1.84-4.83,4.16-4.83Zm.84,2.52c-1.08,0-2.06,.81-2.06,2.32s.98,2.35,2.06,2.35,2.06-.83,2.06-2.33-.96-2.33-2.06-2.33Z"/><path class="f" d="M588.4,165.7c1.4,0,2.4,.64,2.91,1.47v-1.34h2.89v9.43h-2.89v-1.34c-.52,.83-1.52,1.47-2.92,1.47-2.3,0-4.14-1.89-4.14-4.87s1.84-4.83,4.16-4.83Zm.84,2.52c-1.08,0-2.06,.81-2.06,2.32s.98,2.35,2.06,2.35,2.06-.83,2.06-2.33-.96-2.33-2.06-2.33Z"/></g><g><path class="f" d="M246.1,18.88h-4.43l-.71,2.1h-3.02l4.29-11.86h3.35l4.29,11.86h-3.06l-.71-2.1Zm-2.21-6.57l-1.45,4.34h2.92l-1.47-4.34Z"/><path class="f" d="M254.76,11.41c1.25,0,2.33,.57,2.91,1.44v-4.38h2.89v12.51h-2.89v-1.35c-.52,.86-1.52,1.49-2.91,1.49-2.32,0-4.16-1.89-4.16-4.87s1.84-4.83,4.16-4.83Zm.85,2.52c-1.08,0-2.06,.81-2.06,2.32s.98,2.35,2.06,2.35,2.06-.83,2.06-2.33-.96-2.33-2.06-2.33Z"/><path class="f" d="M266.49,21.11c-2.52,0-4.21-1.4-4.34-3.23h2.86c.07,.66,.66,1.1,1.45,1.1,.74,0,1.13-.34,1.13-.76,0-1.52-5.14-.42-5.14-3.89,0-1.61,1.37-2.92,3.84-2.92s3.79,1.35,3.97,3.21h-2.67c-.08-.64-.57-1.07-1.39-1.07-.68,0-1.05,.27-1.05,.73,0,1.5,5.1,.44,5.15,3.95,0,1.64-1.45,2.87-3.82,2.87Z"/><path class="f" d="M272.55,13.94h-1.15v-2.4h1.15v-2.3h2.89v2.3h1.89v2.4h-1.89v3.79c0,.56,.24,.79,.88,.79h1.03v2.45h-1.47c-1.96,0-3.33-.83-3.33-3.28v-3.75Z"/><path class="f" d="M281.85,20.97h-2.89V11.54h2.89v1.57c.66-1,1.69-1.67,2.96-1.67v3.06h-.79c-1.37,0-2.16,.47-2.16,2.1v4.38Z"/><path class="f" d="M285.92,9.01c0-.88,.69-1.57,1.72-1.57s1.71,.69,1.71,1.57-.69,1.55-1.71,1.55-1.72-.69-1.72-1.55Zm.27,2.53h2.89v9.43h-2.89V11.54Z"/><path class="f" d="M291.64,13.94h-1.15v-2.4h1.15v-2.3h2.89v2.3h1.89v2.4h-1.89v3.79c0,.56,.24,.79,.88,.79h1.03v2.45h-1.47c-1.96,0-3.33-.83-3.33-3.28v-3.75Z"/><path class="f" d="M302.34,21.11c-2.77,0-4.87-1.86-4.87-4.85s2.15-4.85,4.9-4.85,4.9,1.86,4.9,4.85-2.16,4.85-4.93,4.85Zm0-2.5c1.03,0,1.99-.76,1.99-2.35s-.95-2.35-1.96-2.35-1.96,.74-1.96,2.35,.88,2.35,1.93,2.35Z"/><path class="f" d="M312.65,21.11c-2.52,0-4.21-1.4-4.34-3.23h2.86c.07,.66,.66,1.1,1.45,1.1,.74,0,1.13-.34,1.13-.76,0-1.52-5.14-.42-5.14-3.89,0-1.61,1.37-2.92,3.84-2.92s3.79,1.35,3.97,3.21h-2.67c-.08-.64-.57-1.07-1.39-1.07-.68,0-1.05,.27-1.05,.73,0,1.5,5.1,.44,5.15,3.95,0,1.64-1.45,2.87-3.82,2.87Z"/></g><g><path class="f" d="M372.8,150.92h-4.38v2.4h3.87v2.23h-3.87v2.6h4.38v2.32h-7.27v-11.86h7.27v2.32Z"/><path class="f" d="M378.51,160.61c-2.52,0-4.21-1.4-4.34-3.23h2.86c.07,.66,.66,1.1,1.45,1.1,.74,0,1.13-.34,1.13-.76,0-1.52-5.14-.42-5.14-3.89,0-1.61,1.37-2.92,3.84-2.92s3.79,1.35,3.97,3.21h-2.67c-.08-.64-.57-1.07-1.39-1.07-.68,0-1.05,.27-1.05,.73,0,1.5,5.1,.44,5.15,3.95,0,1.64-1.45,2.87-3.82,2.87Z"/><path class="f" d="M389.91,150.9c2.31,0,4.16,1.86,4.16,4.83s-1.84,4.87-4.16,4.87c-1.39,0-2.38-.66-2.91-1.46v5.81h-2.89v-13.93h2.89v1.34c.52-.83,1.52-1.47,2.91-1.47Zm-.86,2.52c-1.08,0-2.06,.83-2.06,2.33s.98,2.33,2.06,2.33,2.08-.85,2.08-2.35-.98-2.32-2.08-2.32Z"/><path class="f" d="M399.18,150.9c1.4,0,2.4,.64,2.91,1.47v-1.34h2.89v9.43h-2.89v-1.34c-.52,.83-1.52,1.47-2.92,1.47-2.3,0-4.14-1.89-4.14-4.87s1.84-4.83,4.16-4.83Zm.85,2.52c-1.08,0-2.06,.81-2.06,2.32s.98,2.35,2.06,2.35,2.06-.83,2.06-2.33-.96-2.33-2.06-2.33Z"/><path class="f" d="M411.23,150.9c2.37,0,4.04,1.3,4.53,3.55h-3.08c-.24-.66-.71-1.08-1.5-1.08-1.03,0-1.74,.81-1.74,2.38s.71,2.38,1.74,2.38c.79,0,1.25-.39,1.5-1.08h3.08c-.42,1.91-1.77,3.2-3.68,3.48v.63c1.02,0,2.2,.52,2.2,1.93s-1.18,1.96-2.35,1.96h-2.6v-1.59h2.21c.42,0,.68-.1,.68-.44,0-.32-.25-.42-.68-.42h-1.2v-2.06c-2.28-.36-3.84-2.13-3.84-4.78,0-2.97,1.96-4.85,4.73-4.85Z"/><path class="f" d="M421.59,160.61c-2.77,0-4.87-1.86-4.87-4.85s2.15-4.85,4.9-4.85,4.9,1.86,4.9,4.85-2.16,4.85-4.94,4.85Zm0-2.5c1.03,0,2-.76,2-2.35s-.95-2.35-1.96-2.35-1.96,.74-1.96,2.35,.88,2.35,1.93,2.35Z"/></g><g><path class="f" d="M103.43,40.98c3.63,0,5.45,2.09,5.45,4.67,0,1.86-1.01,3.61-3.3,4.29l3.42,5.87h-4.08l-3.08-5.6h-.87v5.6h-3.61v-14.83h6.06Zm-.21,3h-2.24v3.68h2.24c1.35,0,1.99-.7,1.99-1.86,0-1.1-.63-1.82-1.99-1.82Z"/><path class="f" d="M110.81,40.85c0-1.1,.87-1.96,2.15-1.96s2.13,.87,2.13,1.96-.87,1.94-2.13,1.94-2.15-.87-2.15-1.94Zm.34,3.17h3.61v11.79h-3.61v-11.79Z"/><path class="f" d="M122.18,55.98c-3.15,0-5.26-1.75-5.43-4.04h3.57c.08,.82,.82,1.37,1.82,1.37,.93,0,1.41-.42,1.41-.95,0-1.9-6.42-.53-6.42-4.86,0-2.01,1.71-3.66,4.8-3.66s4.73,1.69,4.96,4.01h-3.34c-.11-.8-.72-1.33-1.73-1.33-.85,0-1.31,.34-1.31,.91,0,1.88,6.38,.55,6.44,4.94,0,2.05-1.82,3.59-4.77,3.59Z"/><path class="f" d="M134.37,43.85c2.96,0,5.05,1.63,5.66,4.44h-3.84c-.3-.83-.89-1.35-1.88-1.35-1.29,0-2.18,1.01-2.18,2.98s.89,2.98,2.18,2.98c.99,0,1.56-.49,1.88-1.35h3.84c-.61,2.72-2.7,4.44-5.66,4.44-3.46,0-5.91-2.32-5.91-6.06s2.45-6.06,5.91-6.06Z"/><path class="f" d="M147.33,55.98c-3.46,0-6.08-2.32-6.08-6.06s2.68-6.06,6.13-6.06,6.13,2.32,6.13,6.06-2.7,6.06-6.17,6.06Zm0-3.13c1.29,0,2.49-.95,2.49-2.94s-1.18-2.94-2.45-2.94-2.45,.93-2.45,2.94,1.1,2.94,2.41,2.94Z"/><path class="f" d="M160.22,55.98c-3.15,0-5.26-1.75-5.43-4.04h3.57c.08,.82,.82,1.37,1.82,1.37,.93,0,1.41-.42,1.41-.95,0-1.9-6.42-.53-6.42-4.86,0-2.01,1.71-3.66,4.8-3.66s4.73,1.69,4.96,4.01h-3.34c-.11-.8-.72-1.33-1.73-1.33-.85,0-1.31,.34-1.31,.91,0,1.88,6.38,.55,6.44,4.94,0,2.05-1.82,3.59-4.77,3.59Z"/></g><g><path class="e" d="M620.2,49.45h-6.64l-1.06,3.14h-4.54l6.44-17.79h5.02l6.44,17.79h-4.59l-1.07-3.14Zm-3.32-9.86l-2.18,6.51h4.39l-2.21-6.51Z"/><path class="e" d="M628.5,42.05h-1.72v-3.6h1.72v-3.45h4.33v3.45h2.84v3.6h-2.84v5.68c0,.84,.36,1.19,1.32,1.19h1.55v3.68h-2.2c-2.94,0-5-1.24-5-4.92v-5.63Z"/><path class="e" d="M644.39,52.79c-4.16,0-7.15-2.79-7.15-7.27s2.94-7.28,7.15-7.28,7.05,2.74,7.05,7.05c0,.4-.03,.84-.08,1.27h-9.81c.15,1.85,1.29,2.71,2.69,2.71,1.22,0,1.9-.61,2.26-1.37h4.61c-.69,2.76-3.19,4.89-6.72,4.89Zm-2.81-8.64h5.42c0-1.55-1.22-2.43-2.66-2.43s-2.51,.86-2.76,2.43Z"/><path class="e" d="M663.49,44.91c0-1.93-1.06-2.99-2.71-2.99s-2.71,1.06-2.71,2.99v7.68h-4.33v-14.14h4.33v1.88c.86-1.19,2.38-2.03,4.28-2.03,3.27,0,5.45,2.23,5.45,6.03v8.26h-4.31v-7.68Z"/><path class="e" d="M677.06,38.25c3.55,0,6.06,1.95,6.79,5.32h-4.61c-.36-.99-1.07-1.62-2.26-1.62-1.55,0-2.61,1.22-2.61,3.57s1.06,3.57,2.61,3.57c1.19,0,1.87-.58,2.26-1.62h4.61c-.63,2.86-2.66,4.79-5.53,5.22v.94c1.52,0,3.3,.78,3.3,2.89s-1.78,2.94-3.52,2.94h-3.9v-2.38h3.32c.63,0,1.02-.15,1.02-.66,0-.48-.38-.63-1.02-.63h-1.8v-3.09c-3.42-.53-5.75-3.19-5.75-7.17,0-4.46,2.94-7.28,7.1-7.28Z"/><path class="e" d="M691.55,38.25c2.1,0,3.6,.96,4.36,2.2v-2h4.33v14.14h-4.33v-2c-.79,1.24-2.28,2.2-4.38,2.2-3.45,0-6.21-2.84-6.21-7.3s2.76-7.25,6.24-7.25Zm.18-4.74c1.52,0,2.31,1.14,3.32,1.14,.58,0,.99-.36,1.09-1.14h2.23c-.43,2.66-1.72,3.75-3.5,3.75-1.52,0-2.31-1.14-3.32-1.14-.58,0-.99,.36-1.12,1.14h-2.2c.43-2.66,1.7-3.75,3.5-3.75Zm1.09,8.52c-1.62,0-3.09,1.22-3.09,3.47s1.47,3.52,3.09,3.52,3.09-1.24,3.09-3.5-1.44-3.5-3.09-3.5Z"/><path class="e" d="M709.83,52.79c-4.16,0-7.3-2.79-7.3-7.27s3.22-7.28,7.35-7.28,7.35,2.79,7.35,7.28-3.24,7.27-7.4,7.27Zm0-3.75c1.55,0,2.99-1.14,2.99-3.52s-1.42-3.53-2.94-3.53-2.94,1.12-2.94,3.53,1.32,3.52,2.89,3.52Z"/></g><g><path class="d" d="M13.61,112.74h-3.32l-.53,1.57h-2.27l3.22-8.9h2.51l3.22,8.9h-2.29l-.53-1.57Zm-1.66-4.93l-1.09,3.26h2.19l-1.1-3.26Z"/><path class="d" d="M20.11,107.14c.94,0,1.75,.43,2.18,1.08v-3.28h2.17v9.38h-2.17v-1.01c-.39,.65-1.14,1.11-2.18,1.11-1.74,0-3.12-1.42-3.12-3.65s1.38-3.63,3.12-3.63Zm.63,1.89c-.81,0-1.55,.61-1.55,1.74s.73,1.76,1.55,1.76,1.55-.62,1.55-1.75-.72-1.75-1.55-1.75Z"/><path class="d" d="M28.91,114.42c-1.89,0-3.16-1.05-3.26-2.42h2.14c.05,.5,.49,.82,1.09,.82,.56,0,.85-.25,.85-.57,0-1.14-3.85-.32-3.85-2.91,0-1.21,1.03-2.19,2.88-2.19s2.84,1.02,2.98,2.41h-2c-.06-.48-.43-.8-1.04-.8-.51,0-.79,.2-.79,.54,0,1.13,3.83,.33,3.87,2.97,0,1.23-1.09,2.15-2.86,2.15Z"/><path class="d" d="M33.45,109.04h-.86v-1.8h.86v-1.73h2.17v1.73h1.42v1.8h-1.42v2.84c0,.42,.18,.6,.66,.6h.77v1.84h-1.1c-1.47,0-2.5-.62-2.5-2.46v-2.81Z"/><path class="d" d="M40.42,114.31h-2.17v-7.07h2.17v1.18c.49-.75,1.27-1.25,2.22-1.25v2.29h-.6c-1.03,0-1.62,.36-1.62,1.57v3.28Z"/><path class="d" d="M43.48,105.34c0-.66,.52-1.18,1.29-1.18s1.28,.52,1.28,1.18-.52,1.17-1.28,1.17-1.29-.52-1.29-1.17Zm.2,1.9h2.17v7.07h-2.17v-7.07Z"/><path class="d" d="M47.77,109.04h-.86v-1.8h.86v-1.73h2.17v1.73h1.42v1.8h-1.42v2.84c0,.42,.18,.6,.66,.6h.77v1.84h-1.1c-1.47,0-2.5-.62-2.5-2.46v-2.81Z"/><path class="d" d="M55.79,114.42c-2.08,0-3.65-1.39-3.65-3.64s1.61-3.64,3.68-3.64,3.68,1.4,3.68,3.64-1.62,3.64-3.7,3.64Zm0-1.88c.77,0,1.5-.57,1.5-1.76s-.71-1.76-1.47-1.76-1.47,.56-1.47,1.76,.66,1.76,1.44,1.76Z"/><path class="d" d="M63.53,114.42c-1.89,0-3.16-1.05-3.26-2.42h2.14c.05,.5,.49,.82,1.09,.82,.56,0,.85-.25,.85-.57,0-1.14-3.85-.32-3.85-2.91,0-1.21,1.03-2.19,2.88-2.19s2.84,1.02,2.98,2.41h-2c-.06-.48-.43-.8-1.04-.8-.51,0-.79,.2-.79,.54,0,1.13,3.83,.33,3.87,2.97,0,1.23-1.09,2.15-2.86,2.15Z"/></g><g><path class="c" d="M30.52,70.47h-3.32l-.53,1.57h-2.27l3.22-8.9h2.51l3.22,8.9h-2.29l-.53-1.57Zm-1.66-4.93l-1.09,3.26h2.19l-1.1-3.26Z"/><path class="c" d="M37.45,64.87c1.77,0,3.03,.98,3.4,2.66h-2.31c-.18-.5-.53-.81-1.13-.81-.77,0-1.31,.61-1.31,1.79s.53,1.79,1.31,1.79c.6,0,.94-.29,1.13-.81h2.31c-.32,1.43-1.33,2.39-2.76,2.61v.47c.76,0,1.65,.39,1.65,1.44s-.89,1.47-1.76,1.47h-1.95v-1.19h1.66c.32,0,.51-.08,.51-.33,0-.24-.19-.32-.51-.32h-.9v-1.55c-1.71-.27-2.88-1.6-2.88-3.59,0-2.23,1.47-3.64,3.55-3.64Z"/><path class="c" d="M45.22,72.14c-2.08,0-3.65-1.39-3.65-3.64s1.61-3.64,3.68-3.64,3.68,1.4,3.68,3.64-1.62,3.64-3.7,3.64Zm-.6-9.69c.76,0,1.15,.57,1.66,.57,.29,0,.49-.18,.54-.57h1.11c-.21,1.33-.86,1.87-1.75,1.87-.76,0-1.15-.57-1.66-.57-.29,0-.49,.18-.56,.57h-1.1c.22-1.33,.85-1.87,1.75-1.87Zm.6,7.82c.77,0,1.5-.57,1.5-1.76s-.71-1.76-1.47-1.76-1.47,.56-1.47,1.76,.66,1.76,1.44,1.76Z"/><path class="c" d="M53.22,72.14c-2.08,0-3.57-1.39-3.57-3.64s1.47-3.64,3.57-3.64,3.52,1.37,3.52,3.53c0,.2-.01,.42-.04,.63h-4.91c.08,.92,.65,1.36,1.34,1.36,.61,0,.95-.31,1.13-.69h2.31c-.34,1.38-1.6,2.45-3.36,2.45Zm-1.41-4.32h2.71c0-.77-.61-1.22-1.33-1.22s-1.25,.43-1.38,1.22Z"/><path class="c" d="M60.77,72.14c-1.89,0-3.16-1.05-3.26-2.42h2.14c.05,.5,.49,.82,1.09,.82,.56,0,.85-.25,.85-.57,0-1.14-3.85-.32-3.85-2.91,0-1.21,1.03-2.19,2.88-2.19s2.84,1.02,2.98,2.41h-2c-.06-.48-.43-.8-1.04-.8-.51,0-.79,.2-.79,.54,0,1.13,3.83,.33,3.87,2.97,0,1.23-1.09,2.15-2.86,2.15Z"/></g><g><path class="d" d="M644.26,25.85h2.56l2.5,6.16,2.47-6.16h2.55v8.9h-2.17v-5.34l-1.99,5.34h-1.75l-2-5.35v5.35h-2.17v-8.9Z"/><path class="d" d="M658.59,27.58c1.05,0,1.8,.48,2.18,1.1v-1h2.17v7.07h-2.17v-1c-.39,.62-1.14,1.1-2.19,1.1-1.72,0-3.1-1.42-3.1-3.65s1.38-3.63,3.12-3.63Zm.63,1.89c-.81,0-1.55,.61-1.55,1.74s.73,1.76,1.55,1.76,1.55-.62,1.55-1.75-.72-1.75-1.55-1.75Z"/><path class="d" d="M668.86,27.58c1.74,0,3.12,1.4,3.12,3.63s-1.38,3.65-3.12,3.65c-1.04,0-1.79-.49-2.18-1.09v4.36h-2.17v-10.44h2.17v1c.39-.62,1.14-1.1,2.18-1.1Zm-.65,1.89c-.81,0-1.55,.62-1.55,1.75s.73,1.75,1.55,1.75,1.56-.63,1.56-1.76-.73-1.74-1.56-1.74Z"/><path class="d" d="M675.81,27.58c1.05,0,1.8,.48,2.18,1.1v-1h2.17v7.07h-2.17v-1c-.39,.62-1.14,1.1-2.19,1.1-1.72,0-3.1-1.42-3.1-3.65s1.38-3.63,3.12-3.63Zm.63,1.89c-.81,0-1.55,.61-1.55,1.74s.73,1.76,1.55,1.76,1.55-.62,1.55-1.75-.72-1.75-1.55-1.75Z"/><path class="d" d="M684.61,34.85c-1.89,0-3.16-1.05-3.26-2.42h2.14c.05,.5,.49,.82,1.09,.82,.56,0,.85-.25,.85-.57,0-1.14-3.85-.32-3.85-2.91,0-1.21,1.03-2.19,2.88-2.19s2.84,1.02,2.98,2.41h-2c-.06-.48-.43-.8-1.04-.8-.51,0-.78,.2-.78,.54,0,1.13,3.83,.33,3.87,2.97,0,1.23-1.09,2.15-2.86,2.15Z"/></g><g><path class="d" d="M72.88,156.26h-1.34v3.19h-2.17v-8.9h3.51c2.18,0,3.27,1.23,3.27,2.86,0,1.47-1,2.84-3.27,2.84Zm-.16-1.73c.86,0,1.23-.43,1.23-1.11s-.37-1.11-1.23-1.11h-1.18v2.23h1.18Z"/><path class="d" d="M79.45,159.45h-2.17v-7.07h2.17v1.18c.49-.75,1.27-1.25,2.22-1.25v2.29h-.6c-1.03,0-1.62,.36-1.62,1.57v3.28Z"/><path class="d" d="M85.93,159.55c-2.08,0-3.65-1.39-3.65-3.64s1.61-3.64,3.68-3.64,3.68,1.4,3.68,3.64-1.62,3.64-3.7,3.64Zm0-1.88c.77,0,1.5-.57,1.5-1.76s-.71-1.76-1.47-1.76-1.47,.56-1.47,1.76,.66,1.76,1.44,1.76Z"/><path class="d" d="M93.47,152.28c1.04,0,1.8,.47,2.18,1.1v-1h2.17v7.06c0,1.89-1.09,3.5-3.54,3.5-2.1,0-3.47-1.07-3.66-2.75h2.14c.14,.53,.67,.88,1.42,.88,.82,0,1.47-.43,1.47-1.62v-1c-.39,.62-1.14,1.11-2.18,1.11-1.74,0-3.12-1.42-3.12-3.65s1.38-3.63,3.12-3.63Zm.63,1.89c-.81,0-1.55,.61-1.55,1.74s.73,1.76,1.55,1.76,1.55-.62,1.55-1.75-.72-1.75-1.55-1.75Z"/><path class="d" d="M101.56,159.45h-2.17v-7.07h2.17v1.18c.49-.75,1.27-1.25,2.22-1.25v2.29h-.6c-1.03,0-1.62,.36-1.62,1.57v3.28Z"/><path class="d" d="M107.51,152.28c1.05,0,1.8,.48,2.18,1.1v-1h2.17v7.07h-2.17v-1c-.39,.62-1.14,1.1-2.19,1.1-1.72,0-3.11-1.42-3.11-3.65s1.38-3.63,3.12-3.63Zm.63,1.89c-.81,0-1.55,.61-1.55,1.74s.73,1.76,1.55,1.76,1.55-.62,1.55-1.75-.72-1.75-1.55-1.75Z"/><path class="d" d="M123.18,155.61c0-.92-.53-1.43-1.36-1.43s-1.36,.51-1.36,1.43v3.84h-2.15v-3.84c0-.92-.53-1.43-1.36-1.43s-1.36,.51-1.36,1.43v3.84h-2.17v-7.07h2.17v.89c.42-.57,1.14-.96,2.07-.96,1.07,0,1.93,.47,2.41,1.32,.47-.75,1.36-1.32,2.38-1.32,1.75,0,2.88,1.11,2.88,3.02v4.13h-2.15v-3.84Z"/><path class="d" d="M129.55,152.28c1.05,0,1.8,.48,2.18,1.1v-1h2.17v7.07h-2.17v-1c-.39,.62-1.14,1.1-2.19,1.1-1.72,0-3.11-1.42-3.11-3.65s1.38-3.63,3.12-3.63Zm.63,1.89c-.81,0-1.55,.61-1.55,1.74s.73,1.76,1.55,1.76,1.55-.62,1.55-1.75-.72-1.75-1.55-1.75Z"/><path class="d" d="M138.59,152.28c1.77,0,3.03,.98,3.4,2.66h-2.31c-.18-.5-.53-.81-1.13-.81-.77,0-1.31,.61-1.31,1.79s.53,1.79,1.31,1.79c.6,0,.94-.29,1.13-.81h2.31c-.32,1.43-1.33,2.39-2.76,2.61v.47c.76,0,1.65,.39,1.65,1.44s-.89,1.47-1.76,1.47h-1.95v-1.19h1.66c.32,0,.51-.08,.51-.33,0-.24-.19-.32-.51-.32h-.9v-1.55c-1.71-.27-2.88-1.6-2.88-3.59,0-2.23,1.47-3.64,3.55-3.64Z"/><path class="d" d="M145.83,152.28c1.05,0,1.8,.48,2.18,1.1v-1h2.17v7.07h-2.17v-1c-.39,.62-1.14,1.1-2.19,1.1-1.72,0-3.11-1.42-3.11-3.65s1.38-3.63,3.12-3.63Zm.09-2.37c.76,0,1.15,.57,1.66,.57,.29,0,.49-.18,.54-.57h1.12c-.22,1.33-.86,1.88-1.75,1.88-.76,0-1.15-.57-1.66-.57-.29,0-.49,.18-.56,.57h-1.1c.22-1.33,.85-1.88,1.75-1.88Zm.54,4.26c-.81,0-1.55,.61-1.55,1.74s.73,1.76,1.55,1.76,1.55-.62,1.55-1.75-.72-1.75-1.55-1.75Z"/><path class="d" d="M154.98,159.55c-2.08,0-3.65-1.39-3.65-3.64s1.61-3.64,3.68-3.64,3.68,1.4,3.68,3.64-1.62,3.64-3.7,3.64Zm0-1.88c.77,0,1.5-.57,1.5-1.76s-.71-1.76-1.47-1.76-1.47,.56-1.47,1.76,.66,1.76,1.44,1.76Z"/></g><g><path class="c" d="M608.62,105.42c2.18,0,3.27,1.25,3.27,2.8,0,1.12-.61,2.17-1.98,2.57l2.05,3.52h-2.45l-1.85-3.36h-.52v3.36h-2.17v-8.9h3.64Zm-.13,1.8h-1.34v2.21h1.34c.81,0,1.19-.42,1.19-1.12,0-.66-.38-1.09-1.19-1.09Z"/><path class="c" d="M616.4,114.42c-2.08,0-3.57-1.39-3.57-3.64s1.47-3.64,3.57-3.64,3.52,1.37,3.52,3.53c0,.2-.01,.42-.04,.63h-4.91c.08,.92,.65,1.36,1.34,1.36,.61,0,.95-.31,1.13-.69h2.31c-.34,1.38-1.6,2.45-3.36,2.45Zm-1.41-4.32h2.71c0-.77-.61-1.22-1.33-1.22s-1.25,.43-1.38,1.22Z"/><path class="c" d="M624.18,107.14c1.78,0,3.03,.98,3.4,2.66h-2.31c-.18-.5-.53-.81-1.13-.81-.77,0-1.31,.61-1.31,1.79s.53,1.79,1.31,1.79c.59,0,.94-.29,1.13-.81h2.31c-.37,1.63-1.62,2.66-3.4,2.66-2.08,0-3.55-1.39-3.55-3.64s1.47-3.64,3.55-3.64Z"/><path class="c" d="M631.96,114.42c-2.08,0-3.65-1.39-3.65-3.64s1.61-3.64,3.67-3.64,3.68,1.4,3.68,3.64-1.62,3.64-3.7,3.64Zm0-1.88c.77,0,1.5-.57,1.5-1.76s-.71-1.76-1.47-1.76-1.47,.56-1.47,1.76,.66,1.76,1.44,1.76Z"/><path class="c" d="M641.69,110.47c0-.96-.53-1.49-1.36-1.49s-1.36,.53-1.36,1.49v3.84h-2.17v-7.07h2.17v.94c.43-.6,1.19-1.01,2.14-1.01,1.63,0,2.72,1.11,2.72,3.02v4.13h-2.15v-3.84Z"/><path class="c" d="M645.36,104.94h2.17v3.26c.43-.61,1.2-1.03,2.18-1.03,1.61,0,2.69,1.11,2.69,3.02v4.13h-2.15v-3.84c0-.96-.53-1.49-1.36-1.49s-1.36,.53-1.36,1.49v3.84h-2.17v-9.38Z"/><path class="c" d="M657.05,114.42c-2.08,0-3.57-1.39-3.57-3.64s1.47-3.64,3.57-3.64,3.52,1.37,3.52,3.53c0,.2-.01,.42-.04,.63h-4.91c.08,.92,.65,1.36,1.34,1.36,.61,0,.95-.31,1.13-.69h2.31c-.34,1.38-1.6,2.45-3.36,2.45Zm-1.41-4.32h2.71c0-.77-.61-1.22-1.33-1.22s-1.25,.43-1.38,1.22Z"/><path class="c" d="M664.84,107.14c1.78,0,3.03,.98,3.4,2.66h-2.31c-.18-.5-.53-.81-1.13-.81-.77,0-1.31,.61-1.31,1.79s.53,1.79,1.31,1.79c.59,0,.94-.29,1.13-.81h2.31c-.37,1.63-1.62,2.66-3.4,2.66-2.08,0-3.55-1.39-3.55-3.64s1.47-3.64,3.55-3.64Z"/><path class="c" d="M669.19,105.34c0-.66,.52-1.18,1.29-1.18s1.28,.52,1.28,1.18-.52,1.17-1.28,1.17-1.29-.52-1.29-1.17Zm.2,1.9h2.17v7.07h-2.17v-7.07Z"/><path class="c" d="M682.88,110.47c0-.92-.53-1.43-1.36-1.43s-1.36,.51-1.36,1.43v3.84h-2.15v-3.84c0-.92-.53-1.43-1.36-1.43s-1.36,.51-1.36,1.43v3.84h-2.17v-7.07h2.17v.89c.42-.57,1.14-.96,2.07-.96,1.07,0,1.93,.47,2.41,1.32,.47-.75,1.36-1.32,2.38-1.32,1.75,0,2.88,1.11,2.88,3.02v4.13h-2.15v-3.84Z"/><path class="c" d="M689.71,114.42c-2.08,0-3.57-1.39-3.57-3.64s1.47-3.64,3.57-3.64,3.52,1.37,3.52,3.53c0,.2-.01,.42-.04,.63h-4.9c.07,.92,.65,1.36,1.34,1.36,.61,0,.95-.31,1.13-.69h2.31c-.34,1.38-1.6,2.45-3.36,2.45Zm-1.41-4.32h2.71c0-.77-.61-1.22-1.33-1.22s-1.25,.43-1.38,1.22Z"/><path class="c" d="M699.26,110.47c0-.96-.53-1.49-1.36-1.49s-1.36,.53-1.36,1.49v3.84h-2.17v-7.07h2.17v.94c.43-.6,1.19-1.01,2.14-1.01,1.63,0,2.72,1.11,2.72,3.02v4.13h-2.15v-3.84Z"/><path class="c" d="M703.27,109.04h-.86v-1.8h.86v-1.73h2.17v1.73h1.42v1.8h-1.42v2.84c0,.42,.18,.6,.66,.6h.77v1.84h-1.1c-1.47,0-2.5-.62-2.5-2.46v-2.81Z"/><path class="c" d="M711.29,114.42c-2.08,0-3.65-1.39-3.65-3.64s1.61-3.64,3.67-3.64,3.68,1.4,3.68,3.64-1.62,3.64-3.7,3.64Zm0-1.88c.77,0,1.5-.57,1.5-1.76s-.71-1.76-1.47-1.76-1.47,.56-1.47,1.76,.66,1.76,1.44,1.76Z"/></g><g><path class="d" d="M437.42,149.8c2.18,0,3.27,1.25,3.27,2.8,0,1.12-.61,2.17-1.98,2.57l2.05,3.52h-2.45l-1.85-3.36h-.52v3.36h-2.17v-8.9h3.64Zm-.13,1.8h-1.34v2.21h1.34c.81,0,1.19-.42,1.19-1.12,0-.66-.38-1.09-1.19-1.09Z"/><path class="d" d="M445.2,158.8c-2.08,0-3.57-1.39-3.57-3.64s1.47-3.64,3.57-3.64,3.52,1.37,3.52,3.53c0,.2-.01,.42-.04,.63h-4.91c.08,.92,.65,1.36,1.34,1.36,.61,0,.95-.31,1.13-.69h2.31c-.34,1.38-1.6,2.45-3.36,2.45Zm-1.41-4.32h2.71c0-.77-.61-1.22-1.33-1.22s-1.25,.43-1.38,1.22Z"/><path class="d" d="M452.98,151.53c1.78,0,3.03,.98,3.4,2.66h-2.31c-.18-.5-.53-.81-1.13-.81-.77,0-1.31,.61-1.31,1.79s.53,1.79,1.31,1.79c.59,0,.94-.29,1.13-.81h2.31c-.37,1.63-1.62,2.66-3.4,2.66-2.08,0-3.55-1.39-3.55-3.64s1.47-3.64,3.55-3.64Z"/><path class="d" d="M460.76,158.8c-2.08,0-3.65-1.39-3.65-3.64s1.61-3.64,3.67-3.64,3.68,1.4,3.68,3.64-1.62,3.64-3.7,3.64Zm0-1.88c.77,0,1.5-.57,1.5-1.76s-.71-1.76-1.47-1.76-1.47,.56-1.47,1.76,.66,1.76,1.44,1.76Z"/><path class="d" d="M470.49,154.86c0-.96-.53-1.49-1.36-1.49s-1.36,.53-1.36,1.49v3.84h-2.17v-7.07h2.17v.94c.43-.6,1.19-1.01,2.14-1.01,1.63,0,2.72,1.11,2.72,3.02v4.13h-2.15v-3.84Z"/><path class="d" d="M474.16,149.32h2.17v3.26c.43-.61,1.2-1.03,2.18-1.03,1.61,0,2.69,1.11,2.69,3.02v4.13h-2.15v-3.84c0-.96-.53-1.49-1.36-1.49s-1.36,.53-1.36,1.49v3.84h-2.17v-9.38Z"/><path class="d" d="M485.85,158.8c-2.08,0-3.57-1.39-3.57-3.64s1.47-3.64,3.57-3.64,3.52,1.37,3.52,3.53c0,.2-.01,.42-.04,.63h-4.91c.08,.92,.65,1.36,1.34,1.36,.61,0,.95-.31,1.13-.69h2.31c-.34,1.38-1.6,2.45-3.36,2.45Zm-1.41-4.32h2.71c0-.77-.61-1.22-1.33-1.22s-1.25,.43-1.38,1.22Z"/><path class="d" d="M493.64,151.53c1.78,0,3.03,.98,3.4,2.66h-2.31c-.18-.5-.53-.81-1.13-.81-.77,0-1.31,.61-1.31,1.79s.53,1.79,1.31,1.79c.59,0,.94-.29,1.13-.81h2.31c-.37,1.63-1.62,2.66-3.4,2.66-2.08,0-3.55-1.39-3.55-3.64s1.47-3.64,3.55-3.64Z"/><path class="d" d="M497.99,149.73c0-.66,.52-1.18,1.29-1.18s1.28,.52,1.28,1.18-.52,1.17-1.28,1.17-1.29-.52-1.29-1.17Zm.2,1.9h2.17v7.07h-2.17v-7.07Z"/><path class="d" d="M511.68,154.86c0-.92-.53-1.43-1.36-1.43s-1.36,.51-1.36,1.43v3.84h-2.15v-3.84c0-.92-.53-1.43-1.36-1.43s-1.36,.51-1.36,1.43v3.84h-2.17v-7.07h2.17v.89c.42-.57,1.14-.96,2.07-.96,1.07,0,1.93,.47,2.41,1.32,.47-.75,1.36-1.32,2.38-1.32,1.75,0,2.88,1.11,2.88,3.02v4.13h-2.15v-3.84Z"/><path class="d" d="M518.51,158.8c-2.08,0-3.57-1.39-3.57-3.64s1.47-3.64,3.57-3.64,3.52,1.37,3.52,3.53c0,.2-.01,.42-.04,.63h-4.9c.07,.92,.65,1.36,1.34,1.36,.61,0,.95-.31,1.13-.69h2.31c-.34,1.38-1.6,2.45-3.36,2.45Zm-1.41-4.32h2.71c0-.77-.61-1.22-1.33-1.22s-1.25,.43-1.38,1.22Z"/><path class="d" d="M528.05,154.86c0-.96-.53-1.49-1.36-1.49s-1.36,.53-1.36,1.49v3.84h-2.17v-7.07h2.17v.94c.43-.6,1.19-1.01,2.14-1.01,1.63,0,2.72,1.11,2.72,3.02v4.13h-2.15v-3.84Z"/><path class="d" d="M532.06,153.43h-.86v-1.8h.86v-1.73h2.17v1.73h1.42v1.8h-1.42v2.84c0,.42,.18,.6,.66,.6h.77v1.84h-1.1c-1.47,0-2.5-.62-2.5-2.46v-2.81Z"/><path class="d" d="M540.09,158.8c-2.08,0-3.65-1.39-3.65-3.64s1.61-3.64,3.67-3.64,3.68,1.4,3.68,3.64-1.62,3.64-3.7,3.64Zm0-1.88c.77,0,1.5-.57,1.5-1.76s-.71-1.76-1.47-1.76-1.47,.56-1.47,1.76,.66,1.76,1.44,1.76Z"/></g><g><path class="c" d="M554.18,158.7h-4.14v-8.9h4.01c1.81,0,2.89,.9,2.89,2.31,0,1.08-.65,1.78-1.51,2.03,1.04,.22,1.71,1.13,1.71,2.14,0,1.47-1.08,2.42-2.95,2.42Zm-.56-7.16h-1.42v1.86h1.42c.71,0,1.1-.32,1.1-.92s-.39-.94-1.1-.94Zm.15,3.45h-1.57v1.96h1.6c.72,0,1.14-.33,1.14-.96s-.44-1-1.17-1Z"/><path class="c" d="M561.08,151.53c1.05,0,1.8,.48,2.18,1.1v-1h2.17v7.07h-2.17v-1c-.39,.62-1.14,1.1-2.19,1.1-1.72,0-3.1-1.42-3.1-3.65s1.38-3.63,3.12-3.63Zm.63,1.89c-.81,0-1.55,.61-1.55,1.74s.73,1.76,1.55,1.76,1.55-.62,1.55-1.75-.72-1.75-1.55-1.75Zm1.71-5.23v1.69l-3.05,1.28v-1.49l3.05-1.47Z"/><path class="c" d="M569.88,158.8c-1.89,0-3.16-1.05-3.26-2.42h2.14c.05,.5,.49,.82,1.09,.82,.56,0,.85-.25,.85-.57,0-1.14-3.85-.32-3.85-2.91,0-1.21,1.03-2.19,2.88-2.19s2.84,1.02,2.98,2.41h-2c-.06-.48-.43-.8-1.04-.8-.51,0-.79,.2-.79,.54,0,1.13,3.83,.33,3.87,2.97,0,1.23-1.09,2.15-2.86,2.15Z"/><path class="c" d="M573.87,149.73c0-.66,.52-1.18,1.29-1.18s1.28,.52,1.28,1.18-.52,1.17-1.28,1.17-1.29-.52-1.29-1.17Zm.2,1.9h2.17v7.07h-2.17v-7.07Z"/><path class="c" d="M580.94,151.53c1.77,0,3.03,.98,3.4,2.66h-2.31c-.18-.5-.53-.81-1.13-.81-.77,0-1.3,.61-1.3,1.79s.53,1.79,1.3,1.79c.6,0,.94-.29,1.13-.81h2.31c-.37,1.63-1.62,2.66-3.4,2.66-2.08,0-3.55-1.39-3.55-3.64s1.47-3.64,3.55-3.64Z"/><path class="c" d="M588.18,151.53c1.05,0,1.8,.48,2.18,1.1v-1h2.17v7.07h-2.17v-1c-.39,.62-1.14,1.1-2.19,1.1-1.72,0-3.11-1.42-3.11-3.65s1.38-3.63,3.12-3.63Zm.63,1.89c-.81,0-1.55,.61-1.55,1.74s.73,1.76,1.55,1.76,1.55-.62,1.55-1.75-.72-1.75-1.55-1.75Z"/></g><g><path class="d" d="M281.24,107.15h-3.28v1.8h2.9v1.67h-2.9v1.95h3.28v1.74h-5.45v-8.9h5.45v1.74Z"/><path class="d" d="M285.46,107.17c.92,0,1.63,.36,2.07,.89v-.81h2.17v10.44h-2.17v-4.26c-.46,.56-1.15,.98-2.09,.98-1.74,0-3.21-1.46-3.21-3.61s1.47-3.62,3.23-3.62Zm.52,1.88c-.72,0-1.55,.56-1.55,1.75s.82,1.74,1.55,1.74,1.55-.56,1.55-1.75-.81-1.74-1.55-1.74Z"/><path class="d" d="M298.25,114.31h-2.17v-.96c-.43,.61-1.19,1.04-2.14,1.04-1.64,0-2.74-1.13-2.74-3.02v-4.13h2.15v3.84c0,.96,.54,1.5,1.36,1.5s1.37-.53,1.37-1.5v-3.84h2.17v7.07Z"/><path class="d" d="M299.61,105.34c0-.66,.52-1.18,1.29-1.18s1.28,.52,1.28,1.18-.52,1.17-1.28,1.17-1.29-.52-1.29-1.17Zm.2,1.9h2.17v7.07h-2.17v-7.07Z"/><path class="d" d="M307.9,107.14c1.74,0,3.12,1.4,3.12,3.63s-1.38,3.65-3.12,3.65c-1.04,0-1.79-.49-2.18-1.09v4.36h-2.17v-10.44h2.17v1c.39-.62,1.14-1.1,2.18-1.1Zm-.65,1.89c-.81,0-1.55,.62-1.55,1.75s.74,1.75,1.55,1.75,1.56-.63,1.56-1.76-.73-1.74-1.56-1.74Z"/><path class="d" d="M315.31,114.42c-2.08,0-3.57-1.39-3.57-3.64s1.47-3.64,3.57-3.64,3.52,1.37,3.52,3.53c0,.2-.01,.42-.04,.63h-4.91c.08,.92,.65,1.36,1.34,1.36,.61,0,.95-.31,1.13-.69h2.31c-.34,1.38-1.6,2.45-3.36,2.45Zm-1.41-4.32h2.71c0-.77-.61-1.22-1.33-1.22s-1.25,.43-1.38,1.22Z"/><path class="d" d="M322.85,114.42c-1.89,0-3.16-1.05-3.26-2.42h2.14c.05,.5,.49,.82,1.09,.82,.56,0,.85-.25,.85-.57,0-1.14-3.85-.32-3.85-2.91,0-1.21,1.03-2.19,2.88-2.19s2.84,1.02,2.98,2.41h-2c-.06-.48-.43-.8-1.04-.8-.51,0-.79,.2-.79,.54,0,1.13,3.83,.33,3.87,2.97,0,1.23-1.09,2.15-2.86,2.15Z"/></g><g><path class="c" d="M173.42,158.79c-1.91,0-3.41-.95-3.47-2.75h2.31c.06,.69,.49,1.02,1.1,1.02s1.04-.32,1.04-.84c0-1.65-4.45-.76-4.42-3.92,0-1.69,1.38-2.62,3.24-2.62s3.24,.96,3.33,2.66h-2.34c-.04-.57-.44-.91-1.03-.92-.52-.01-.91,.25-.91,.81,0,1.55,4.4,.85,4.4,3.83,0,1.49-1.17,2.74-3.24,2.74Z"/><path class="c" d="M181.22,158.8c-2.08,0-3.65-1.39-3.65-3.64s1.61-3.64,3.68-3.64,3.68,1.4,3.68,3.64-1.62,3.64-3.7,3.64Zm0-1.88c.77,0,1.5-.57,1.5-1.76s-.71-1.76-1.47-1.76-1.47,.56-1.47,1.76,.66,1.76,1.44,1.76Z"/><path class="c" d="M189.19,151.53c1.77,0,3.03,.98,3.4,2.66h-2.31c-.18-.5-.53-.81-1.13-.81-.77,0-1.31,.61-1.31,1.79s.53,1.79,1.31,1.79c.6,0,.94-.29,1.13-.81h2.31c-.37,1.63-1.62,2.66-3.4,2.66-2.08,0-3.55-1.39-3.55-3.64s1.47-3.64,3.55-3.64Z"/><path class="c" d="M193.54,149.73c0-.66,.52-1.18,1.29-1.18s1.28,.52,1.28,1.18-.52,1.17-1.28,1.17-1.29-.52-1.29-1.17Zm.2,1.9h2.17v7.07h-2.17v-7.07Z"/><path class="c" d="M200.71,158.8c-2.08,0-3.65-1.39-3.65-3.64s1.61-3.64,3.68-3.64,3.68,1.4,3.68,3.64-1.62,3.64-3.7,3.64Zm0-1.88c.77,0,1.5-.57,1.5-1.76s-.71-1.76-1.47-1.76-1.47,.56-1.47,1.76,.66,1.76,1.44,1.76Z"/><path class="c" d="M208.71,158.8c-2.08,0-3.57-1.39-3.57-3.64s1.47-3.64,3.57-3.64,3.52,1.37,3.52,3.53c0,.2-.01,.42-.04,.63h-4.91c.08,.92,.65,1.36,1.34,1.36,.61,0,.95-.31,1.13-.69h2.31c-.34,1.38-1.6,2.45-3.36,2.45Zm-1.41-4.32h2.71c0-.77-.61-1.22-1.33-1.22s-1.25,.43-1.38,1.22Z"/><path class="c" d="M216.5,151.53c1.77,0,3.03,.98,3.4,2.66h-2.31c-.18-.5-.53-.81-1.13-.81-.77,0-1.31,.61-1.31,1.79s.53,1.79,1.31,1.79c.6,0,.94-.29,1.13-.81h2.31c-.37,1.63-1.62,2.66-3.4,2.66-2.08,0-3.55-1.39-3.55-3.64s1.47-3.64,3.55-3.64Z"/><path class="c" d="M224.27,158.8c-2.08,0-3.65-1.39-3.65-3.64s1.61-3.64,3.68-3.64,3.68,1.4,3.68,3.64-1.62,3.64-3.7,3.64Zm0-1.88c.77,0,1.5-.57,1.5-1.76s-.71-1.76-1.47-1.76-1.47,.56-1.47,1.76,.66,1.76,1.44,1.76Z"/><path class="c" d="M234.01,154.86c0-.96-.53-1.49-1.36-1.49s-1.36,.53-1.36,1.49v3.84h-2.17v-7.07h2.17v.94c.43-.6,1.19-1.01,2.14-1.01,1.63,0,2.73,1.11,2.73,3.02v4.13h-2.15v-3.84Z"/><path class="c" d="M240.89,158.8c-2.08,0-3.65-1.39-3.65-3.64s1.61-3.64,3.68-3.64,3.68,1.4,3.68,3.64-1.62,3.64-3.7,3.64Zm2.17-7.71l-1.96-1.04-1.96,1.04v-1.5l1.96-1,1.96,1v1.5Zm-2.17,5.83c.77,0,1.5-.57,1.5-1.76s-.71-1.76-1.47-1.76-1.47,.56-1.47,1.76,.66,1.76,1.44,1.76Z"/><path class="c" d="M255.5,154.86c0-.92-.53-1.43-1.36-1.43s-1.36,.51-1.36,1.43v3.84h-2.15v-3.84c0-.92-.53-1.43-1.36-1.43s-1.36,.51-1.36,1.43v3.84h-2.17v-7.07h2.17v.89c.42-.57,1.14-.96,2.07-.96,1.07,0,1.93,.47,2.41,1.32,.47-.75,1.36-1.32,2.38-1.32,1.75,0,2.88,1.11,2.88,3.02v4.13h-2.15v-3.84Z"/><path class="c" d="M258.98,149.73c0-.66,.52-1.18,1.29-1.18s1.28,.52,1.28,1.18-.52,1.17-1.28,1.17-1.29-.52-1.29-1.17Zm.2,1.9h2.17v7.07h-2.17v-7.07Z"/><path class="c" d="M266.04,151.53c1.77,0,3.03,.98,3.4,2.66h-2.31c-.18-.5-.53-.81-1.13-.81-.77,0-1.31,.61-1.31,1.79s.53,1.79,1.31,1.79c.6,0,.94-.29,1.13-.81h2.31c-.37,1.63-1.62,2.66-3.4,2.66-2.08,0-3.55-1.39-3.55-3.64s1.47-3.64,3.55-3.64Z"/><path class="c" d="M273.81,158.8c-2.08,0-3.65-1.39-3.65-3.64s1.61-3.64,3.68-3.64,3.68,1.4,3.68,3.64-1.62,3.64-3.7,3.64Zm0-1.88c.77,0,1.5-.57,1.5-1.76s-.71-1.76-1.47-1.76-1.47,.56-1.47,1.76,.66,1.76,1.44,1.76Z"/></g><g><path class="f" d="M314.9,46.74c0,3.52-2.43,5.93-6.22,5.93h-4.44v-11.86h4.44c3.79,0,6.22,2.4,6.22,5.93Zm-6.4,3.43c2.18,0,3.46-1.25,3.46-3.43s-1.28-3.46-3.46-3.46h-1.37v6.89h1.37Z"/><path class="f" d="M320.72,52.81c-2.77,0-4.77-1.86-4.77-4.85s1.96-4.85,4.77-4.85,4.7,1.82,4.7,4.7c0,.27-.02,.56-.05,.84h-6.54c.1,1.23,.86,1.81,1.79,1.81,.81,0,1.27-.4,1.5-.91h3.08c-.46,1.84-2.13,3.26-4.48,3.26Zm-1.88-5.76h3.62c0-1.03-.81-1.62-1.77-1.62s-1.67,.57-1.84,1.62Z"/><path class="f" d="M330.78,52.81c-2.52,0-4.21-1.4-4.34-3.23h2.86c.07,.66,.66,1.1,1.45,1.1,.74,0,1.13-.34,1.13-.76,0-1.52-5.14-.42-5.14-3.89,0-1.61,1.37-2.92,3.84-2.92s3.79,1.35,3.97,3.21h-2.67c-.08-.64-.57-1.07-1.39-1.07-.68,0-1.05,.27-1.05,.73,0,1.5,5.1,.44,5.15,3.95,0,1.64-1.45,2.87-3.82,2.87Z"/><path class="f" d="M340.54,43.11c2.37,0,4.04,1.3,4.53,3.55h-3.08c-.24-.66-.71-1.08-1.5-1.08-1.03,0-1.74,.81-1.74,2.38s.71,2.38,1.74,2.38c.79,0,1.25-.39,1.5-1.08h3.08c-.49,2.18-2.16,3.55-4.53,3.55-2.77,0-4.73-1.86-4.73-4.85s1.96-4.85,4.73-4.85Z"/><path class="f" d="M350.8,52.81c-2.77,0-4.77-1.86-4.77-4.85s1.96-4.85,4.77-4.85,4.7,1.82,4.7,4.7c0,.27-.02,.56-.05,.84h-6.54c.1,1.23,.86,1.81,1.79,1.81,.81,0,1.27-.4,1.5-.91h3.08c-.46,1.84-2.13,3.26-4.48,3.26Zm-1.88-5.76h3.62c0-1.03-.81-1.62-1.77-1.62s-1.67,.57-1.84,1.62Z"/><path class="f" d="M363.53,47.56c0-1.28-.71-1.99-1.81-1.99s-1.81,.71-1.81,1.99v5.12h-2.89v-9.43h2.89v1.25c.57-.79,1.59-1.35,2.86-1.35,2.18,0,3.63,1.49,3.63,4.02v5.51h-2.87v-5.12Z"/><path class="f" d="M368.88,45.65h-1.15v-2.4h1.15v-2.3h2.89v2.3h1.89v2.4h-1.89v3.79c0,.56,.24,.79,.88,.79h1.03v2.45h-1.47c-1.96,0-3.33-.83-3.33-3.28v-3.75Z"/><path class="f" d="M378.18,52.68h-2.89v-9.43h2.89v1.57c.66-1,1.69-1.67,2.96-1.67v3.06h-.79c-1.37,0-2.16,.47-2.16,2.1v4.38Z"/><path class="f" d="M386.11,43.11c1.4,0,2.4,.64,2.91,1.47v-1.34h2.89v9.43h-2.89v-1.34c-.52,.83-1.52,1.47-2.92,1.47-2.3,0-4.14-1.89-4.14-4.87s1.84-4.83,4.16-4.83Zm.84,2.52c-1.08,0-2.06,.81-2.06,2.32s.98,2.35,2.06,2.35,2.06-.83,2.06-2.33-.96-2.33-2.06-2.33Z"/><path class="f" d="M394,40.17h2.89v12.51h-2.89v-12.51Z"/><path class="f" d="M398.72,40.71c0-.88,.69-1.57,1.72-1.57s1.71,.69,1.71,1.57-.69,1.55-1.71,1.55-1.72-.69-1.72-1.55Zm.27,2.53h2.89v9.43h-2.89v-9.43Z"/><path class="f" d="M410.69,45.55l-4,4.75h4.09v2.38h-7.32v-2.3l3.92-4.75h-3.89v-2.38h7.2v2.3Z"/><path class="f" d="M415.95,43.11c1.4,0,2.4,.64,2.91,1.47v-1.34h2.89v9.43h-2.89v-1.34c-.52,.83-1.52,1.47-2.92,1.47-2.3,0-4.14-1.89-4.14-4.87s1.84-4.83,4.16-4.83Zm.84,2.52c-1.08,0-2.06,.81-2.06,2.32s.98,2.35,2.06,2.35,2.06-.83,2.06-2.33-.96-2.33-2.06-2.33Z"/><path class="f" d="M427.43,43.11c1.25,0,2.33,.57,2.91,1.44v-4.38h2.89v12.51h-2.89v-1.35c-.52,.86-1.52,1.49-2.91,1.49-2.31,0-4.16-1.89-4.16-4.87s1.84-4.83,4.16-4.83Zm.85,2.52c-1.08,0-2.06,.81-2.06,2.32s.98,2.35,2.06,2.35,2.06-.83,2.06-2.33-.96-2.33-2.06-2.33Z"/><path class="f" d="M438.91,43.11c1.4,0,2.4,.64,2.91,1.47v-1.34h2.89v9.43h-2.89v-1.34c-.52,.83-1.52,1.47-2.92,1.47-2.3,0-4.14-1.89-4.14-4.87s1.84-4.83,4.16-4.83Zm.85,2.52c-1.08,0-2.06,.81-2.06,2.32s.98,2.35,2.06,2.35,2.06-.83,2.06-2.33-.96-2.33-2.06-2.33Z"/></g><g><path class="f" d="M511.82,14.6h-1.79v4.26h-2.89V7h4.68c2.91,0,4.36,1.64,4.36,3.82,0,1.96-1.34,3.79-4.36,3.79Zm-.22-2.3c1.15,0,1.64-.57,1.64-1.49s-.49-1.49-1.64-1.49h-1.57v2.97h1.57Z"/><path class="f" d="M521.98,19c-2.77,0-4.87-1.86-4.87-4.85s2.15-4.85,4.9-4.85,4.9,1.86,4.9,4.85-2.16,4.85-4.94,4.85Zm0-2.5c1.03,0,2-.76,2-2.35s-.95-2.35-1.96-2.35-1.96,.74-1.96,2.35,.88,2.35,1.93,2.35Z"/><path class="f" d="M528.92,11.83h-1.15v-2.4h1.15v-2.3h2.89v2.3h1.89v2.4h-1.89v3.79c0,.56,.24,.79,.88,.79h1.03v2.45h-1.47c-1.96,0-3.33-.83-3.33-3.28v-3.75Z"/><path class="f" d="M539.52,19c-2.77,0-4.77-1.86-4.77-4.85s1.96-4.85,4.77-4.85,4.7,1.82,4.7,4.7c0,.27-.02,.56-.05,.84h-6.54c.1,1.23,.86,1.81,1.79,1.81,.81,0,1.27-.4,1.5-.91h3.08c-.46,1.84-2.13,3.26-4.48,3.26Zm-1.87-5.76h3.62c0-1.03-.81-1.62-1.78-1.62s-1.67,.57-1.84,1.62Z"/><path class="f" d="M552.25,13.74c0-1.28-.71-1.99-1.81-1.99s-1.81,.71-1.81,1.99v5.12h-2.89V9.43h2.89v1.25c.57-.79,1.59-1.35,2.86-1.35,2.18,0,3.63,1.49,3.63,4.02v5.51h-2.87v-5.12Z"/><path class="f" d="M561.3,9.29c2.37,0,4.04,1.3,4.53,3.55h-3.08c-.24-.66-.71-1.08-1.5-1.08-1.03,0-1.74,.81-1.74,2.38s.71,2.38,1.74,2.38c.79,0,1.25-.39,1.5-1.08h3.08c-.49,2.18-2.16,3.55-4.53,3.55-2.77,0-4.73-1.86-4.73-4.85s1.96-4.85,4.73-4.85Z"/><path class="f" d="M567.1,6.89c0-.88,.69-1.57,1.72-1.57s1.71,.69,1.71,1.57-.69,1.55-1.71,1.55-1.72-.69-1.72-1.55Zm.27,2.53h2.89v9.43h-2.89V9.43Z"/><path class="f" d="M575.94,9.29c1.4,0,2.4,.64,2.91,1.47v-1.34h2.89v9.43h-2.89v-1.34c-.52,.83-1.52,1.47-2.92,1.47-2.3,0-4.14-1.89-4.14-4.87s1.84-4.83,4.16-4.83Zm.84,2.52c-1.08,0-2.06,.81-2.06,2.32s.98,2.35,2.06,2.35,2.06-.83,2.06-2.33-.96-2.33-2.06-2.33Z"/><path class="f" d="M583.84,6.35h2.89v12.51h-2.89V6.35Z"/><path class="f" d="M588.55,6.89c0-.88,.69-1.57,1.72-1.57s1.71,.69,1.71,1.57-.69,1.55-1.71,1.55-1.72-.69-1.72-1.55Zm.27,2.53h2.89v9.43h-2.89V9.43Z"/><path class="f" d="M597.4,9.29c1.25,0,2.33,.57,2.91,1.44V6.35h2.89v12.51h-2.89v-1.35c-.52,.86-1.52,1.49-2.91,1.49-2.32,0-4.16-1.89-4.16-4.87s1.84-4.83,4.16-4.83Zm.84,2.52c-1.08,0-2.06,.81-2.06,2.32s.98,2.35,2.06,2.35,2.06-.83,2.06-2.33-.96-2.33-2.06-2.33Z"/><path class="f" d="M608.88,9.29c1.4,0,2.4,.64,2.91,1.47v-1.34h2.89v9.43h-2.89v-1.34c-.52,.83-1.52,1.47-2.92,1.47-2.3,0-4.14-1.89-4.14-4.87s1.84-4.83,4.16-4.83Zm.84,2.52c-1.08,0-2.06,.81-2.06,2.32s.98,2.35,2.06,2.35,2.06-.83,2.06-2.33-.96-2.33-2.06-2.33Z"/><path class="f" d="M620.36,9.29c1.25,0,2.33,.57,2.91,1.44V6.35h2.89v12.51h-2.89v-1.35c-.52,.86-1.52,1.49-2.91,1.49-2.32,0-4.16-1.89-4.16-4.87s1.84-4.83,4.16-4.83Zm.84,2.52c-1.08,0-2.06,.81-2.06,2.32s.98,2.35,2.06,2.35,2.06-.83,2.06-2.33-.96-2.33-2.06-2.33Z"/><path class="f" d="M632.44,19c-2.77,0-4.77-1.86-4.77-4.85s1.96-4.85,4.77-4.85,4.7,1.82,4.7,4.7c0,.27-.02,.56-.05,.84h-6.54c.1,1.23,.86,1.81,1.79,1.81,.81,0,1.27-.4,1.5-.91h3.08c-.46,1.84-2.13,3.26-4.48,3.26Zm-1.88-5.76h3.62c0-1.03-.81-1.62-1.77-1.62s-1.67,.57-1.84,1.62Z"/><path class="f" d="M642.5,19c-2.52,0-4.21-1.4-4.34-3.23h2.86c.07,.66,.66,1.1,1.45,1.1,.74,0,1.13-.34,1.13-.76,0-1.52-5.14-.42-5.14-3.89,0-1.61,1.37-2.92,3.84-2.92s3.79,1.35,3.97,3.21h-2.67c-.08-.64-.57-1.07-1.38-1.07-.68,0-1.05,.27-1.05,.73,0,1.5,5.1,.44,5.16,3.95,0,1.64-1.46,2.87-3.82,2.87Z"/></g><g><path class="c" d="M224.7,29.41c0,2.64-1.83,4.45-4.66,4.45h-3.33v-8.9h3.33c2.84,0,4.66,1.8,4.66,4.45Zm-4.8,2.57c1.64,0,2.6-.94,2.6-2.57s-.96-2.6-2.6-2.6h-1.03v5.17h1.03Z"/><path class="c" d="M229.06,33.96c-2.08,0-3.57-1.39-3.57-3.64s1.47-3.64,3.57-3.64,3.52,1.37,3.52,3.53c0,.2-.01,.42-.04,.63h-4.91c.08,.92,.65,1.36,1.34,1.36,.61,0,.95-.31,1.13-.69h2.31c-.34,1.38-1.6,2.45-3.36,2.45Zm-1.41-4.32h2.71c0-.77-.61-1.22-1.33-1.22s-1.25,.43-1.38,1.22Z"/><path class="c" d="M234.07,28.59h-.86v-1.8h.86v-1.73h2.17v1.73h1.42v1.8h-1.42v2.84c0,.42,.18,.6,.66,.6h.77v1.84h-1.1c-1.47,0-2.5-.62-2.5-2.46v-2.81Z"/><path class="c" d="M242.02,33.96c-2.08,0-3.57-1.39-3.57-3.64s1.47-3.64,3.57-3.64,3.52,1.37,3.52,3.53c0,.2-.01,.42-.04,.63h-4.91c.08,.92,.65,1.36,1.34,1.36,.61,0,.95-.31,1.13-.69h2.31c-.34,1.38-1.6,2.45-3.36,2.45Zm-1.41-4.32h2.71c0-.77-.61-1.22-1.33-1.22s-1.25,.43-1.38,1.22Z"/><path class="c" d="M248.86,33.86h-2.17v-7.07h2.17v1.18c.49-.75,1.27-1.25,2.22-1.25v2.29h-.6c-1.03,0-1.62,.36-1.62,1.57v3.28Z"/><path class="c" d="M261.86,30.02c0-.92-.53-1.43-1.36-1.43s-1.36,.51-1.36,1.43v3.84h-2.15v-3.84c0-.92-.53-1.43-1.36-1.43s-1.36,.51-1.36,1.43v3.84h-2.17v-7.07h2.17v.89c.42-.57,1.14-.96,2.07-.96,1.07,0,1.93,.47,2.41,1.32,.47-.75,1.36-1.32,2.38-1.32,1.75,0,2.88,1.11,2.88,3.02v4.13h-2.15v-3.84Z"/><path class="c" d="M265.34,24.89c0-.66,.52-1.18,1.29-1.18s1.28,.52,1.28,1.18-.52,1.17-1.28,1.17-1.29-.52-1.29-1.17Zm.2,1.9h2.17v7.07h-2.17v-7.07Z"/><path class="c" d="M274.17,30.02c0-.96-.53-1.49-1.36-1.49s-1.36,.53-1.36,1.49v3.84h-2.17v-7.07h2.17v.94c.43-.6,1.19-1.01,2.14-1.01,1.63,0,2.73,1.11,2.73,3.02v4.13h-2.15v-3.84Z"/><path class="c" d="M280.52,26.69c1.05,0,1.8,.48,2.18,1.1v-1h2.17v7.07h-2.17v-1c-.39,.62-1.14,1.1-2.19,1.1-1.72,0-3.11-1.42-3.11-3.65s1.38-3.63,3.12-3.63Zm.63,1.89c-.81,0-1.55,.61-1.55,1.74s.73,1.76,1.55,1.76,1.55-.62,1.55-1.75-.72-1.75-1.55-1.75Z"/><path class="c" d="M291.32,30.02c0-.96-.53-1.49-1.36-1.49s-1.36,.53-1.36,1.49v3.84h-2.17v-7.07h2.17v.94c.43-.6,1.19-1.01,2.14-1.01,1.63,0,2.73,1.11,2.73,3.02v4.13h-2.15v-3.84Z"/><path class="c" d="M295.33,28.59h-.86v-1.8h.86v-1.73h2.17v1.73h1.42v1.8h-1.42v2.84c0,.42,.18,.6,.66,.6h.77v1.84h-1.1c-1.47,0-2.5-.62-2.5-2.46v-2.81Z"/><path class="c" d="M303.28,33.96c-2.08,0-3.57-1.39-3.57-3.64s1.47-3.64,3.57-3.64,3.52,1.37,3.52,3.53c0,.2-.01,.42-.04,.63h-4.91c.08,.92,.65,1.36,1.34,1.36,.61,0,.95-.31,1.13-.69h2.31c-.34,1.38-1.6,2.45-3.36,2.45Zm-1.41-4.32h2.71c0-.77-.61-1.22-1.33-1.22s-1.25,.43-1.38,1.22Z"/><path class="c" d="M310.83,33.96c-1.89,0-3.16-1.05-3.26-2.42h2.14c.05,.5,.49,.82,1.09,.82,.56,0,.85-.25,.85-.57,0-1.14-3.85-.32-3.85-2.91,0-1.21,1.03-2.19,2.88-2.19s2.84,1.02,2.98,2.41h-2c-.06-.48-.43-.8-1.04-.8-.51,0-.79,.2-.79,.54,0,1.13,3.83,.33,3.87,2.97,0,1.23-1.09,2.15-2.86,2.15Z"/></g><g><path class="c" d="M506.4,25.85h6.88v1.74h-2.36v7.16h-2.17v-7.16h-2.36v-1.74Z"/><path class="c" d="M516.54,34.75h-2.17v-7.07h2.17v1.18c.49-.75,1.27-1.25,2.22-1.25v2.29h-.59c-1.03,0-1.62,.36-1.62,1.57v3.28Z"/><path class="c" d="M522.49,27.58c1.05,0,1.8,.48,2.18,1.1v-1h2.17v7.07h-2.17v-1c-.39,.62-1.14,1.1-2.19,1.1-1.72,0-3.11-1.42-3.11-3.65s1.38-3.63,3.12-3.63Zm.63,1.89c-.81,0-1.55,.61-1.55,1.74s.73,1.76,1.55,1.76,1.55-.62,1.55-1.75-.72-1.75-1.55-1.75Z"/><path class="c" d="M532.76,27.58c1.75,0,3.12,1.4,3.12,3.63s-1.38,3.65-3.12,3.65c-1.04,0-1.79-.47-2.18-1.09v.99h-2.17v-9.38h2.17v3.31c.39-.63,1.16-1.1,2.18-1.1Zm-.65,1.89c-.81,0-1.55,.62-1.55,1.75s.74,1.75,1.55,1.75,1.56-.63,1.56-1.76-.73-1.74-1.56-1.74Z"/><path class="c" d="M539.71,27.58c1.05,0,1.8,.48,2.18,1.1v-1h2.17v7.07h-2.17v-1c-.39,.62-1.14,1.1-2.19,1.1-1.72,0-3.11-1.42-3.11-3.65s1.38-3.63,3.12-3.63Zm.63,1.89c-.81,0-1.55,.61-1.55,1.74s.73,1.76,1.55,1.76,1.55-.62,1.55-1.75-.72-1.75-1.55-1.75Z"/><path class="c" d="M545.63,25.37h2.17v9.38h-2.17v-9.38Z"/><path class="c" d="M549.37,25.37h2.17v3.26c.43-.61,1.2-1.03,2.18-1.03,1.61,0,2.69,1.11,2.69,3.02v4.13h-2.15v-3.84c0-.96-.53-1.49-1.36-1.49s-1.36,.53-1.36,1.49v3.84h-2.17v-9.38Z"/><path class="c" d="M560.61,27.58c1.05,0,1.8,.48,2.18,1.1v-1h2.17v7.07h-2.17v-1c-.39,.62-1.14,1.1-2.19,1.1-1.72,0-3.11-1.42-3.11-3.65s1.38-3.63,3.12-3.63Zm.63,1.89c-.81,0-1.55,.61-1.55,1.74s.73,1.76,1.55,1.76,1.55-.62,1.55-1.75-.72-1.75-1.55-1.75Z"/><path class="c" d="M569.22,27.58c.94,0,1.75,.43,2.18,1.08v-3.28h2.17v9.38h-2.17v-1.01c-.39,.65-1.14,1.11-2.18,1.11-1.74,0-3.12-1.42-3.12-3.65s1.38-3.63,3.12-3.63Zm.63,1.89c-.81,0-1.55,.61-1.55,1.74s.73,1.76,1.55,1.76,1.55-.62,1.55-1.75-.72-1.75-1.55-1.75Z"/><path class="c" d="M578.36,34.85c-2.08,0-3.65-1.39-3.65-3.64s1.61-3.64,3.68-3.64,3.68,1.4,3.68,3.64-1.62,3.64-3.7,3.64Zm0-1.88c.77,0,1.49-.57,1.49-1.76s-.71-1.76-1.47-1.76-1.47,.56-1.47,1.76,.66,1.76,1.44,1.76Z"/><path class="c" d="M585.39,34.75h-2.17v-7.07h2.17v1.18c.49-.75,1.27-1.25,2.22-1.25v2.29h-.59c-1.03,0-1.62,.36-1.62,1.57v3.28Z"/><path class="c" d="M591.79,34.85c-2.08,0-3.57-1.39-3.57-3.64s1.47-3.64,3.57-3.64,3.52,1.37,3.52,3.53c0,.2-.01,.42-.04,.63h-4.91c.08,.92,.65,1.36,1.34,1.36,.61,0,.95-.31,1.13-.69h2.31c-.34,1.38-1.6,2.45-3.36,2.45Zm-1.41-4.32h2.71c0-.77-.61-1.22-1.33-1.22s-1.25,.43-1.38,1.22Z"/><path class="c" d="M599.33,34.85c-1.89,0-3.16-1.05-3.26-2.42h2.14c.05,.5,.49,.82,1.09,.82,.56,0,.85-.25,.85-.57,0-1.14-3.85-.32-3.85-2.91,0-1.21,1.03-2.19,2.88-2.19s2.84,1.02,2.98,2.41h-2c-.06-.48-.43-.8-1.04-.8-.51,0-.79,.2-.79,.54,0,1.13,3.83,.33,3.87,2.97,0,1.23-1.09,2.15-2.86,2.15Z"/></g><g><path class="d" d="M351.7,4.34h-3.28v1.8h2.9v1.67h-2.9v1.95h3.28v1.74h-5.45V2.61h5.45v1.74Z"/><path class="d" d="M355.91,4.36c.92,0,1.63,.36,2.07,.89v-.81h2.17V14.87h-2.17v-4.26c-.46,.56-1.15,.98-2.09,.98-1.74,0-3.21-1.46-3.21-3.61s1.47-3.62,3.23-3.62Zm.52,1.88c-.72,0-1.55,.56-1.55,1.75s.82,1.74,1.55,1.74,1.55-.56,1.55-1.75-.81-1.74-1.55-1.74Z"/><path class="d" d="M368.7,11.5h-2.17v-.96c-.43,.61-1.19,1.04-2.14,1.04-1.64,0-2.74-1.13-2.74-3.02V4.43h2.15v3.84c0,.96,.54,1.5,1.36,1.5s1.37-.53,1.37-1.5v-3.84h2.17v7.07Z"/><path class="d" d="M370.06,2.53c0-.66,.52-1.18,1.29-1.18s1.28,.52,1.28,1.18-.52,1.17-1.28,1.17-1.29-.52-1.29-1.17Zm.2,1.9h2.17v7.07h-2.17V4.43Z"/><path class="d" d="M378.35,4.33c1.74,0,3.12,1.4,3.12,3.63s-1.38,3.65-3.12,3.65c-1.04,0-1.79-.49-2.18-1.09v4.36h-2.17V4.43h2.17v1c.39-.62,1.14-1.1,2.18-1.1Zm-.65,1.89c-.81,0-1.55,.62-1.55,1.75s.74,1.75,1.55,1.75,1.56-.63,1.56-1.76-.73-1.74-1.56-1.74Z"/><path class="d" d="M385.76,11.6c-2.08,0-3.57-1.39-3.57-3.64s1.47-3.64,3.57-3.64,3.52,1.37,3.52,3.53c0,.2-.01,.42-.04,.63h-4.91c.08,.92,.65,1.36,1.34,1.36,.61,0,.95-.31,1.13-.69h2.31c-.34,1.38-1.6,2.45-3.36,2.45Zm-1.41-4.32h2.71c0-.77-.61-1.22-1.33-1.22s-1.25,.43-1.38,1.22Z"/><path class="d" d="M393.31,11.6c-1.89,0-3.16-1.05-3.26-2.42h2.14c.05,.5,.49,.82,1.09,.82,.56,0,.85-.25,.85-.57,0-1.14-3.85-.32-3.85-2.91,0-1.21,1.03-2.19,2.88-2.19s2.84,1.02,2.98,2.41h-2c-.06-.48-.43-.8-1.04-.8-.51,0-.79,.2-.79,.54,0,1.13,3.83,.33,3.87,2.97,0,1.23-1.09,2.15-2.86,2.15Z"/></g><g><path class="d" d="M286.35,156.26h-1.34v3.19h-2.17v-8.9h3.51c2.18,0,3.27,1.23,3.27,2.86,0,1.47-1,2.84-3.27,2.84Zm-.16-1.73c.86,0,1.23-.43,1.23-1.11s-.37-1.11-1.23-1.11h-1.18v2.23h1.18Z"/><path class="d" d="M293.97,159.55c-2.08,0-3.65-1.39-3.65-3.64s1.61-3.64,3.68-3.64,3.68,1.4,3.68,3.64-1.62,3.64-3.7,3.64Zm0-1.88c.77,0,1.5-.57,1.5-1.76s-.71-1.76-1.47-1.76-1.47,.56-1.47,1.76,.66,1.76,1.44,1.76Z"/><path class="d" d="M303.18,152.28c1.74,0,3.12,1.4,3.12,3.63s-1.38,3.65-3.12,3.65c-1.04,0-1.79-.49-2.18-1.09v4.36h-2.17v-10.44h2.17v1c.39-.62,1.14-1.1,2.18-1.1Zm-.65,1.89c-.81,0-1.55,.62-1.55,1.75s.74,1.75,1.55,1.75,1.56-.63,1.56-1.76-.73-1.74-1.56-1.74Z"/><path class="d" d="M314.42,159.45h-2.17v-.96c-.43,.61-1.19,1.04-2.14,1.04-1.63,0-2.74-1.13-2.74-3.02v-4.13h2.15v3.84c0,.96,.54,1.5,1.36,1.5s1.37-.53,1.37-1.5v-3.84h2.17v7.07Z"/><path class="d" d="M315.99,150.07h2.17v9.38h-2.17v-9.38Z"/><path class="d" d="M322.42,152.28c1.05,0,1.8,.48,2.18,1.1v-1h2.17v7.07h-2.17v-1c-.39,.62-1.14,1.1-2.19,1.1-1.72,0-3.11-1.42-3.11-3.65s1.38-3.63,3.12-3.63Zm.63,1.89c-.81,0-1.55,.61-1.55,1.74s.73,1.76,1.55,1.76,1.55-.62,1.55-1.75-.72-1.75-1.55-1.75Z"/><path class="d" d="M331.46,152.28c1.77,0,3.03,.98,3.4,2.66h-2.31c-.18-.5-.53-.81-1.13-.81-.77,0-1.31,.61-1.31,1.79s.53,1.79,1.31,1.79c.6,0,.94-.29,1.13-.81h2.31c-.32,1.43-1.33,2.39-2.76,2.61v.47c.76,0,1.65,.39,1.65,1.44s-.89,1.47-1.76,1.47h-1.95v-1.19h1.66c.32,0,.51-.08,.51-.33,0-.24-.19-.32-.51-.32h-.9v-1.55c-1.71-.27-2.88-1.6-2.88-3.59,0-2.23,1.47-3.64,3.55-3.64Z"/><path class="d" d="M338.7,152.28c1.05,0,1.8,.48,2.18,1.1v-1h2.17v7.07h-2.17v-1c-.39,.62-1.14,1.1-2.19,1.1-1.72,0-3.11-1.42-3.11-3.65s1.38-3.63,3.12-3.63Zm.09-2.37c.76,0,1.15,.57,1.66,.57,.29,0,.49-.18,.54-.57h1.12c-.22,1.33-.86,1.88-1.75,1.88-.76,0-1.15-.57-1.66-.57-.29,0-.49,.18-.56,.57h-1.1c.22-1.33,.85-1.88,1.75-1.88Zm.54,4.26c-.81,0-1.55,.61-1.55,1.74s.73,1.76,1.55,1.76,1.55-.62,1.55-1.75-.72-1.75-1.55-1.75Z"/><path class="d" d="M347.84,159.55c-2.08,0-3.65-1.39-3.65-3.64s1.61-3.64,3.68-3.64,3.68,1.4,3.68,3.64-1.62,3.64-3.7,3.64Zm0-1.88c.77,0,1.5-.57,1.5-1.76s-.71-1.76-1.47-1.76-1.47,.56-1.47,1.76,.66,1.76,1.44,1.76Z"/></g><g><path class="c" d="M438.24,176.45c-1.91,0-3.41-.95-3.47-2.75h2.31c.06,.69,.5,1.02,1.1,1.02s1.04-.32,1.04-.84c0-1.65-4.45-.76-4.42-3.92,0-1.69,1.38-2.62,3.24-2.62s3.24,.96,3.33,2.66h-2.34c-.04-.57-.44-.91-1.03-.92-.52-.01-.91,.25-.91,.81,0,1.55,4.4,.85,4.4,3.83,0,1.49-1.17,2.74-3.24,2.74Z"/><path class="c" d="M445.5,169.19c1.05,0,1.8,.48,2.18,1.1v-1h2.17v7.07h-2.17v-1c-.39,.62-1.14,1.1-2.19,1.1-1.72,0-3.11-1.42-3.11-3.65s1.38-3.63,3.12-3.63Zm.63,1.89c-.81,0-1.55,.61-1.55,1.74s.73,1.76,1.55,1.76,1.55-.62,1.55-1.75-.72-1.75-1.55-1.75Z"/><path class="c" d="M458.41,176.36h-2.17v-.96c-.43,.61-1.19,1.04-2.14,1.04-1.63,0-2.74-1.13-2.74-3.02v-4.13h2.15v3.84c0,.96,.54,1.5,1.36,1.5s1.37-.53,1.37-1.5v-3.84h2.17v7.07Zm-2.01-10.52v1.69l-3.05,1.28v-1.49l3.05-1.47Z"/><path class="c" d="M462.66,169.19c.94,0,1.75,.43,2.18,1.08v-3.28h2.17v9.38h-2.17v-1.01c-.39,.65-1.14,1.11-2.18,1.11-1.74,0-3.12-1.42-3.12-3.65s1.38-3.63,3.12-3.63Zm.63,1.89c-.81,0-1.55,.61-1.55,1.74s.73,1.76,1.55,1.76,1.55-.62,1.55-1.75-.72-1.75-1.55-1.75Z"/><path class="c" d="M471.73,176.46c-2.08,0-3.57-1.39-3.57-3.64s1.47-3.64,3.57-3.64,3.52,1.37,3.52,3.53c0,.2-.01,.42-.04,.63h-4.91c.08,.92,.65,1.36,1.34,1.36,.61,0,.95-.31,1.13-.69h2.31c-.34,1.38-1.6,2.45-3.36,2.45Zm-1.41-4.32h2.71c0-.77-.61-1.22-1.33-1.22s-1.25,.43-1.38,1.22Z"/></g><g><path class="e" d="M275.68,176.79h-6.64l-1.06,3.14h-4.54l6.44-17.79h5.02l6.44,17.79h-4.59l-1.06-3.14Zm-3.32-9.86l-2.18,6.51h4.39l-2.21-6.51Z"/><path class="e" d="M291.99,165.59c3.47,0,6.24,2.79,6.24,7.25s-2.76,7.3-6.24,7.3c-2.08,0-3.57-.99-4.36-2.18v8.72h-4.33v-20.89h4.33v2c.79-1.24,2.28-2.2,4.36-2.2Zm-1.29,3.78c-1.62,0-3.09,1.24-3.09,3.5s1.47,3.5,3.09,3.5,3.12-1.27,3.12-3.52-1.47-3.47-3.12-3.47Z"/><path class="e" d="M304.85,179.94h-4.33v-14.14h4.33v2.36c.99-1.49,2.53-2.51,4.44-2.51v4.59h-1.19c-2.05,0-3.24,.71-3.24,3.14v6.57Z"/><path class="e" d="M317.81,180.14c-4.16,0-7.3-2.79-7.3-7.27s3.22-7.28,7.35-7.28,7.35,2.79,7.35,7.28-3.24,7.27-7.4,7.27Zm0-3.75c1.55,0,2.99-1.14,2.99-3.52s-1.42-3.53-2.94-3.53-2.94,1.12-2.94,3.53,1.32,3.52,2.89,3.52Z"/><path class="e" d="M336.22,165.59c3.47,0,6.24,2.79,6.24,7.25s-2.76,7.3-6.24,7.3c-2.08,0-3.57-.99-4.36-2.18v8.72h-4.33v-20.89h4.33v2c.79-1.24,2.28-2.2,4.36-2.2Zm-1.29,3.78c-1.62,0-3.09,1.24-3.09,3.5s1.47,3.5,3.09,3.5,3.12-1.27,3.12-3.52-1.47-3.47-3.12-3.47Z"/><path class="e" d="M349.09,179.94h-4.33v-14.14h4.33v2.36c.99-1.49,2.53-2.51,4.44-2.51v4.59h-1.19c-2.05,0-3.24,.71-3.24,3.14v6.57Z"/><path class="e" d="M355.2,161.99c0-1.32,1.04-2.36,2.59-2.36s2.56,1.04,2.56,2.36-1.04,2.33-2.56,2.33-2.59-1.04-2.59-2.33Zm.41,3.8h4.33v14.14h-4.33v-14.14Z"/><path class="e" d="M368.46,165.59c2.1,0,3.6,.96,4.36,2.2v-2h4.33v14.14h-4.33v-2c-.79,1.24-2.28,2.2-4.39,2.2-3.45,0-6.21-2.84-6.21-7.3s2.76-7.25,6.24-7.25Zm1.27,3.78c-1.62,0-3.09,1.22-3.09,3.47s1.47,3.52,3.09,3.52,3.09-1.24,3.09-3.5-1.44-3.5-3.09-3.5Z"/><path class="e" d="M386.55,165.59c3.55,0,6.06,1.95,6.79,5.32h-4.61c-.36-.99-1.07-1.62-2.26-1.62-1.55,0-2.61,1.22-2.61,3.57s1.07,3.57,2.61,3.57c1.19,0,1.88-.58,2.26-1.62h4.61c-.63,2.86-2.66,4.79-5.53,5.22v.94c1.52,0,3.29,.78,3.29,2.89s-1.77,2.94-3.52,2.94h-3.9v-2.38h3.32c.63,0,1.01-.15,1.01-.66,0-.48-.38-.63-1.01-.63h-1.8v-3.09c-3.42-.53-5.75-3.19-5.75-7.17,0-4.46,2.94-7.28,7.1-7.28Z"/><path class="e" d="M401.03,165.59c2.1,0,3.6,.96,4.36,2.2v-2h4.34v14.14h-4.34v-2c-.78,1.24-2.28,2.2-4.38,2.2-3.45,0-6.21-2.84-6.21-7.3s2.76-7.25,6.24-7.25Zm.18-4.74c1.52,0,2.31,1.14,3.32,1.14,.58,0,.99-.36,1.09-1.14h2.23c-.43,2.66-1.72,3.75-3.5,3.75-1.52,0-2.31-1.14-3.32-1.14-.58,0-.99,.36-1.11,1.14h-2.21c.43-2.66,1.7-3.75,3.5-3.75Zm1.09,8.52c-1.62,0-3.09,1.22-3.09,3.47s1.47,3.52,3.09,3.52,3.09-1.24,3.09-3.5-1.44-3.5-3.09-3.5Z"/><path class="e" d="M419.31,180.14c-4.16,0-7.3-2.79-7.3-7.27s3.22-7.28,7.35-7.28,7.35,2.79,7.35,7.28-3.24,7.27-7.4,7.27Zm0-3.75c1.55,0,2.99-1.14,2.99-3.52s-1.42-3.53-2.94-3.53-2.94,1.12-2.94,3.53,1.32,3.52,2.89,3.52Z"/></g><g><path class="e" d="M178.04,54.88c-3.83,0-6.82-1.9-6.95-5.5h4.61c.13,1.37,.99,2.03,2.21,2.03s2.08-.63,2.08-1.67c0-3.3-8.9-1.52-8.85-7.83,0-3.37,2.76-5.25,6.49-5.25s6.49,1.93,6.67,5.32h-4.69c-.08-1.14-.89-1.82-2.05-1.85-1.04-.02-1.82,.51-1.82,1.62,0,3.09,8.8,1.7,8.8,7.66,0,2.99-2.33,5.48-6.49,5.48Z"/><path class="e" d="M192.58,40.36c2.1,0,3.6,.96,4.36,2.2v-2h4.33v14.14h-4.33v-2c-.79,1.24-2.28,2.2-4.39,2.2-3.45,0-6.21-2.84-6.21-7.3s2.76-7.25,6.24-7.25Zm1.27,3.78c-1.62,0-3.09,1.22-3.09,3.47s1.47,3.52,3.09,3.52,3.09-1.24,3.09-3.5-1.44-3.5-3.09-3.5Z"/><path class="e" d="M214.18,47.03c0-1.93-1.06-2.99-2.71-2.99s-2.71,1.06-2.71,2.99v7.68h-4.33v-14.14h4.33v1.88c.86-1.19,2.38-2.03,4.28-2.03,3.27,0,5.45,2.23,5.45,6.03v8.26h-4.31v-7.68Z"/><path class="e" d="M221.11,36.76c0-1.32,1.04-2.36,2.59-2.36s2.56,1.04,2.56,2.36-1.04,2.33-2.56,2.33-2.59-1.04-2.59-2.33Zm.41,3.8h4.33v14.14h-4.33v-14.14Z"/><path class="e" d="M229.69,44.16h-1.72v-3.6h1.72v-3.45h4.33v3.45h2.84v3.6h-2.84v5.68c0,.84,.36,1.19,1.32,1.19h1.55v3.68h-2.21c-2.94,0-4.99-1.24-4.99-4.92v-5.63Z"/><path class="e" d="M244.67,40.36c2.1,0,3.6,.96,4.36,2.2v-2h4.33v14.14h-4.33v-2c-.79,1.24-2.28,2.2-4.39,2.2-3.45,0-6.21-2.84-6.21-7.3s2.76-7.25,6.24-7.25Zm1.27,3.78c-1.62,0-3.09,1.22-3.09,3.47s1.47,3.52,3.09,3.52,3.09-1.24,3.09-3.5-1.44-3.5-3.09-3.5Zm3.42-10.47v3.37l-6.11,2.56v-2.99l6.11-2.94Z"/><path class="e" d="M260.86,54.71h-4.33v-14.14h4.33v2.36c.99-1.49,2.53-2.51,4.44-2.51v4.59h-1.19c-2.05,0-3.24,.71-3.24,3.14v6.57Z"/><path class="e" d="M266.97,36.76c0-1.32,1.04-2.36,2.59-2.36s2.56,1.04,2.56,2.36-1.04,2.33-2.56,2.33-2.59-1.04-2.59-2.33Zm.41,3.8h4.33v14.14h-4.33v-14.14Z"/><path class="e" d="M281.3,54.91c-4.16,0-7.3-2.79-7.3-7.27s3.22-7.28,7.35-7.28,7.35,2.79,7.35,7.28-3.24,7.27-7.4,7.27Zm0-3.75c1.55,0,2.99-1.14,2.99-3.52s-1.42-3.53-2.94-3.53-2.94,1.12-2.94,3.53,1.32,3.52,2.89,3.52Z"/></g><g><path class="g" d="M318.9,10.69h20.66v5.21h-7.08v21.5h-6.51V15.91h-7.08v-5.21Z"/><path class="g" d="M352.27,37.71c-6.24,0-10.73-4.19-10.73-10.92s4.41-10.92,10.73-10.92,10.58,4.11,10.58,10.58c0,.61-.04,1.25-.11,1.9h-14.73c.23,2.78,1.94,4.07,4.03,4.07,1.83,0,2.85-.91,3.39-2.06h6.93c-1.03,4.15-4.79,7.35-10.08,7.35Zm-4.22-12.98h8.14c0-2.32-1.83-3.65-4-3.65s-3.77,1.29-4.15,3.65Z"/><path class="g" d="M372.77,37.41h-6.51V16.17h6.51v3.54c1.48-2.24,3.81-3.77,6.66-3.77v6.89h-1.79c-3.08,0-4.87,1.07-4.87,4.72v9.86Z"/><path class="g" d="M389.05,37.41h-6.51V16.17h6.51v3.54c1.48-2.24,3.81-3.77,6.66-3.77v6.89h-1.79c-3.08,0-4.87,1.07-4.87,4.72v9.86Z"/><path class="g" d="M398.22,10.46c0-1.98,1.56-3.54,3.88-3.54s3.84,1.56,3.84,3.54-1.56,3.5-3.84,3.5-3.88-1.56-3.88-3.5Zm.61,5.71h6.51v21.23h-6.51V16.17Z"/><path class="g" d="M411.08,21.58h-2.59v-5.4h2.59v-5.18h6.51v5.18h4.26v5.4h-4.26v8.52c0,1.25,.53,1.79,1.98,1.79h2.32v5.52h-3.31c-4.41,0-7.5-1.86-7.5-7.38v-8.45Z"/><path class="g" d="M435.16,37.71c-6.24,0-10.96-4.19-10.96-10.92s4.83-10.92,11.04-10.92,11.04,4.19,11.04,10.92-4.87,10.92-11.11,10.92Zm0-5.63c2.32,0,4.49-1.71,4.49-5.29s-2.13-5.29-4.42-5.29-4.41,1.67-4.41,5.29,1.98,5.29,4.34,5.29Zm5.02-26.41v5.06l-9.17,3.84v-4.49l9.17-4.42Z"/><path class="g" d="M456.24,37.41h-6.51V16.17h6.51v3.54c1.48-2.24,3.81-3.77,6.66-3.77v6.89h-1.79c-3.08,0-4.87,1.07-4.87,4.72v9.86Z"/><path class="g" d="M465.41,10.46c0-1.98,1.56-3.54,3.88-3.54s3.84,1.56,3.84,3.54-1.56,3.5-3.84,3.5-3.88-1.56-3.88-3.5Zm.61,5.71h6.51v21.23h-6.51V16.17Z"/><path class="g" d="M486.9,37.71c-6.24,0-10.96-4.19-10.96-10.92s4.83-10.92,11.04-10.92,11.04,4.19,11.04,10.92-4.87,10.92-11.11,10.92Zm0-5.63c2.32,0,4.49-1.71,4.49-5.29s-2.13-5.29-4.42-5.29-4.42,1.67-4.42,5.29,1.98,5.29,4.34,5.29Z"/></g><g><path class="e" d="M83.83,98.3c4.23,0,7.43,2.38,8.44,6.24h-4.76c-.74-1.52-2.08-2.28-3.73-2.28-2.66,0-4.49,1.98-4.49,5.12s1.83,5.12,4.49,5.12c1.65,0,2.99-.76,3.73-2.28h4.76c-1.01,3.85-4.21,6.21-8.44,6.21-5.25,0-8.95-3.73-8.95-9.05s3.7-9.08,8.95-9.08Z"/><path class="e" d="M101.38,116.5c-4.16,0-7.3-2.79-7.3-7.27s3.22-7.28,7.35-7.28,7.35,2.79,7.35,7.28-3.24,7.27-7.4,7.27Zm0-3.75c1.55,0,2.99-1.14,2.99-3.52s-1.42-3.53-2.94-3.53-2.94,1.12-2.94,3.53,1.32,3.52,2.89,3.52Z"/><path class="e" d="M120.85,108.62c0-1.93-1.06-2.99-2.71-2.99s-2.71,1.06-2.71,2.99v7.68h-4.33v-14.14h4.33v1.88c.86-1.19,2.38-2.03,4.28-2.03,3.27,0,5.45,2.23,5.45,6.03v8.26h-4.31v-7.68Z"/><path class="e" d="M128.19,97.54h4.33v6.51c.86-1.22,2.41-2.05,4.36-2.05,3.22,0,5.37,2.23,5.37,6.03v8.26h-4.31v-7.68c0-1.93-1.06-2.99-2.71-2.99s-2.71,1.06-2.71,2.99v7.68h-4.33v-18.76Z"/><path class="e" d="M151.57,116.5c-4.16,0-7.15-2.79-7.15-7.27s2.94-7.28,7.15-7.28,7.05,2.74,7.05,7.05c0,.4-.03,.84-.08,1.27h-9.81c.15,1.85,1.29,2.71,2.69,2.71,1.22,0,1.9-.61,2.26-1.37h4.61c-.68,2.76-3.19,4.89-6.72,4.89Zm-2.81-8.64h5.42c0-1.55-1.22-2.43-2.66-2.43s-2.51,.86-2.76,2.43Z"/><path class="e" d="M167.14,101.96c3.55,0,6.06,1.95,6.79,5.32h-4.61c-.36-.99-1.07-1.62-2.26-1.62-1.55,0-2.61,1.22-2.61,3.57s1.06,3.57,2.61,3.57c1.19,0,1.88-.58,2.26-1.62h4.61c-.73,3.27-3.24,5.32-6.79,5.32-4.16,0-7.1-2.79-7.1-7.27s2.94-7.28,7.1-7.28Z"/><path class="e" d="M175.85,98.36c0-1.32,1.04-2.36,2.59-2.36s2.56,1.04,2.56,2.36-1.04,2.33-2.56,2.33-2.59-1.04-2.59-2.33Zm.41,3.8h4.33v14.14h-4.33v-14.14Z"/><path class="e" d="M203.23,108.62c0-1.85-1.07-2.86-2.71-2.86s-2.71,1.01-2.71,2.86v7.68h-4.31v-7.68c0-1.85-1.07-2.86-2.71-2.86s-2.71,1.01-2.71,2.86v7.68h-4.33v-14.14h4.33v1.78c.84-1.14,2.28-1.93,4.13-1.93,2.13,0,3.85,.94,4.82,2.64,.94-1.5,2.71-2.64,4.77-2.64,3.5,0,5.75,2.23,5.75,6.03v8.26h-4.31v-7.68Z"/><path class="e" d="M216.88,116.5c-4.16,0-7.15-2.79-7.15-7.27s2.94-7.28,7.15-7.28,7.05,2.74,7.05,7.05c0,.4-.02,.84-.07,1.27h-9.81c.15,1.85,1.29,2.71,2.69,2.71,1.22,0,1.9-.61,2.26-1.37h4.61c-.69,2.76-3.2,4.89-6.72,4.89Zm-2.81-8.64h5.42c0-1.55-1.22-2.43-2.66-2.43s-2.51,.86-2.76,2.43Z"/><path class="e" d="M235.98,108.62c0-1.93-1.07-2.99-2.71-2.99s-2.71,1.06-2.71,2.99v7.68h-4.34v-14.14h4.34v1.88c.86-1.19,2.38-2.03,4.28-2.03,3.27,0,5.45,2.23,5.45,6.03v8.26h-4.31v-7.68Z"/><path class="e" d="M244,105.76h-1.72v-3.6h1.72v-3.45h4.33v3.45h2.84v3.6h-2.84v5.68c0,.84,.36,1.19,1.32,1.19h1.55v3.68h-2.21c-2.94,0-4.99-1.24-4.99-4.92v-5.63Z"/><path class="e" d="M260.05,116.5c-4.16,0-7.3-2.79-7.3-7.27s3.22-7.28,7.35-7.28,7.35,2.79,7.35,7.28-3.24,7.27-7.4,7.27Zm0-3.75c1.55,0,2.99-1.14,2.99-3.52s-1.42-3.53-2.94-3.53-2.94,1.12-2.94,3.53,1.32,3.52,2.89,3.52Z"/></g><g><path class="e" d="M611.38,166.23h-2.69v6.39h-4.33v-17.79h7.02c4.36,0,6.54,2.46,6.54,5.73,0,2.94-2,5.68-6.54,5.68Zm-.33-3.45c1.73,0,2.46-.86,2.46-2.23s-.73-2.23-2.46-2.23h-2.36v4.46h2.36Z"/><path class="e" d="M626.63,172.82c-4.16,0-7.3-2.79-7.3-7.27s3.22-7.28,7.35-7.28,7.35,2.79,7.35,7.28-3.24,7.27-7.4,7.27Zm0-3.75c1.55,0,2.99-1.14,2.99-3.52s-1.42-3.53-2.94-3.53-2.94,1.12-2.94,3.53,1.32,3.52,2.89,3.52Z"/><path class="e" d="M642.1,172.82c-3.78,0-6.31-2.1-6.51-4.84h4.28c.1,.99,.99,1.65,2.18,1.65,1.12,0,1.7-.51,1.7-1.14,0-2.28-7.71-.63-7.71-5.83,0-2.41,2.05-4.38,5.75-4.38s5.68,2.03,5.96,4.82h-4.01c-.13-.96-.86-1.6-2.08-1.6-1.01,0-1.57,.4-1.57,1.09,0,2.26,7.66,.66,7.73,5.93,0,2.46-2.18,4.31-5.73,4.31Z"/><path class="e" d="M656.25,172.82c-3.78,0-6.31-2.1-6.52-4.84h4.28c.1,.99,.99,1.65,2.18,1.65,1.11,0,1.7-.51,1.7-1.14,0-2.28-7.71-.63-7.71-5.83,0-2.41,2.05-4.38,5.75-4.38s5.68,2.03,5.96,4.82h-4c-.13-.96-.86-1.6-2.08-1.6-1.02,0-1.57,.4-1.57,1.09,0,2.26,7.66,.66,7.73,5.93,0,2.46-2.18,4.31-5.73,4.31Z"/><path class="e" d="M664.24,154.67c0-1.32,1.04-2.36,2.58-2.36s2.56,1.04,2.56,2.36-1.04,2.33-2.56,2.33-2.58-1.04-2.58-2.33Zm.4,3.8h4.33v14.14h-4.33v-14.14Z"/><path class="e" d="M680.83,158.27c3.5,0,6.24,2.79,6.24,7.25s-2.76,7.3-6.24,7.3c-2.08,0-3.57-.94-4.36-2.18v1.98h-4.33v-18.76h4.33v6.62c.79-1.27,2.33-2.2,4.36-2.2Zm-1.29,3.78c-1.62,0-3.09,1.24-3.09,3.5s1.47,3.5,3.09,3.5,3.12-1.27,3.12-3.52-1.47-3.47-3.12-3.47Z"/><path class="e" d="M688.95,154.67c0-1.32,1.04-2.36,2.59-2.36s2.56,1.04,2.56,2.36-1.04,2.33-2.56,2.33-2.59-1.04-2.59-2.33Zm.41,3.8h4.33v14.14h-4.33v-14.14Z"/><path class="e" d="M696.84,153.86h4.33v18.76h-4.33v-18.76Z"/><path class="e" d="M703.91,154.67c0-1.32,1.04-2.36,2.59-2.36s2.56,1.04,2.56,2.36-1.04,2.33-2.56,2.33-2.59-1.04-2.59-2.33Zm.41,3.8h4.33v14.14h-4.33v-14.14Z"/><path class="e" d="M717.17,158.27c1.88,0,3.5,.86,4.36,2.15v-6.57h4.34v18.76h-4.34v-2.03c-.78,1.29-2.28,2.23-4.36,2.23-3.47,0-6.24-2.84-6.24-7.3s2.76-7.25,6.24-7.25Zm1.27,3.78c-1.62,0-3.09,1.22-3.09,3.47s1.47,3.52,3.09,3.52,3.09-1.24,3.09-3.5-1.44-3.5-3.09-3.5Z"/><path class="e" d="M734.39,158.27c2.1,0,3.6,.96,4.36,2.2v-2h4.34v14.14h-4.34v-2c-.78,1.24-2.28,2.2-4.38,2.2-3.45,0-6.21-2.84-6.21-7.3s2.76-7.25,6.24-7.25Zm1.27,3.78c-1.62,0-3.09,1.22-3.09,3.47s1.47,3.52,3.09,3.52,3.09-1.24,3.09-3.5-1.44-3.5-3.09-3.5Z"/><path class="e" d="M751.61,158.27c1.88,0,3.5,.86,4.36,2.15v-6.57h4.34v18.76h-4.34v-2.03c-.78,1.29-2.28,2.23-4.36,2.23-3.47,0-6.24-2.84-6.24-7.3s2.76-7.25,6.24-7.25Zm1.27,3.78c-1.62,0-3.09,1.22-3.09,3.47s1.47,3.52,3.09,3.52,3.09-1.24,3.09-3.5-1.44-3.5-3.09-3.5Z"/><path class="e" d="M769.75,172.82c-4.16,0-7.15-2.79-7.15-7.27s2.94-7.28,7.15-7.28,7.05,2.74,7.05,7.05c0,.4-.02,.84-.07,1.27h-9.81c.15,1.85,1.29,2.71,2.69,2.71,1.22,0,1.9-.61,2.26-1.37h4.61c-.69,2.76-3.2,4.89-6.72,4.89Zm-2.81-8.64h5.42c0-1.55-1.22-2.43-2.66-2.43s-2.51,.86-2.76,2.43Z"/></g></svg>