<svg xmlns="http://www.w3.org/2000/svg" width="23" height="23" viewBox="0 0 23 23">
  <g id="icon-interação-slide71" transform="translate(-6468 -6449)">
    <circle id="Elipse_24" data-name="Elipse 24" cx="11.5" cy="11.5" r="11.5" transform="translate(6468 6449)" fill="#2f6b7f" opacity="0.5"/>
    <circle id="Elipse_23" data-name="Elipse 23" cx="9.994" cy="9.994" r="9.994" transform="matrix(1, 0.017, -0.017, 1, 6469.349, 6450)" fill="#2f6b7f"/>
    <path id="Icon_awesome-plus" data-name="Icon awesome-plus" d="M12.234,7.426H8V3.191a.941.941,0,0,0-.941-.941H6.117a.941.941,0,0,0-.941.941V7.426H.941A.941.941,0,0,0,0,8.367v.941a.941.941,0,0,0,.941.941H5.176v4.235a.941.941,0,0,0,.941.941h.941A.941.941,0,0,0,8,14.484V10.249h4.235a.941.941,0,0,0,.941-.941V8.367A.941.941,0,0,0,12.234,7.426Z" transform="translate(6473 6451.75)" fill="#fff"/>
  </g>
</svg>
